<svg width="12" height="10" viewBox="0 0 12 10" fill="none" xmlns="http://www.w3.org/2000/svg">
<path d="M11.8082 5.46624L7.47455 9.79995C7.35085 9.92366 7.18597 9.99156 7.01017 9.99156C6.83417 9.99156 6.66939 9.92356 6.54569 9.79995L6.15223 9.4064C6.02862 9.28289 5.96052 9.11791 5.96052 8.94201C5.96052 8.76621 6.02862 8.59567 6.15223 8.47216L8.6804 5.93843H0.648286C0.286143 5.93843 0 5.65492 0 5.29268V4.73629C0 4.37405 0.286143 4.06196 0.648286 4.06196H8.70908L6.15232 1.51408C6.02872 1.39037 5.96062 1.22988 5.96062 1.05398C5.96062 0.878277 6.02872 0.715449 6.15232 0.591841L6.54578 0.199552C6.66949 0.0758457 6.83427 0.00843143 7.01027 0.00843143C7.18607 0.00843143 7.35095 0.0767231 7.47465 0.200429L11.8083 4.53405C11.9323 4.65815 12.0005 4.8238 12 4.9999C12.0004 5.17658 11.9323 5.34233 11.8082 5.46624Z" fill="white"/>
</svg>
