<svg viewBox="0 0 18 10" fill="none" xmlns="http://www.w3.org/2000/svg">
<path d="M17.7938 4.50229C17.7936 4.50208 17.7934 4.50184 17.7931 4.50163L14.1192 0.845375C13.8439 0.571473 13.3987 0.572492 13.1248 0.847765C12.8508 1.123 12.8519 1.56819 13.1271 1.84212L15.5938 4.29687L0.703124 4.29687C0.314788 4.29687 -6.94318e-07 4.61166 -7.62217e-07 5C-8.30116e-07 5.38833 0.314788 5.70312 0.703124 5.70312L15.5938 5.70312L13.1272 8.15787C12.8519 8.43181 12.8509 8.87699 13.1248 9.15223C13.3988 9.42754 13.844 9.42849 14.1192 9.15462L17.7932 5.49837C17.7934 5.49816 17.7936 5.49792 17.7938 5.49771C18.0692 5.22286 18.0683 4.77623 17.7938 4.50229Z" fill="#313643"/>
</svg>
