<svg width="151" height="94" viewBox="0 0 151 94" fill="none" xmlns="http://www.w3.org/2000/svg">
<path d="M26.0162 22.8853C26.0162 22.8853 34.0223 27.2227 31.3929 35.7717C28.7636 44.3206 21.2242 40.4925 21.2242 40.4925C21.2242 40.4925 20.1143 39.5361 19.763 38.9618C19.4116 38.3874 19.0615 37.6857 19.0615 37.6857C19.0615 37.6857 23.7952 39.1528 26.6009 36.0914C29.4067 33.0299 28.7636 29.2655 28.4705 27.7347C28.1775 26.2027 26.0162 22.8853 26.0162 22.8853Z" fill="#BAA664"/>
<path d="M27.3818 45.3883C27.3818 45.3883 29.6452 51.039 24.8359 53.5606C20.0267 56.0809 17.7911 50.8732 17.7911 50.8732C17.7911 50.8732 17.6227 49.9341 17.6798 49.5176C17.7368 49.1011 17.8468 48.6289 17.8468 48.6289C17.8468 48.6289 19.6316 51.4887 22.2928 51.4582C24.954 51.4277 26.1646 49.4751 26.6406 48.666C27.1192 47.8569 27.3818 45.3883 27.3818 45.3883Z" fill="#BAA664"/>
<path d="M27.4658 43.2065C27.4658 43.2065 32.8744 43.2065 34.024 48.4831C35.1736 53.7598 30.1562 53.8964 30.1562 53.8964C30.1562 53.8964 29.3023 53.7081 28.9522 53.5051C28.6022 53.3022 28.215 53.0316 28.215 53.0316C28.215 53.0316 31.091 52.4506 31.6413 50.0258C32.1915 47.601 30.7555 45.7944 30.1549 45.0675C29.5555 44.3406 27.4658 43.2065 27.4658 43.2065Z" fill="#BAA664"/>
<path d="M114.976 17.4268C114.976 17.4268 114.569 15.7077 114.976 14.5457C115.383 13.3838 115.5 12.7431 116.778 12.4526C118.056 12.1621 119.336 12.7431 119.917 13.6743C120.497 14.6041 120.44 16.5235 120.265 16.9307C120.09 17.3379 119.102 15.2594 118.173 14.9026C117.243 14.5457 116.312 15.1281 115.964 15.6507C115.616 16.1746 114.976 17.4268 114.976 17.4268Z" fill="#BAA664"/>
<path d="M95.578 17.4294C95.578 17.4294 92.1769 19.9589 94.4443 22.4884C96.7117 25.018 100.112 21.3543 100.112 21.3543C100.112 21.3543 98.5416 27.8964 95.228 28.1577C91.9144 28.419 89.822 25.969 89.2982 23.3559C88.7745 20.7428 89.9082 19.5225 91.3031 18.3008C92.698 17.0792 95.578 17.4294 95.578 17.4294Z" fill="#BAA664"/>
<path d="M74.1577 65.9219L73.8514 65.76C73.7294 65.7017 73.6698 65.7879 73.5531 65.9922C73.4072 66.2721 72.9909 66.6753 72.5082 66.8358C71.9659 67.0162 71.592 66.5453 71.5535 64.6737L71.5137 62.7357L71.4116 57.7111C71.409 57.609 71.4076 57.5082 71.4037 57.41C71.4037 57.41 71.2764 54.9176 71.6781 53.8127L72.1953 52.8404L72.1979 51.6413L67.6034 53.9891L67.5995 55.4562L68.2399 55.2227C68.5953 55.0927 68.765 55.106 68.822 55.1179C68.8247 55.1179 68.826 55.1193 68.8286 55.1193C68.8658 55.2055 68.9745 55.5384 68.9718 56.5213L68.952 63.6178C68.948 65.0544 68.7809 66.1155 68.4574 66.7721C68.1418 67.4088 67.0386 68.4567 66.2868 68.7857C65.7829 69.0072 65.4925 69.0152 65.336 68.9833C65.2233 68.9608 65.1716 68.9143 65.1385 68.8759C65.0549 68.779 64.7831 68.3413 64.7871 66.7562L64.8083 59.2737L64.7115 57.0134L64.3959 54.8924C64.3614 54.8221 64.3018 54.7863 64.1984 54.8155C64.0644 54.8526 63.9318 54.9243 63.7343 55.0795L60.4644 57.6873C60.2655 57.8425 60.2006 57.9274 60.2032 58.0587L60.2059 58.255C60.2085 58.3863 60.2748 58.4009 60.4764 58.4089L61.1155 58.5574C62.0569 58.7856 62.3287 59.0389 62.3579 60.7129L62.4096 63.7982C62.4202 64.4615 62.4388 65.0411 62.4547 65.5677L62.452 66.2933C62.4494 67.2788 62.4812 67.9726 62.5502 68.4129C62.6257 68.8984 62.7584 69.295 62.9533 69.6227C63.3086 70.2236 63.8151 70.6056 64.4185 70.7289C64.437 70.7329 64.4556 70.7369 64.4742 70.7395C65.043 70.8404 65.7683 70.843 66.475 70.3827C67.496 69.7195 68.5223 68.718 69.2636 67.9115L69.2675 67.9208C69.2808 67.9023 69.2941 67.8824 69.3073 67.8638C69.3869 67.7776 69.4625 67.6927 69.5341 67.6118C69.5712 67.5693 69.6096 67.5242 69.6494 67.4778C69.957 68.6995 70.7513 69.2712 71.82 68.9143C73.3568 68.4023 73.9058 67.0945 74.1378 66.5214C74.3142 66.1341 74.2505 65.9908 74.1577 65.9219Z" fill="#BAA664"/>
<path d="M108.107 10.5003C106.188 10.7576 104.503 12.7473 104.039 15.6376C103.574 18.5279 108.107 24.1136 112.235 24.5633C116.361 25.0129 118.105 24.2423 119.267 23.7289C120.43 23.2156 123.627 20.6542 123.976 17.5994C124.325 14.5446 123.22 13.4543 122.349 12.4263C121.476 11.3983 119.094 11.2059 119.094 11.2059C119.094 11.2059 123.453 13.3959 121.651 17.5994C119.849 21.8029 116.22 22.7659 114.025 22.7659C111.829 22.7659 108.283 20.8399 107.586 19.1699C106.888 17.4999 107.295 15.8313 107.935 15.0606C108.574 14.2899 109.91 14.3536 110.202 14.8033C110.492 15.2529 109.504 16.8579 109.504 16.8579C109.504 16.8579 111.713 16.2159 112.004 14.2249C112.294 12.2339 111.074 11.5283 110.492 11.1423C109.909 10.7576 108.107 10.5003 108.107 10.5003Z" fill="#BAA664"/>
<path d="M25.963 22.0057C31.7269 14.5365 41.1744 9.66581 51.8524 9.66581C59.3229 9.66581 66.1914 12.0494 71.6172 16.0394L73.756 15.2661C67.9019 10.7681 60.1994 8.03693 51.7622 8.03693C39.9598 8.03693 29.5988 13.3812 23.7168 21.4301L25.963 22.0057Z" fill="#BAA664"/>
<path d="M42.536 38.5029C42.5599 37.3197 42.5692 33.4505 42.5466 32.892C42.483 31.088 41.9473 31.295 40.4025 32.0736L39.3617 32.5989C39.1601 32.701 39.0938 32.6705 39.0978 32.51L39.1137 31.7102C39.1163 31.5497 39.1853 31.4528 39.3868 31.3507C39.9239 31.0801 41.4315 30.4142 43.8487 29.1952C44.9228 28.654 46.9382 27.5411 48.113 26.9495C50.7305 25.6284 52.8733 24.7688 54.0362 24.8166C55.9296 24.8431 56.5714 25.9759 56.5343 27.8635C56.472 31.0297 54.9802 32.575 52.3363 35.2067L52.4357 35.2199C55.6711 34.6018 57.8138 35.4202 57.7475 38.8106C57.7157 40.4422 56.6311 43.2065 55.0691 44.9123C53.6437 46.455 51.7237 47.7403 48.6368 49.2976C46.3217 50.4662 45.0143 51.0299 43.6048 51.7409C41.9274 52.5871 39.9451 53.6828 39.3073 54.0038C38.9042 54.2067 38.8392 54.1762 38.8419 54.0489L38.8578 53.2172C38.8604 53.0567 38.9294 52.9599 39.1641 52.8405L40.7751 52.0274C41.816 51.5021 41.9911 51.0339 42.1449 49.9422C42.2602 49.1556 42.4101 44.899 42.4618 42.2767L42.536 38.5029ZM45.4651 38.2615C46.1016 38.0042 46.6717 37.7163 47.2419 37.4285C49.1553 36.4641 50.6708 35.4136 51.4863 34.4639C52.8812 32.7779 53.4129 31.0841 53.4408 29.6767C53.4647 28.4617 53.0868 27.3846 51.8629 27.1472C50.6708 26.9575 48.9988 27.5159 47.287 28.3794C46.8176 28.6169 46.449 28.7707 46.1785 28.9697C45.9093 29.1687 45.7024 29.495 45.6971 29.7828C45.6507 30.4394 45.5632 33.2396 45.5115 35.8951L45.4651 38.2615ZM45.4041 41.3322L45.3179 45.7466C45.2596 48.69 45.9729 49.6292 48.7575 48.2231C51.5765 46.8012 54.186 44.2186 54.2602 40.4117C54.3106 37.8211 52.9687 36.8196 51.0023 37.0823C49.6366 37.264 48.06 38.028 46.5166 38.8067L45.4425 39.3479L45.4041 41.3322Z" fill="#BAA664"/>
<path d="M71.1306 34.0859C71.0948 35.9098 71.486 36.2825 72.0906 35.9774C72.6276 35.7068 73.1023 35.2134 73.2747 34.9056C73.4126 34.6775 73.4802 34.5807 73.6128 34.6085L73.943 34.6947C74.0411 34.7398 74.1061 34.8658 73.8979 35.2876C73.6195 35.9031 72.9618 37.3118 71.25 38.1753C70.042 38.7842 69.1855 38.3929 68.9097 37.2336L68.842 37.268C68.122 38.4234 67.0016 39.6543 65.482 40.8959C64.8403 41.4092 64.237 41.7143 63.4984 42.087C62.6936 42.4929 61.4975 42.4624 61.5373 40.4475C61.5665 38.9765 62.2958 37.341 64.9689 34.8844C66.4911 33.4823 68.252 31.8349 68.7969 31.116L68.8367 29.0692C68.7797 28.5599 68.7625 27.7441 68.4018 27.5146C68.0412 27.2852 67.3755 27.3356 66.4023 27.8264C65.7313 28.1646 64.6852 28.9459 64.2078 29.5985C63.7305 30.2511 64.0222 30.5787 64.0116 31.1544C63.989 32.2739 63.5727 33.1812 62.1977 33.875C61.6606 34.1456 61.3981 33.993 61.4127 33.2582C61.4326 32.2342 62.3965 30.5456 63.7875 29.0825C65.2129 27.5717 66.393 26.6591 67.9033 25.8977C69.4798 25.1018 70.1096 25.2278 70.5711 25.4069C71.2632 25.7226 71.2818 26.4415 71.2646 27.3051L71.1691 32.1997L71.1306 34.0859ZM68.7439 32.0909C67.5187 33.5646 64.2171 35.8633 64.1654 38.5176C64.1415 39.7008 64.8695 39.905 65.8759 39.397C66.8491 38.9062 68.6498 36.8887 68.667 36.0252L68.7439 32.0909Z" fill="#BAA664"/>
<path d="M77.5301 26.2014C77.5619 24.5699 77.2994 24.3855 76.3699 24.3802L75.7387 24.3815C75.5385 24.4186 75.4722 24.4213 75.4748 24.2926L75.4788 24.1003C75.4815 23.973 75.5491 23.8748 75.7533 23.6772L79.108 20.3703C79.3109 20.1727 79.4461 20.0732 79.5801 20.0056C79.7816 19.9034 79.8108 20.0785 79.8068 20.2708L79.9315 22.3932L80.0654 22.3255C81.101 20.3465 82.7041 18.2387 84.1468 17.5105C85.2871 16.9348 85.8453 17.3195 85.8308 18.0544C85.8122 18.9815 84.9941 20.0281 84.3907 20.3332C84.0221 20.5189 83.688 20.5613 83.4228 20.568C83.1576 20.5441 82.7571 20.6502 82.3209 20.8704C81.7839 21.141 80.9047 21.901 80.3147 23.2129C80.1065 23.6665 79.9606 24.3099 79.9593 24.4054L79.828 31.1225C79.8081 32.1147 80.0375 32.315 80.7416 31.9595L82.3182 31.1636C82.5198 31.0615 82.5516 31.1411 82.5476 31.3334L82.5357 31.9091C82.5317 32.1014 82.4959 32.2141 82.362 32.2818C82.1604 32.3839 80.6183 33.0657 78.807 33.981C76.7266 35.0302 75.3157 35.838 75.1142 35.9388C74.9802 36.0064 74.9139 35.9759 74.9192 35.7199L74.9298 35.1761C74.9338 34.9519 75.0028 34.8538 75.3051 34.7026L76.6138 34.042C77.1177 33.7886 77.3564 33.4782 77.3644 33.0617C77.4187 31.9886 77.4399 30.8691 77.4731 29.2058L77.5301 26.2014Z" fill="#BAA664"/>
<path d="M92.9082 41.0642C92.9055 39.9155 92.8485 36.1563 92.8233 35.6098C92.7451 33.8496 92.3513 33.9982 91.2149 34.6031L90.4499 35.0103C90.3014 35.0899 90.2523 35.0541 90.2523 34.8989L90.251 34.1229C90.251 33.9677 90.3 33.8788 90.4485 33.8006C90.8437 33.5897 91.9535 33.0909 93.7303 32.1438C94.5205 31.7233 96.0003 30.8399 96.8635 30.3796C98.7887 29.353 100.368 28.7282 101.232 28.8887C102.641 29.1009 103.138 30.2656 103.14 32.0961C103.147 35.1681 102.062 36.5238 100.14 38.8225L100.214 38.8451C102.61 38.5625 104.217 39.5693 104.224 42.8589C104.226 44.4414 103.467 47.0226 102.333 48.5268C101.299 49.8865 99.8919 50.9463 97.6219 52.1573C95.9194 53.0646 94.9568 53.4851 93.9199 54.0383C92.6854 54.6962 91.2308 55.565 90.7615 55.8157C90.4658 55.9736 90.4154 55.9377 90.4154 55.8144L90.4141 55.0079C90.4141 54.8527 90.4631 54.7638 90.6355 54.6723L91.8196 54.0409C92.5846 53.6337 92.7066 53.1946 92.8034 52.1494C92.8763 51.396 92.9175 47.2733 92.9121 44.7279L92.9082 41.0642ZM95.0827 41.1173C95.5521 40.9289 95.9711 40.7061 96.3901 40.4819C97.7969 39.7325 98.9067 38.861 99.4981 38.0174C100.508 36.5158 100.876 34.9214 100.872 33.5565C100.869 32.3773 100.571 31.2936 99.6559 30.9421C98.7662 30.6396 97.5317 31.0177 96.2734 31.6888C95.9273 31.8732 95.6569 31.9873 95.4593 32.1544C95.2617 32.3216 95.1145 32.6174 95.1145 32.8972C95.0907 33.5313 95.0721 36.2439 95.0774 38.8212L95.0827 41.1173ZM95.088 44.0965L95.0973 48.3796C95.1026 51.2355 95.6489 52.2184 97.6961 51.1267C99.7686 50.0218 101.666 47.7668 101.659 44.0739C101.654 41.5603 100.64 40.454 99.1812 40.5164C98.1682 40.5588 97.008 41.1465 95.873 41.7513L95.0827 42.1718L95.088 44.0965Z" fill="#BAA664"/>
<path d="M108.638 37.9286C108.589 38.2336 108.565 38.7443 108.566 39.458C108.573 42.4995 110.107 43.9812 112.081 42.928C113.586 42.1255 114.646 40.474 115.063 39.2258C115.113 39.0759 115.211 38.9605 115.285 38.9526L115.606 38.999C115.68 38.9911 115.729 39.0574 115.607 39.4646C115.166 40.9423 113.886 43.7689 111.69 44.9389C110.284 45.6883 108.728 45.9894 107.812 44.8009C106.945 43.6787 106.721 42.6481 106.717 40.4754C106.714 39.2643 106.957 37.0544 108.262 34.7119C109.32 32.7806 110.553 31.8428 111.787 31.1862C114.625 29.6727 115.421 32.6042 115.424 33.8152C115.425 34.2503 115.128 34.4692 114.735 34.6801L108.638 37.9286ZM112.559 34.9056C113.028 34.6562 113.224 34.3949 113.224 34.1163C113.223 33.4027 112.922 31.5125 111.319 32.3668C110.233 32.9451 109.199 34.3989 108.735 36.9443L112.559 34.9056Z" fill="#BAA664"/>
<path d="M119.151 32.3244C119.102 32.6294 119.078 33.1401 119.079 33.8537C119.086 36.8953 120.62 38.3769 122.594 37.3237C124.099 36.5212 125.159 34.8698 125.576 33.6216C125.625 33.4717 125.724 33.3563 125.798 33.3484L126.119 33.3948C126.193 33.3868 126.242 33.4532 126.12 33.8604C125.678 35.338 124.399 38.1647 122.203 39.3346C120.796 40.084 119.241 40.3852 118.325 39.1967C117.458 38.0745 117.233 37.0438 117.23 34.8711C117.227 33.6601 117.47 31.4502 118.774 29.1077C119.832 27.1764 121.065 26.2386 122.3 25.5821C125.137 24.0686 125.934 27 125.937 28.2111C125.938 28.6461 125.641 28.865 125.247 29.0759L119.151 32.3244ZM123.072 29.3014C123.541 29.052 123.737 28.7907 123.737 28.5122C123.736 27.7985 123.435 25.9084 121.832 26.7626C120.746 27.3409 119.712 28.7947 119.248 31.3401L123.072 29.3014Z" fill="#BAA664"/>
<path d="M129.217 26.9561C129.215 25.3737 129.016 25.1681 128.324 25.0713L127.854 25.0102C127.706 25.0275 127.657 25.0222 127.657 24.8988V24.7131C127.657 24.5884 127.706 24.5009 127.853 24.3284L130.293 21.4434C130.441 21.271 130.539 21.1874 130.638 21.1357C130.786 21.0561 130.811 21.2298 130.811 21.4155L130.939 23.4914L131.037 23.4384C131.774 21.6158 132.932 19.7257 133.992 19.1593C134.832 18.7122 135.252 19.1407 135.253 19.8543C135.255 20.755 134.665 21.6915 134.22 21.9276C133.949 22.0721 133.702 22.0801 133.504 22.0602C133.307 22.0098 133.01 22.0748 132.689 22.2459C132.294 22.4568 131.653 23.1094 131.236 24.3258C131.088 24.7463 130.99 25.3578 130.99 25.4506L131.004 31.9688C131.005 32.9305 131.179 33.1493 131.697 32.8734L132.857 32.2553C133.006 32.1757 133.03 32.2566 133.031 32.4423L133.032 33.0008C133.032 33.1865 133.008 33.2926 132.909 33.3457C132.76 33.4252 131.625 33.9373 130.293 34.6469C128.763 35.4627 127.727 36.1087 127.579 36.1869C127.48 36.24 127.43 36.2042 127.43 35.9561L127.429 35.4282C127.429 35.2106 127.478 35.1231 127.699 35.0037L128.662 34.4904C129.032 34.2927 129.204 34.0142 129.204 33.6109C129.227 32.5737 129.224 31.4873 129.221 29.873L129.217 26.9561Z" fill="#BAA664"/>
<path d="M105.376 17.1867C105.085 16.4306 104.039 12.5348 101.249 11.0227C98.4594 9.51055 94.8555 7.82464 88.8104 8.05676C82.7653 8.29154 71.431 13.9886 71.431 13.9886C71.431 13.9886 67.3723 16.4876 63.5535 18.8394C59.8992 18.2412 55.8921 18.0807 51.7206 18.4441C43.086 19.1962 35.532 22.0375 30.5742 25.9213C31.3724 26.2954 32.1707 26.6389 32.884 26.9321C37.1629 23.6862 43.566 21.3212 50.8641 20.6858C54.1392 20.4006 57.2963 20.4895 60.2147 20.8967C58.4883 21.9592 57.2008 22.7524 56.99 22.8824L64.8927 21.2482C72.7013 16.6627 78.4255 13.4103 82.9404 11.7217C89.6245 9.22138 95.6113 10.8489 97.5299 11.605C99.4486 12.3611 102.295 15.5008 102.354 19.9775C102.412 24.4543 97.3549 28.4668 97.3549 28.4668C97.3549 28.4668 99.0985 28.0012 101.772 26.1415C104.445 24.2805 105.666 17.9427 105.376 17.1867Z" fill="#BAA664"/>
<path d="M96.3184 63.4651L97.838 62.6706C98.1696 62.4982 98.4679 62.465 98.7345 62.5751C99.001 62.6839 99.2291 62.9186 99.4161 63.2781C99.6097 63.6482 99.6707 63.9838 99.5991 64.2862C99.5288 64.5886 99.3086 64.8353 98.94 65.029L98.4387 65.2903L99.1495 66.6499L98.2306 67.1301L96.3184 63.4651ZM98.0529 64.5475L98.277 64.4308C98.4533 64.3393 98.5568 64.2358 98.5886 64.123C98.6204 64.0103 98.6058 63.8936 98.5435 63.7755C98.4838 63.6601 98.4016 63.5792 98.2982 63.5315C98.1947 63.4837 98.0568 63.5049 97.8858 63.5938L97.6259 63.7304L98.0529 64.5475Z" fill="#BAA664"/>
<path d="M101.234 65.5622L99.3193 61.8958L100.843 61.1C101.125 60.9527 101.357 60.8692 101.538 60.8519C101.718 60.8333 101.897 60.8824 102.073 60.9965C102.25 61.1106 102.398 61.2857 102.52 61.5191C102.626 61.7221 102.683 61.9157 102.69 62.1001C102.697 62.2845 102.663 62.4543 102.588 62.6095C102.54 62.709 102.458 62.8124 102.343 62.9225C102.475 62.9106 102.577 62.9146 102.651 62.9332C102.701 62.9451 102.783 62.9849 102.898 63.0499C103.013 63.1149 103.096 63.1679 103.145 63.2104L104.142 64.0408L103.109 64.5806L102.035 63.7158C101.897 63.603 101.792 63.538 101.722 63.5195C101.627 63.4969 101.536 63.5075 101.454 63.5513L101.373 63.5937L102.15 65.082L101.234 65.5622ZM101.014 62.9013L101.4 62.6997C101.441 62.6785 101.514 62.6188 101.616 62.5233C101.669 62.4768 101.698 62.4118 101.705 62.3309C101.711 62.2487 101.693 62.1678 101.652 62.0882C101.589 61.9701 101.512 61.8945 101.418 61.8627C101.324 61.8308 101.194 61.8587 101.027 61.9463L100.625 62.1558L101.014 62.9013Z" fill="#BAA664"/>
<path d="M102.521 60.2232L104.972 58.9432L105.38 59.7258L103.846 60.527L104.15 61.1093L105.572 60.3651L105.962 61.1133L104.539 61.8574L104.917 62.5803L106.495 61.7553L106.929 62.5856L104.433 63.8895L102.521 60.2232Z" fill="#BAA664"/>
<path d="M105.499 58.6672L106.702 58.0385L108.33 60.0268L107.626 57.5557L108.827 56.9282L110.742 60.5945L109.993 60.9858L108.533 58.1897L109.416 61.2869L108.738 61.6411L106.702 59.1461L108.162 61.9422L107.412 62.3335L105.499 58.6672Z" fill="#BAA664"/>
<path d="M109.447 56.6045L110.364 56.1257L112.278 59.792L111.362 60.2708L109.447 56.6045Z" fill="#BAA664"/>
<path d="M112.946 54.7768L113.858 54.3006L114.998 56.4839C115.111 56.7001 115.191 56.919 115.237 57.1405C115.283 57.362 115.285 57.5742 115.244 57.7798C115.203 57.9854 115.134 58.1499 115.035 58.2746C114.9 58.4497 114.708 58.6009 114.46 58.7309C114.315 58.8065 114.152 58.8755 113.969 58.9391C113.786 59.0028 113.618 59.028 113.464 59.0134C113.312 58.9988 113.151 58.9484 112.985 58.8609C112.82 58.7733 112.68 58.6672 112.57 58.5399C112.393 58.3356 112.256 58.1446 112.162 57.9642L111.021 55.7809L111.934 55.3047L113.102 57.5411C113.207 57.7414 113.333 57.874 113.481 57.939C113.63 58.0053 113.784 57.996 113.941 57.9125C114.099 57.8302 114.193 57.7109 114.225 57.553C114.257 57.3952 114.22 57.2148 114.114 57.0118L112.946 54.7768Z" fill="#BAA664"/>
<path d="M114.454 53.9889L115.657 53.3602L117.285 55.3485L116.581 52.8774L117.782 52.25L119.697 55.9162L118.948 56.3075L117.488 53.5114L118.371 56.6086L117.693 56.9627L115.658 54.4677L117.118 57.2638L116.369 57.6551L114.454 53.9889Z" fill="#BAA664"/>
<path d="M124.008 52.9809C124.173 53.0193 124.281 53.0419 124.329 53.0485C124.4 53.0578 124.493 53.0631 124.607 53.0658L124.684 53.8338C124.516 53.8245 124.342 53.7993 124.162 53.7582C123.981 53.717 123.853 53.6839 123.774 53.656C123.629 53.8696 123.404 54.0566 123.101 54.2158C122.651 54.4505 122.22 54.4903 121.809 54.3365C121.323 54.1534 120.918 53.7515 120.594 53.1294C120.278 52.5259 120.168 51.9874 120.262 51.5125C120.356 51.0377 120.644 50.6755 121.125 50.4235C121.616 50.1675 122.081 50.1317 122.519 50.3187C122.956 50.5058 123.334 50.9037 123.652 51.5125C123.935 52.0537 124.053 52.5445 124.008 52.9809ZM123.004 52.7673C122.992 52.567 122.902 52.307 122.735 51.9847C122.541 51.6146 122.348 51.3799 122.154 51.2791C121.961 51.1783 121.766 51.1796 121.571 51.2817C121.389 51.3772 121.284 51.5351 121.255 51.7552C121.226 51.9754 121.302 52.258 121.481 52.6015C121.69 53.0021 121.892 53.2541 122.087 53.3576C122.281 53.461 122.475 53.4637 122.667 53.3629C122.73 53.331 122.784 53.2926 122.832 53.2488C122.707 53.1971 122.541 53.1732 122.333 53.1785L122.264 52.6957C122.354 52.6718 122.429 52.6612 122.488 52.6652C122.547 52.6678 122.671 52.693 122.861 52.7381C122.905 52.7487 122.952 52.758 123.004 52.7673Z" fill="#BAA664"/>
<path d="M125.114 48.418L126.027 47.9418L127.167 50.1251C127.28 50.3413 127.359 50.5602 127.405 50.7817C127.452 51.0032 127.453 51.2154 127.412 51.421C127.371 51.6253 127.302 51.7911 127.204 51.9158C127.069 52.0909 126.876 52.2421 126.629 52.3721C126.484 52.4477 126.321 52.5167 126.138 52.5803C125.955 52.644 125.787 52.6692 125.633 52.6546C125.48 52.64 125.32 52.5896 125.154 52.5021C124.988 52.4145 124.849 52.3084 124.739 52.1811C124.561 51.9768 124.425 51.7858 124.331 51.6054L123.19 49.4221L124.103 48.9459L125.271 51.1823C125.376 51.3826 125.501 51.5152 125.65 51.5802C125.798 51.6465 125.952 51.6372 126.11 51.5537C126.268 51.4714 126.362 51.352 126.394 51.1942C126.426 51.0364 126.389 50.856 126.282 50.653L125.114 48.418Z" fill="#BAA664"/>
<path d="M129.908 49.8093L128.87 50.3518L129.042 51.0323L128.109 51.5204L127.307 47.2731L128.304 46.7518L131.33 49.8358L130.372 50.3359L129.908 49.8093ZM129.304 49.1155L128.289 47.9682L128.654 49.4551L129.304 49.1155Z" fill="#BAA664"/>
<path d="M129.704 46.0184L130.619 45.5408L132.062 48.3038L133.488 47.5584L133.959 48.4617L131.617 49.6847L129.704 46.0184Z" fill="#BAA664"/>
<path d="M132.499 44.5591L133.415 44.0803L135.33 47.7466L134.414 48.2254L132.499 44.5591Z" fill="#BAA664"/>
<path d="M133.863 43.8457L136.643 42.3932L137.115 43.2979L136.182 43.7847L137.624 46.5449L136.709 47.0224L135.267 44.2622L134.335 44.749L133.863 43.8457Z" fill="#BAA664"/>
<path d="M136.758 42.3334L137.773 41.8028L139.016 42.7274L138.968 41.1781L139.979 40.6502L139.94 43.3813L140.742 44.916L139.826 45.3949L139.024 43.8602L136.758 42.3334Z" fill="#BAA664"/>
<path d="M30.7061 18.7902L33.8844 17.1547L34.306 17.9745L32.3158 18.9985L32.63 19.6087L34.4758 18.6589L34.8789 19.4415L33.0331 20.3913L33.423 21.1487L35.4702 20.0955L35.9171 20.9656L32.6804 22.6303L30.7061 18.7902Z" fill="#BAA664"/>
<path d="M35.7209 19.471L36.8492 18.886C36.958 19.0637 37.072 19.1844 37.1926 19.2494C37.3889 19.3542 37.6037 19.3542 37.8371 19.2508C38.0107 19.1738 38.1274 19.0743 38.1858 18.951C38.2441 18.8276 38.2494 18.7122 38.2017 18.6048C38.1566 18.5026 38.0717 18.431 37.9458 18.3899C37.8198 18.3488 37.5785 18.3647 37.2192 18.4363C36.6305 18.5517 36.1783 18.561 35.8627 18.4615C35.5445 18.3634 35.3178 18.1604 35.1812 17.8514C35.091 17.6484 35.0658 17.4309 35.1043 17.1987C35.1428 16.9666 35.2568 16.7464 35.4477 16.5382C35.6387 16.3312 35.9396 16.1363 36.3507 15.9545C36.8559 15.7317 37.2815 15.6561 37.6289 15.7264C37.9763 15.7967 38.2653 16.0262 38.4974 16.4135L37.377 16.9892C37.2682 16.8247 37.1462 16.7239 37.0136 16.6867C36.8797 16.6496 36.7272 16.6682 36.5549 16.7451C36.413 16.8074 36.3189 16.8844 36.2738 16.9772C36.2287 17.0688 36.2247 17.1576 36.2632 17.2438C36.291 17.3062 36.3454 17.35 36.4276 17.3738C36.5085 17.4004 36.6663 17.3884 36.9009 17.338C37.4844 17.2173 37.9179 17.1656 38.2004 17.1815C38.4828 17.1974 38.7148 17.269 38.8978 17.3964C39.0795 17.5237 39.2187 17.6962 39.3128 17.9111C39.4242 18.1644 39.4573 18.4284 39.4123 18.7043C39.3672 18.9802 39.2425 19.2282 39.0397 19.4497C38.8368 19.6713 38.5451 19.8662 38.1619 20.0347C37.4897 20.3318 36.9686 20.4074 36.596 20.2629C36.2221 20.1196 35.9317 19.8556 35.7209 19.471Z" fill="#BAA664"/>
<path d="M38.7109 15.0048L42.535 13.6571L42.889 14.6626L41.6055 15.1149L42.6862 18.1816L41.4278 18.6247L40.3472 15.5579L39.065 16.0102L38.7109 15.0048Z" fill="#BAA664"/>
<path d="M48.1971 12.4167L48.8057 16.7662L47.6044 16.9346L47.2053 14.0854C47.0316 14.2605 46.8606 14.4064 46.6908 14.5231C46.5225 14.6399 46.3063 14.7592 46.0438 14.8813L45.9072 13.9077C46.2931 13.7206 46.5848 13.5203 46.7837 13.3068C46.9812 13.0932 47.1244 12.8425 47.2133 12.556L48.1971 12.4167Z" fill="#BAA664"/>
<path d="M50.0169 15.6851L51.2076 15.5193C51.2408 15.6865 51.2951 15.8032 51.3707 15.8708C51.4463 15.9385 51.5378 15.9717 51.6465 15.9703C51.8388 15.9677 51.9873 15.8682 52.0934 15.6732C52.1703 15.5286 52.2246 15.2249 52.2578 14.7606C52.1159 14.9092 51.9701 15.0193 51.8202 15.0909C51.6704 15.1612 51.4954 15.1983 51.2978 15.201C50.9106 15.2063 50.5831 15.0736 50.3139 14.8017C50.0447 14.5298 49.9068 14.1849 49.9015 13.7644C49.8976 13.4779 49.9625 13.2153 50.0938 12.9779C50.2264 12.7404 50.4107 12.56 50.6454 12.4353C50.8814 12.312 51.1784 12.247 51.5378 12.2417C51.9701 12.2364 52.3175 12.3053 52.58 12.4499C52.8425 12.5945 53.0547 12.828 53.2151 13.149C53.3756 13.47 53.4591 13.8958 53.4658 14.425C53.4764 15.205 53.3199 15.778 52.9964 16.1441C52.6728 16.5102 52.222 16.6986 51.6399 16.7052C51.2965 16.7092 51.0246 16.6733 50.8257 16.5964C50.6268 16.5195 50.4598 16.4054 50.3259 16.2542C50.1933 16.1043 50.0898 15.9146 50.0169 15.6851ZM52.1981 13.73C52.1955 13.4965 52.1332 13.3134 52.0138 13.1835C51.8945 13.0521 51.7499 12.9885 51.5815 12.9898C51.4224 12.9924 51.2912 13.0535 51.1877 13.1742C51.0843 13.2949 51.0339 13.4753 51.0379 13.7154C51.0405 13.9568 51.0976 14.1412 51.2089 14.2672C51.319 14.3932 51.4569 14.4555 51.6187 14.4529C51.7871 14.4502 51.9276 14.3865 52.0377 14.2619C52.1477 14.1372 52.2021 13.9594 52.1981 13.73Z" fill="#BAA664"/>
<path d="M54.1889 12.3186L57.6843 12.5136L57.6392 13.3227C57.3197 13.58 57.0491 13.8626 56.8277 14.1716C56.5585 14.5457 56.3397 14.9675 56.17 15.4357C56.036 15.8005 55.9353 16.2342 55.8676 16.737L54.6742 16.6706C54.8081 15.9716 54.9885 15.3906 55.2165 14.925C55.4446 14.4595 55.7934 13.9687 56.2601 13.4487L54.1318 13.3293L54.1889 12.3186Z" fill="#BAA664"/>
<path d="M58.8491 14.6306C58.6715 14.5112 58.5468 14.3865 58.4739 14.2538C58.3744 14.0734 58.336 13.8745 58.3585 13.6556C58.3956 13.2961 58.5945 13.0202 58.9565 12.8266C59.2377 12.678 59.5957 12.6263 60.0293 12.6701C60.6034 12.7297 61.0158 12.8823 61.2677 13.129C61.5197 13.3757 61.6284 13.6662 61.5939 13.9978C61.574 14.1915 61.5011 14.3666 61.3738 14.5231C61.2783 14.6398 61.1378 14.7473 60.9495 14.8468C61.1709 14.9821 61.3287 15.1479 61.4242 15.3429C61.5197 15.5379 61.5555 15.7474 61.5329 15.9703C61.5104 16.1852 61.4401 16.3802 61.3234 16.5566C61.2054 16.733 61.0702 16.8643 60.9163 16.9519C60.7625 17.0381 60.5756 17.0951 60.3568 17.1203C60.138 17.1455 59.9073 17.1468 59.6659 17.1216C59.2111 17.0752 58.869 16.985 58.6396 16.8524C58.4102 16.7197 58.2445 16.5433 58.1411 16.3218C58.0376 16.1003 57.9992 15.8602 58.0257 15.6029C58.0522 15.3508 58.1318 15.1439 58.267 14.9807C58.401 14.8176 58.5959 14.7009 58.8491 14.6306ZM59.2178 15.6838C59.1979 15.8734 59.2403 16.034 59.3424 16.1666C59.4458 16.2992 59.5705 16.3722 59.719 16.3881C59.8609 16.4027 59.9961 16.355 60.1221 16.2449C60.2481 16.1348 60.321 15.9849 60.3395 15.7978C60.3594 15.6082 60.3183 15.4477 60.2162 15.3137C60.1141 15.181 59.9882 15.1068 59.8383 15.0908C59.6898 15.0749 59.5546 15.1213 59.4326 15.2261C59.3093 15.3323 59.2376 15.4848 59.2178 15.6838ZM59.4723 13.8413C59.4564 13.9899 59.4909 14.1146 59.5744 14.214C59.658 14.3149 59.776 14.3732 59.9311 14.3891C60.0677 14.4037 60.1844 14.3706 60.2812 14.2897C60.378 14.2087 60.4337 14.0973 60.4483 13.9541C60.4642 13.8055 60.4297 13.6808 60.3475 13.5787C60.2653 13.4765 60.1526 13.4182 60.0107 13.4036C59.8662 13.389 59.7442 13.4222 59.6434 13.5031C59.5453 13.584 59.4869 13.6967 59.4723 13.8413Z" fill="#BAA664"/>
<path d="M147.629 50.9012C145.824 48.9752 143.254 48.7206 141.005 49.4713C138.757 50.2221 134.641 52.4784 134.641 52.4784C127.325 56.2986 102.538 69.3508 102.058 69.6015C99.6168 70.8802 96.4397 72.6112 93.2283 73.3819C91.8426 73.7148 88.9971 73.2585 87.2415 72.0448C85.3852 70.7622 84.9171 67.5681 85.8466 65.8238C86.7761 64.0795 89.3339 63.5556 89.9147 63.9044C90.4954 64.2533 92.007 64.8926 91.6331 66.6953C91.2592 68.4979 88.8102 68.6717 88.8102 68.6717C88.8102 68.6717 88.9852 69.1956 89.7396 69.1956C90.4954 69.1956 91.4249 69.4861 93.2269 68.2658C95.0289 67.0441 94.5052 63.8474 93.8077 63.0329C93.1925 62.3153 91.9885 61.3709 89.9571 61.3974L90.6108 60.9398C90.6108 60.9398 96.2223 58.0057 108.371 51.6109C109.658 50.9331 141.383 34.5461 142.357 34.0169L140.331 33.4783C135.719 35.6444 99.7692 53.8552 95.3776 56.5201L85.2605 62.1482C85.2818 61.806 85.2937 61.4611 85.2937 61.1136C85.2937 58.3413 84.5962 55.7335 83.3671 53.4533L88.3699 50.7474L88.0848 47.4193L81.6977 50.9477C81.2216 50.3601 80.7072 49.8069 80.1556 49.2923L88.3713 44.8447L88.0848 41.5179L77.5461 47.3105C76.5569 46.7057 75.4975 46.2043 74.3823 45.8209C75.1779 45.3089 86.3293 39.3359 88.0026 38.3849V36.4827C85.1027 38.2668 75.1554 43.7106 72.5684 45.3156C71.623 45.1113 70.6471 44.9893 69.6486 44.9574C70.8699 44.2212 71.9412 43.5607 72.766 43.0301C74.7098 41.7793 84.1892 36.9868 87.8661 34.9361L87.8395 32.0537L83.5023 34.4533C83.5023 34.4533 63.2336 45.5888 59.2809 47.7973C55.3282 50.0072 42.4253 56.2866 39.4021 57.3332C36.3802 58.3798 30.2184 60.0073 23.7093 60.0073C17.2001 60.0073 14.2936 56.2866 13.2474 54.0701C12.2012 51.8536 13.0154 45.1219 16.2812 43.4572C19.5471 41.7925 23.2452 43.1455 23.5939 46.2852C23.9426 49.4249 20.3387 48.8439 20.3387 48.8439C20.3387 48.8439 20.3387 48.8439 21.7336 49.6584C23.1285 50.4728 24.5234 49.3095 25.4529 48.2629C26.3824 47.2164 25.6849 43.379 23.3605 42.2157C21.0361 41.0524 16.2693 40.8202 13.1307 43.9599C9.99216 47.0996 10.9217 53.379 10.9217 53.379C10.9217 53.379 4.99327 46.1685 7.20233 39.3081C9.41139 32.4464 16.9667 33.6097 16.9667 33.6097C16.9667 33.6097 17.4321 32.5631 15.1594 31.6332C12.8867 30.7034 11.2717 30.8188 11.2717 30.8188C11.2717 30.8188 12.8987 29.1913 14.2419 28.6089C15.5851 28.028 22.3157 24.7715 24.1747 29.6555C26.035 34.5395 21.0361 36.2838 23.0118 35.8195C24.9875 35.3539 27.3132 32.9119 27.1966 28.9578C27.0799 25.0037 23.3605 21.7472 19.5245 22.0961C15.6885 22.4449 14.2936 23.0259 9.76012 26.8633C5.22664 30.7008 2.55217 38.7244 4.29714 46.8649C5.21338 51.1453 11.2717 60.8191 22.199 62.3313C27.296 63.0369 33.5307 61.7927 38.9923 60.136C38.2962 60.9743 37.4303 62.4055 37.8334 64.0172C38.4726 66.5759 41.147 67.2152 41.9015 67.2736C42.6573 67.332 45.6792 66.5759 45.2151 63.9018C44.7497 61.2276 41.8445 61.5181 41.8445 61.5181C41.8445 61.5181 41.8445 61.5181 42.3682 61.9254C42.892 62.3326 43.1824 62.5647 43.2407 63.2041C43.2991 63.8434 42.892 64.4827 42.3682 64.7746C41.8445 65.0651 40.2759 64.7746 40.0438 63.0303C39.8118 61.286 40.8938 59.5351 42.7753 59.3666C44.6569 59.1982 46.7864 60.9942 47.5992 62.3326C48.4133 63.6696 49.4012 66.5772 49.6915 68.153C49.9819 69.7289 50.8544 72.5078 50.8544 72.5078C50.8544 72.5078 45.4485 70.0658 43.6465 69.3097C41.8445 68.5536 38.0668 67.0998 31.3826 64.9483C24.6984 62.7968 21.2111 64.309 21.0361 64.3674C21.0361 64.3674 25.1625 64.5424 27.3716 65.4139C29.5806 66.2867 32.9512 68.612 32.9512 68.612C32.9512 68.612 34.3462 68.4369 36.2065 68.5536C38.0668 68.6704 39.6938 69.0192 42.6003 70.0658C45.5068 71.1123 50.0403 73.8448 51.3768 74.6195C52.7134 75.3941 60.1534 78.7288 60.1534 78.7288C60.1534 78.7288 56.4341 75.8796 54.7474 73.9616C53.0621 72.0422 51.2602 67.7405 50.8531 64.8038C50.446 61.867 50.8531 57.0997 50.8531 57.0997C50.8531 57.0997 50.3293 58.3214 50.0389 59.1929C49.7486 60.0657 49.3998 62.4493 49.3998 62.4493C49.3998 62.4493 47.9466 59.8906 46.5517 59.0775C45.9391 58.7193 45.1355 58.4633 44.4261 58.2882C48.115 56.9008 50.8995 55.313 51.8409 54.8421C52.9587 54.2837 56.1609 52.7848 59.8206 50.697L59.8604 50.7089C59.9174 50.6638 59.9744 50.62 60.0327 50.5763C61.0577 49.99 62.1158 49.3825 63.1726 48.771C64.8619 48.0693 66.7183 47.6819 68.6674 47.6819C76.4522 47.6819 82.7624 53.8645 82.7624 61.4916C82.7624 69.1187 76.4522 75.3013 68.6674 75.3013C61.6067 75.3013 55.5178 70.4053 54.4929 63.7678C54.4929 63.7678 54.3404 63.0329 54.2237 61.8696C54.107 60.7063 54.5724 57.4512 54.5724 57.4512C54.5724 57.4512 53.5103 60.2991 53.7583 63.5569C54.0076 66.8133 55.5722 69.9079 55.5722 69.9079C58.4535 74.3449 63.4497 77.279 69.1328 77.279C75.5545 77.279 81.1023 73.5305 83.7078 68.1026C83.7953 68.8309 83.9956 69.5922 84.3324 70.2435C85.238 71.9958 86.8902 73.9072 90.3191 74.4882C93.748 75.0691 97.3772 73.3753 98.5401 72.7943C99.215 72.4574 130.809 55.9497 136.528 53.0527C136.529 53.0514 139.087 51.6998 140.238 51.1917C141.659 50.5657 142.118 50.3773 143.877 50.4171C145.241 50.4476 145.996 51.0339 146.589 51.6812C147.613 52.7981 147.626 54.4734 147.377 55.3488C147.127 56.2243 145.877 57.8492 144.128 58.0999C142.379 58.3506 141.273 56.349 141.253 55.5995C141.216 54.1484 142.369 53.6669 143.574 54.0569C145.148 54.5675 144.879 56.5851 144.879 56.5851C144.879 56.5851 145.73 56.3821 145.878 54.7188C145.963 53.7664 145.504 51.461 143.043 52.1521C142 52.4452 139.848 53.6404 139.565 55.2653C139.283 56.8902 140.593 59.0058 142.098 59.4436C145.222 60.3495 146.503 59.1 148.128 57.2258C149.753 55.3475 149.433 52.8272 147.629 50.9012Z" fill="#BAA664"/>
</svg>
