<svg width="12" height="12" viewBox="0 0 12 12" fill="none" xmlns="http://www.w3.org/2000/svg">
<path d="M4.37206 6.62034C4.37206 6.47001 4.25013 6.34823 4.09969 6.34823H3.1492C2.99893 6.34823 2.87698 6.47001 2.87698 6.62034V7.5707C2.87698 7.72121 2.99893 7.84305 3.1492 7.84305H4.09969C4.25013 7.84305 4.37206 7.72121 4.37206 7.5707V6.62034Z" fill="#ffffff"/>
<path d="M6.74731 6.62034C6.74731 6.47001 6.62536 6.34823 6.47521 6.34823H5.5246C5.37433 6.34823 5.25237 6.47001 5.25237 6.62034V7.5707C5.25237 7.72121 5.37433 7.84305 5.5246 7.84305H6.47521C6.62536 7.84305 6.74731 7.72121 6.74731 7.5707V6.62034Z" fill="#ffffff"/>
<path d="M9.12296 6.62034C9.12296 6.47001 9.00101 6.34823 8.85073 6.34823H7.90025C7.7498 6.34823 7.62788 6.47001 7.62788 6.62034V7.5707C7.62788 7.72121 7.7498 7.84305 7.90025 7.84305H8.85073C9.00101 7.84305 9.12296 7.72121 9.12296 7.5707V6.62034Z" fill="#ffffff"/>
<path d="M4.37206 8.99625C4.37206 8.84568 4.25013 8.724 4.09969 8.724H3.1492C2.99893 8.724 2.87698 8.84568 2.87698 8.99625V9.94643C2.87698 10.0969 2.99893 10.2187 3.1492 10.2187H4.09969C4.25013 10.2187 4.37206 10.0968 4.37206 9.94643V8.99625Z" fill="#ffffff"/>
<path d="M6.74731 8.99625C6.74731 8.84568 6.62536 8.724 6.47521 8.724H5.5246C5.37433 8.724 5.25237 8.84568 5.25237 8.99625V9.94643C5.25237 10.0969 5.37433 10.2187 5.5246 10.2187H6.47521C6.62536 10.2187 6.74731 10.0968 6.74731 9.94643V8.99625Z" fill="#ffffff"/>
<path d="M9.12296 8.99625C9.12296 8.84568 9.00101 8.724 8.85086 8.724H7.90025C7.7498 8.724 7.62788 8.84568 7.62788 8.99625V9.94643C7.62788 10.0969 7.7498 10.2187 7.90025 10.2187H8.85086C9.00101 10.2187 9.12296 10.0968 9.12296 9.94643V8.99625Z" fill="#ffffff"/>
<path d="M10.8223 1.33618V2.78778C10.8223 3.44389 10.2901 3.97261 9.63407 3.97261H8.88448C8.22842 3.97261 7.68911 3.44389 7.68911 2.78778V1.33097H4.31049V2.78778C4.31049 3.44389 3.7712 3.97261 3.11524 3.97261H2.36549C1.70951 3.97261 1.17727 3.44389 1.17727 2.78778V1.33618C0.603936 1.35346 0.132812 1.82788 0.132812 2.411V10.9181C0.132812 11.5121 0.614335 12.0001 1.20842 12.0001H10.7912C11.3844 12.0001 11.8668 11.5111 11.8668 10.9181V2.411C11.8668 1.82788 11.3957 1.35346 10.8223 1.33618ZM10.4742 10.3883C10.4742 10.645 10.266 10.8533 10.0092 10.8533H1.96994C1.7131 10.8533 1.50493 10.645 1.50493 10.3883V5.9941C1.50493 5.73727 1.71307 5.52898 1.96994 5.52898H10.0092C10.266 5.52898 10.4742 5.73727 10.4742 5.9941L10.4742 10.3883Z" fill="#ffffff"/>
<path d="M2.36263 3.19437H3.10408C3.32914 3.19437 3.51161 3.01217 3.51161 2.78712V0.407406C3.51161 0.182328 3.32914 0 3.10408 0H2.36263C2.13755 0 1.9551 0.182328 1.9551 0.407406V2.78712C1.9551 3.01217 2.13755 3.19437 2.36263 3.19437Z" fill="#ffffff"/>
<path d="M8.8749 3.19437H9.61636C9.84126 3.19437 10.0237 3.01217 10.0237 2.78712V0.407406C10.0238 0.182328 9.84129 0 9.61636 0H8.8749C8.64987 0 8.4674 0.182328 8.4674 0.407406V2.78712C8.4674 3.01217 8.64987 3.19437 8.8749 3.19437Z" fill="#ffffff"/>
</svg>
