<svg width="476" height="134" viewBox="0 0 476 134" fill="none" xmlns="http://www.w3.org/2000/svg">
<path d="M63.5854 58.2797C67.3757 59.1183 72.7791 61.1842 73.7007 62.5089C73.7007 62.6912 68.4702 60.9169 63.0669 60.2606H63.0093C60.6015 68.5245 55.6014 89.7311 56.0046 95.9168C56.0622 96.9498 56.4654 97.047 56.8111 97.047C58.5392 97.047 57.6175 99.5869 55.8318 99.5869C54.1037 99.5869 51.9262 96.6824 51.7534 94.1425C51.0621 85.4168 54.9677 68.9863 57.5599 59.7988C56.8111 59.7988 56.1198 59.7988 55.371 59.7988C52.7327 59.7988 50.1405 59.896 47.4446 60.3578C39.403 72.6564 20.3243 109.905 7.57067 109.905C4.47155 109.905 0.73877 106.806 0.73877 100.049C0.73877 96.1113 2.06368 93.6686 3.03143 93.6686C2.5706 94.3248 2.05216 95.9168 2.05216 97.1442C2.05216 101.276 3.8379 102.868 6.30337 102.868C18.5962 102.868 36.0043 73.021 44.3339 60.9169C29.0457 63.6391 22.0409 70.7728 22.1562 72.6443C22.0985 74.4307 18.9994 71.6113 18.8842 67.4794C18.6538 59.7867 39.5643 57.0645 47.2141 56.5905H47.2717C53.1935 46.9291 69.3343 19.8041 72.4334 14.4569C74.5072 10.8961 75.7054 9.20691 77.0303 9.20691C78.9312 9.20691 80.9935 12.4031 81.2815 13.3388C80.0718 13.6184 79.4381 14.6513 78.528 16.1583C75.2445 21.8701 68.1246 40.2572 63.5854 58.2797ZM49.9676 56.4933C52.6635 56.4933 55.4286 56.6756 58.2397 57.0523C60.5899 48.7034 66.7997 29.2711 70.1292 21.8579C69.4956 22.8058 68.9311 23.7416 49.9676 56.4933Z" fill="white"/>
<path d="M122.951 31.7504C121.603 31.7504 120.785 28.9674 120.785 26.3424C120.785 24.3129 123.216 20.5941 123.734 20.5941C123.838 20.5941 122.283 23.7174 122.594 24.3979C126.108 24.3979 134.276 16.8875 134.276 10.0455C134.276 6.24173 132.26 4.05423 129.057 4.05423C113.135 4.05423 85.2661 48.1323 86.4067 71.6964C86.7638 78.7936 89.9782 80.7381 93.9529 80.7381C103.677 80.7381 119.495 66.4707 131.742 50.2468C131.788 50.1618 132.364 50.5871 132.156 50.7573C123.055 65.2798 103.561 86.7294 92.2478 86.3162C86.7177 86.146 81.902 82.1721 81.6025 71.8787C80.5656 42.3232 111.119 1.95181 128.55 1.95181C133.043 1.95181 136.2 5.07507 136.2 11.5768C136.189 20.0108 128.02 31.7504 122.951 31.7504Z" fill="white"/>
<path d="M143.577 55.1438C142.021 57.6716 131.94 71.866 129.774 71.866C129.671 71.866 129.417 71.6958 129.314 71.6108C128.38 70.8451 127.044 67.6368 127.044 65.9476C127.044 56.748 138.888 37.9112 148.392 37.9112C150.362 37.9112 152.943 39.2601 152.943 43.2341C152.943 44.6681 152.482 46.1021 151.964 47.208C151.86 47.2931 151.756 47.208 151.814 47.123C152.068 46.3573 152.379 45.3487 152.379 44.0848C152.379 41.557 151.399 40.281 149.844 40.4511C146.849 40.7063 143.07 44.2549 139.706 48.8973C134.798 55.7393 130.915 66.3729 131.376 66.7983C131.48 66.8833 131.583 66.8833 131.733 66.7983C133.438 65.8747 140.673 57.3434 143.369 53.6247C144.302 52.2757 147.655 46.9528 148.957 45.774C149.994 44.9355 151.745 49.5778 151.538 50.5865C151.284 49.748 146.63 58.9476 145.074 64.3556C144.763 65.5344 144.556 66.5552 144.556 67.2236C147.816 65.7045 155.201 54.1351 158.416 49.2375C158.669 48.8122 158.934 49.4928 158.773 49.748C154.28 57.7688 145.846 71.8781 142.747 71.8781C142.494 71.8781 142.229 71.708 141.871 71.3677C141.146 70.6871 140.166 68.9129 140.166 67.3938C140.166 66.5552 140.374 65.5344 140.581 64.2705C141.203 61.1472 142.597 57.2584 143.577 55.1438Z" fill="white"/>
<path d="M167.676 38.337C167.988 37.9117 168.299 37.8266 168.448 37.8266C169.635 37.8266 171.605 41.12 171.605 43.3197C171.605 43.5749 171.455 43.2346 171.087 43.1495C170.315 42.9794 168.506 46.4429 166.847 49.9065C166.179 51.2554 163.955 56.4933 163.955 56.4933C168.448 48.4724 178.126 36.9881 180.707 38.4221C181.375 38.8475 183.184 42.0558 183.184 43.3197C183.184 50.9151 173.045 71.1859 165.971 71.1859C163.955 71.1859 161.582 69.0714 161.582 66.2884C161.582 65.863 161.835 65.6929 161.835 65.9481C161.835 66.7866 162.711 68.403 163.805 68.403C169.024 68.403 178.333 46.528 178.955 41.8006C178.184 41.8006 169.854 48.5575 160.856 64.0158C155.845 75.7554 148.552 85.6842 147.261 98.1894C147.008 100.304 147.008 101.993 148.195 102.248C145.821 103.767 143.494 100.644 143.909 95.4914C144.992 81.3092 155.338 62.9221 163.195 46.4551C164.566 43.5749 166.64 39.6981 167.676 38.337Z" fill="white"/>
<path d="M195.013 38.337C195.324 37.9117 195.635 37.8266 195.785 37.8266C196.972 37.8266 198.942 41.12 198.942 43.3197C198.942 43.5749 198.792 43.2346 198.423 43.1495C197.651 42.9794 195.843 46.4429 194.184 49.9065C193.515 51.2554 191.292 56.4933 191.292 56.4933C195.785 48.4724 205.463 36.9881 208.043 38.4221C208.712 38.8475 210.52 42.0558 210.52 43.3197C210.52 50.9151 200.382 71.1859 193.308 71.1859C191.292 71.1859 188.919 69.0714 188.919 66.2884C188.919 65.863 189.172 65.6929 189.172 65.9481C189.172 66.7866 190.048 68.403 191.142 68.403C196.361 68.403 205.67 46.528 206.292 41.8006C205.52 41.8006 197.191 48.5575 188.193 64.0158C183.181 75.7554 175.888 85.8057 174.598 98.3109C174.345 100.425 174.345 102.115 175.531 102.37C173.158 103.889 170.831 100.766 171.245 95.613C172.328 81.4307 182.674 62.9221 190.531 46.4551C191.914 43.5749 193.988 39.6981 195.013 38.337Z" fill="white"/>
<path d="M214.51 66.5431C214.464 67.5517 214.924 68.1472 216.065 68.1472C219.844 68.1472 229.303 56.4077 234.522 49.3105C234.671 49.1403 235.04 49.5657 234.879 49.8209C230.996 55.7271 220.708 71.866 213.842 71.866C212.24 71.866 210.166 68.8278 210.166 66.5431C210.166 64.5136 210.477 62.8243 210.892 60.965C212.136 56.1525 214.775 50.8296 218.024 46.3573C222.309 40.5362 226.918 37.9112 229.141 37.9112C229.913 37.9112 232.298 39.8556 232.298 42.2133C232.298 47.4511 222.367 59.616 216.583 59.8591C215.65 61.6455 214.671 64.3556 214.51 66.5431ZM217.252 58.182C221.745 57.3434 230.328 43.6594 230.639 40.4511C224.902 43.4893 218.957 53.7098 217.252 58.182Z" fill="white"/>
<path d="M250.191 18.5766C251.747 15.2832 253.187 12.5853 254.477 10.8961C255.249 9.88738 255.929 9.20683 256.39 9.20683C259.281 8.95162 261.355 13.8492 260.376 12.9256C258.567 11.5766 255.203 19.5124 252.933 24.0696C250.71 28.712 248.59 33.6946 246.009 39.8561C241.516 51.0001 237.633 61.731 236.389 67.139C238.613 67.5644 247.196 53.7953 250.249 49.238C250.56 48.8127 250.767 49.4932 250.606 49.7484C248.071 54.4758 239.074 69.8491 235.974 71.7085C235.306 72.1338 234.788 71.7935 234.315 71.3682C233.901 71.0279 232.76 69.2536 232.449 67.9897C232.403 67.8196 232.299 67.6494 232.299 66.7258C232.299 64.198 234.673 55.9949 240.986 39.8682C244.189 31.6651 247.495 24.3249 250.191 18.5766Z" fill="white"/>
<path d="M266.366 18.5766C267.921 15.2832 269.361 12.5853 270.652 10.8961C271.423 9.88738 272.103 9.20683 272.564 9.20683C275.456 8.95162 277.53 13.8492 276.55 12.9256C274.741 11.5766 271.377 19.5124 269.108 24.0696C266.884 28.712 264.764 33.6946 262.184 39.8561C257.69 51.0001 253.808 61.731 252.564 67.139C254.787 67.5644 263.37 53.7953 266.423 49.238C266.734 48.8127 266.942 49.4932 266.78 49.7484C264.246 54.4758 255.248 69.8491 252.149 71.7085C251.481 72.1338 250.962 71.7935 250.49 71.3682C250.075 71.0279 248.935 69.2536 248.624 67.9897C248.577 67.8196 248.474 67.6494 248.474 66.7258C248.474 64.198 250.847 55.9949 257.16 39.8682C260.375 31.6651 263.681 24.3249 266.366 18.5766Z" fill="white"/>
<path d="M280.119 55.1438C278.564 57.6716 268.483 71.866 266.317 71.866C266.214 71.866 265.96 71.6958 265.857 71.6108C264.923 70.8451 263.587 67.6368 263.587 65.9476C263.587 56.748 275.43 37.9112 284.935 37.9112C286.905 37.9112 289.486 39.2601 289.486 43.2341C289.486 44.6681 289.025 46.1021 288.507 47.208C288.403 47.2931 288.299 47.208 288.357 47.123C288.61 46.3573 288.921 45.3487 288.921 44.0848C288.921 41.557 287.942 40.281 286.387 40.4511C283.391 40.7063 279.612 44.2549 276.248 48.8973C271.34 55.7393 267.458 66.3729 267.919 66.7983C268.022 66.8833 268.126 66.8833 268.276 66.7983C269.981 65.8747 277.216 57.3434 279.912 53.6247C280.845 52.2757 284.198 46.9528 285.5 45.774C286.537 44.9355 288.288 49.5778 288.08 50.5865C287.827 49.748 283.172 58.9476 281.617 64.3556C281.306 65.5344 281.099 66.5552 281.099 67.2236C284.359 65.7045 291.744 54.1351 294.958 49.2375C295.212 48.8122 295.477 49.4928 295.315 49.748C290.822 57.7688 282.389 71.8781 279.29 71.8781C279.036 71.8781 278.771 71.708 278.414 71.3677C277.688 70.6871 276.709 68.9129 276.709 67.3938C276.709 66.5552 276.917 65.5344 277.124 64.2705C277.746 61.1472 279.14 57.2584 280.119 55.1438Z" fill="white"/>
<path d="M374.834 72.7173C368.163 89.2693 362.783 105.056 362.944 109.795C362.944 110.476 363.82 111.521 364.695 111.302C365.709 112.275 366.481 113.344 367.414 112.493C366.481 114.268 363.566 112.919 362.53 113.004C361.758 113.089 360.871 111.57 360.767 109.71C360.513 102.2 364.799 86.4864 369.972 72.5471C366.354 72.6322 363.255 72.9725 355.801 74.3214C348.048 90.4482 340.651 109.71 340.709 115.702C340.709 116.795 341.02 117.561 341.746 117.731C341.492 117.901 341.181 117.986 340.87 117.986C339.684 118.071 338.647 116.042 338.647 113.004C338.647 106.247 342.737 92.0645 349.914 75.4273C339.326 80.9447 333.762 83.5697 331.17 84.8944C330.375 85.2954 327.921 86.3648 328.405 83.4482C329.753 75.1721 348.624 71.4655 352.092 70.6999C357.207 59.3006 365.375 40.9743 365.329 35.0559C365.283 31.8475 363.417 30.7538 361.4 30.8389C345.939 31.2642 329.776 56.2381 329.822 60.8805C329.822 61.9742 330.179 62.2295 330.697 62.2295C331.469 62.2295 332.713 61.719 333.174 61.0506C333.174 61.8163 331.308 64.4291 329.453 64.4291C327.587 64.5142 326.4 62.8249 326.4 60.042C326.296 45.8597 346.297 29.1496 360.974 28.8944C364.96 28.8093 368.935 30.4135 368.993 37.2555C368.993 46.127 362.172 60.9048 357.725 70.3596C359.891 70.1044 362.011 70.0194 364.235 70.0194C366.251 70.0194 368.417 70.1044 370.744 70.3596C375.502 58.0246 380.986 45.4465 385.525 37.3406C387.288 34.3024 388.935 31.9326 390.226 30.4986C391.159 29.575 391.931 29.1496 392.288 29.1496C395.284 29.1496 397.092 34.7277 396.171 33.6218C395.191 32.6132 393.532 34.4604 391.885 37.0003C387.23 44.2677 381.078 57.6965 375.491 71.1131C381.124 72.1218 384.949 73.4829 384.949 73.9812C383.82 73.9812 380.053 73.0454 374.834 72.7173Z" fill="white"/>
<path d="M400.779 66.798C391.424 66.798 380.617 95.2598 383.509 97.2893C386.401 99.2337 393.797 85.7199 397.265 77.1036C397.011 76.338 396.493 73.8102 396.7 72.9595C396.85 72.1209 398.405 69.581 399.074 69.496C399.592 69.4109 400.157 70.0914 400.26 70.3345C401.24 72.9473 402.484 74.8918 404.546 74.6366C408.014 74.1262 409.926 70.8328 410.491 70.9178C410.237 72.0966 408.164 74.8918 405.629 76.2407C404.488 76.8362 403.405 77.0064 402.576 77.0064C401.804 77.0064 401.286 76.8362 401.021 76.6661C399.627 87.8952 388.924 100.06 383.44 99.5497C381.066 99.2945 379.511 96.0862 379.511 92.8778C379.511 79.1088 390.836 65.3519 399.004 65.3519C400.975 65.3519 401.793 66.2755 402.161 66.7859C402.415 67.0411 402.265 67.0411 402.057 67.0411C401.562 66.9682 401.147 66.798 400.779 66.798Z" fill="white"/>
<path d="M421.665 77.2738C416.446 85.9752 409.51 98.1279 406.411 99.1488C406.308 99.1488 405.997 99.1488 405.997 99.1488C405.167 99.1488 403.566 96.8641 403.566 94.8467C403.566 91.213 406.411 82.6818 409.361 76.0099C411.169 71.878 413.347 67.819 414.637 66.1297C414.891 65.7044 415.202 65.6193 415.363 65.6193C416.607 65.6193 418.624 68.9127 418.624 71.1124C418.624 71.4527 418.416 71.0273 417.955 70.9422C417.183 70.7721 415.006 75.1592 413.255 78.878C410.616 84.5412 408.036 91.8814 408.036 94.3363C410.513 92.647 415.789 85.0516 418.278 81.1627C420.962 76.8606 424.787 69.5082 427.737 65.7895C427.99 65.4492 428.255 65.3641 428.462 65.3641C429.707 65.3641 431.665 68.6575 431.665 70.7721C431.665 71.1124 431.515 70.687 431.043 70.602C430.686 70.602 430.006 71.3676 429.338 72.5464C428.566 73.8953 427.114 76.9335 425.409 80.6523C422.829 86.3155 420.916 92.3068 420.916 94.6766C424.177 93.0724 431.515 81.5881 434.672 76.6905C434.983 76.2651 435.237 76.9457 435.087 77.2009C430.594 85.2217 422.16 99.3311 419.061 99.3311C418.808 99.3311 418.497 99.1609 418.232 98.8206C417.402 98.1401 416.365 96.2078 416.365 94.6766C416.365 93.838 416.676 92.3068 416.93 91.0429C417.794 87.154 419.753 81.1627 421.665 77.2738Z" fill="white"/>
<path d="M439.811 80.3976C439.604 81.8316 440.848 83.1805 441.367 83.9462C449.639 76.3507 456.252 74.4913 456.931 74.4913C457.035 74.4913 457.242 74.6614 457.242 74.9167C457.703 75.1719 447.473 79.559 441.839 85.0521C442.507 85.8906 443.809 88.3455 443.648 90.1198C442.922 95.6128 436.102 100.085 432.737 100.085C431.597 100.085 431.032 98.5659 430.767 96.7065C430.917 93.0729 438.521 85.9757 440.33 84.7968C439.765 83.618 436.712 80.5798 437.173 76.8611C438.002 70.4444 445.445 64.1129 449.996 64.1129C451.447 64.1129 452.116 68.0017 451.966 70.4444C451.92 71.6233 448.659 76.691 447.265 76.691C447.219 76.691 447.116 76.3507 447.162 76.3507C447.311 76.3507 450.779 70.4444 450.883 68.7552C448.498 68.4028 440.491 76.4236 439.811 80.3976ZM432.115 95.7708C434.131 94.8472 440.537 89.4392 440.537 86.2309C437.438 89.0989 433.613 93.3159 432.115 95.7708Z" fill="white"/>
<path d="M454.753 93.996C454.707 95.0047 455.168 95.6002 456.309 95.6002C460.088 95.6002 469.546 83.8606 474.765 76.7634C474.915 76.5933 475.284 77.0186 475.122 77.2738C471.24 83.1801 460.952 99.3189 454.085 99.3189C452.484 99.3189 450.41 96.2807 450.41 93.996C450.41 91.9665 450.721 90.2773 451.136 88.4179C452.38 83.6054 455.018 78.2825 458.267 73.8103C462.553 67.9891 467.161 65.3641 469.385 65.3641C470.157 65.3641 472.542 67.3086 472.542 69.6662C472.542 74.904 462.611 87.0689 456.827 87.312C455.894 89.0984 454.915 91.7964 454.753 93.996ZM457.495 85.6349C461.988 84.7964 470.572 71.1124 470.883 67.904C465.145 70.9422 459.2 81.1627 457.495 85.6349Z" fill="white"/>
<path d="M325.8 0.735846L325.916 0.79661C328.035 2.30355 329.568 4.67334 330.144 7.29833C330.605 9.19416 330.685 11.1751 330.582 13.1195C330.374 16.5344 329.625 19.8886 328.681 23.1698C328.312 24.5917 327.678 25.9042 327.068 27.2167C324.441 32.4424 320.846 37.0483 316.998 41.3139C314.752 43.793 312.379 46.1385 309.959 48.4232C310.086 52.859 310.224 57.2947 310.374 61.7305C314.187 61.2444 318.128 62.0708 321.48 64.0517C324.729 65.9596 327.39 68.9492 328.992 72.4857C330.294 75.3294 330.881 78.5377 330.697 81.6974C330.559 83.9579 330.086 86.2061 329.199 88.2721C328.531 89.8155 327.747 91.2981 326.895 92.7321C325.777 94.2877 324.66 95.8676 323.3 97.1922C322.125 98.3953 320.754 99.3675 319.268 100.097C317.874 100.729 316.445 101.263 315.005 101.762C313.899 102.126 312.793 102.503 311.641 102.685C311.745 107.546 311.86 112.42 311.964 117.281C311.952 118.192 312.079 119.116 311.918 120.015C311.607 122.178 311.054 124.317 310.097 126.262C309.084 128.376 307.574 130.236 305.696 131.548C303.899 132.763 301.802 133.626 299.636 133.602C297.044 133.821 294.452 133.225 292.033 132.314L291.226 131.888C289.06 130.503 287.309 128.425 286.192 126.031C285.5 124.524 285.074 122.81 285.351 121.133C285.708 118.52 287.182 116.102 289.325 114.741C291.376 113.404 294.037 113.185 296.249 114.218C298.404 115.19 300.04 117.232 300.719 119.578C301.169 121.121 301.249 122.786 300.881 124.354C300.512 125.824 299.602 127.088 298.496 128.048C297.321 129.045 295.973 129.774 294.579 130.357C294.095 130.551 293.934 131.439 294.417 131.742C294.821 132.022 295.316 132.071 295.788 132.107C297.148 132.204 298.519 132.046 299.878 131.973C301.192 131.9 302.505 131.572 303.669 130.916C305.305 130.029 306.595 128.558 307.505 126.881C308.784 124.56 309.498 121.911 309.74 119.249C309.913 113.756 310.074 108.276 310.247 102.782C307.931 102.819 305.616 102.6 303.312 102.272C297.724 101.434 292.424 98.5655 288.542 94.2391C285.996 91.4318 284.037 88.029 282.874 84.3346C281.744 80.7981 281.364 77.0065 281.744 73.312C282.297 69.8364 283.231 66.4336 284.625 63.2374C286.457 59.0083 289.141 55.2409 292.286 52.0083C295.155 49.0552 298.346 46.4666 301.572 43.9753C303.68 42.3347 305.777 40.6819 307.874 39.0413C307.494 37.1455 307.16 35.2375 306.906 33.3174C306.399 29.6108 306.111 25.8434 306.491 22.1125C306.71 20.2653 307.079 18.4059 307.966 16.7775C309.982 12.524 312.459 8.45284 315.674 5.09868C317.24 3.51883 318.98 2.04834 321.008 1.17335C322.494 0.456333 324.222 0.213278 325.8 0.735846ZM324.406 6.53271C323.3 7.29833 322.183 8.0518 321.146 8.93895C318.404 11.1629 316.192 14.031 314.268 17.0448C313.174 18.7948 312.137 20.5934 311.18 22.4285C309.948 24.8104 309.21 27.484 309.049 30.1941C308.888 32.5274 309.107 34.8608 309.487 37.1576C311.514 35.4441 313.6 33.8156 315.639 32.1021C318.174 29.9511 320.616 27.6177 322.54 24.8226C323.231 23.7653 323.899 22.6716 324.372 21.4806C324.533 21.0188 324.913 20.6907 325.029 20.2167C325.766 18.0657 326.158 15.8053 326.33 13.5327C326.423 12.0865 326.399 10.616 326.077 9.19416C325.846 8.13687 325.34 7.05528 324.406 6.53271ZM307.367 50.8173C304.176 53.7583 300.938 56.6506 297.839 59.701C294.982 62.5447 292.182 65.5221 290.04 69.0221C289.21 70.4075 288.507 71.8902 288.092 73.4822C287.758 74.7461 287.701 76.0586 287.62 77.3589C287.424 81.2113 287.804 85.1731 289.279 88.7339C290.466 91.6506 292.459 94.2026 294.924 96.0255C298.219 98.4804 302.16 99.7564 306.111 100.425C306.664 100.498 307.206 100.656 307.77 100.583C308.565 100.534 309.36 100.437 310.155 100.328C309.844 90.4231 309.544 80.5186 309.233 70.6141C305.938 71.1367 302.885 73.1905 301.077 76.1558C299.948 77.9423 299.337 80.0568 299.199 82.1957C299.06 84.0186 299.164 85.9509 300.04 87.5672C300.973 89.2808 302.586 90.3867 304.164 91.3346C304.141 91.6019 304.026 91.9058 303.738 91.9665C303.081 92.1124 302.436 91.7842 301.848 91.529C299.901 90.5446 298.254 88.9769 296.929 87.1905C295.95 85.8172 295.178 84.2495 294.786 82.5846C294.406 81.0169 294.348 79.352 294.613 77.76C295.212 73.2634 297.459 69.0707 300.754 66.1662C303.093 64.0638 305.961 62.6298 308.98 61.9978C308.853 57.9145 308.715 53.8312 308.6 49.76C308.173 50.0639 307.782 50.4527 307.367 50.8173ZM310.639 70.4562C310.95 80.3242 311.25 90.1801 311.561 100.048C313.98 99.4769 316.342 98.4196 318.185 96.6453C319.66 95.2599 320.708 93.437 321.434 91.5169C322.31 89.1592 322.678 86.6436 322.978 84.1523C323.266 81.187 322.494 78.1367 320.835 75.7183C319.66 73.9683 318.035 72.5586 316.192 71.6593C314.464 70.7964 312.54 70.3954 310.639 70.4562Z" fill="white"/>
<path d="M301.989 89.8153C301.989 89.8153 309.005 92.9386 315.664 89.8153C321.275 87.1903 334.098 76.8726 336.195 75.7546C338.292 74.6365 333.798 83.5202 333.798 83.5202C333.798 83.5202 319.835 91.9664 315.895 93.2789C311.955 94.5914 308.533 93.4976 306.16 93.1816C303.51 92.8292 300.906 90.9698 300.906 90.9698L301.989 89.8153Z" fill="white"/>
<path d="M70.5106 114.851H74.9115C76.5821 114.851 77.665 114.911 78.172 115.045C78.9554 115.239 79.6005 115.677 80.1305 116.345C80.6605 117.014 80.9139 117.877 80.9139 118.934C80.9139 119.748 80.7642 120.429 80.4646 120.988C80.1651 121.547 79.7734 121.984 79.3125 122.3C78.8402 122.616 78.3678 122.823 77.8839 122.932C77.2272 123.054 76.2825 123.127 75.0383 123.127H73.2525V128.134H70.5106V114.851ZM73.2641 117.099V120.866H74.7618C75.8447 120.866 76.5705 120.793 76.9277 120.66C77.2964 120.526 77.5729 120.307 77.7803 120.003C77.9876 119.712 78.0913 119.359 78.0913 118.97C78.0913 118.484 77.9415 118.083 77.6535 117.779C77.3655 117.463 76.9968 117.269 76.5475 117.196C76.2249 117.135 75.5567 117.111 74.5774 117.111H73.2641V117.099Z" fill="white"/>
<path d="M88.587 128.121V114.851H94.3705C95.8222 114.851 96.8821 114.972 97.5388 115.203C98.1955 115.446 98.7255 115.871 99.1172 116.479C99.5089 117.087 99.7163 117.792 99.7163 118.569C99.7163 119.566 99.4167 120.392 98.8176 121.036C98.2185 121.68 97.3199 122.094 96.1332 122.264C96.7323 122.604 97.2162 122.969 97.6079 123.382C97.9996 123.783 98.5181 124.5 99.1748 125.533L100.834 128.121H97.5503L95.5687 125.229C94.8659 124.196 94.3821 123.552 94.1171 123.272C93.8521 123.005 93.5871 122.823 93.2876 122.726C92.9995 122.628 92.5387 122.58 91.9051 122.58H91.329V128.121H88.587ZM91.329 120.465H93.3567C94.6701 120.465 95.4996 120.417 95.8222 120.307C96.1448 120.198 96.4098 120.015 96.5941 119.748C96.7784 119.481 96.8706 119.153 96.8706 118.752C96.8706 118.302 96.7439 117.95 96.5019 117.67C96.26 117.39 95.9144 117.22 95.465 117.147C95.2461 117.123 94.5779 117.099 93.4604 117.099H91.329V120.465Z" fill="white"/>
<path d="M107.607 128.121V114.851H110.349V128.121H107.607Z" fill="white"/>
<path d="M121.825 128.121L116.963 114.851H119.935L123.38 124.682L126.709 114.851H129.624L124.751 128.121H121.825Z" fill="white"/>
<path d="M147.276 128.121H144.292L143.105 125.107H137.667L136.55 128.121H133.635L138.934 114.851H141.838L147.276 128.121ZM142.218 122.871L140.34 117.95L138.508 122.871H142.218Z" fill="white"/>
<path d="M155.778 128.121V117.087H151.746V114.838H162.552V117.087H158.531V128.121H155.778Z" fill="white"/>
<path d="M169.704 128.121V114.851H179.785V117.099H172.446V120.04H179.267V122.276H172.446V125.885H180.039V128.121H169.704Z" fill="white"/>
<path d="M207.137 123.248L209.799 124.074C209.395 125.52 208.716 126.602 207.759 127.307C206.815 128.011 205.605 128.364 204.142 128.364C202.333 128.364 200.847 127.756 199.695 126.553C198.531 125.35 197.955 123.697 197.955 121.619C197.955 119.407 198.543 117.694 199.706 116.466C200.87 115.239 202.414 114.631 204.315 114.631C205.974 114.631 207.333 115.105 208.37 116.065C208.992 116.636 209.453 117.451 209.764 118.508L207.045 119.14C206.884 118.447 206.55 117.912 206.043 117.511C205.536 117.11 204.914 116.916 204.188 116.916C203.186 116.916 202.368 117.268 201.734 117.973C201.112 118.678 200.789 119.82 200.789 121.4C200.789 123.077 201.1 124.268 201.711 124.985C202.333 125.702 203.128 126.055 204.119 126.055C204.845 126.055 205.478 125.824 205.997 125.374C206.538 124.925 206.907 124.22 207.137 123.248Z" fill="white"/>
<path d="M217.622 128.121V114.96H220.364V125.885H227.185V128.121H217.622Z" fill="white"/>
<path d="M234.532 114.851H237.274V122.045C237.274 123.187 237.309 123.929 237.378 124.269C237.493 124.816 237.77 125.253 238.219 125.581C238.657 125.91 239.267 126.08 240.028 126.08C240.811 126.08 241.399 125.922 241.79 125.618C242.182 125.302 242.424 124.925 242.505 124.476C242.585 124.026 242.62 123.272 242.62 122.215V114.875H245.362V121.851C245.362 123.443 245.293 124.573 245.143 125.229C244.993 125.885 244.717 126.444 244.325 126.894C243.922 127.344 243.392 127.708 242.724 127.976C242.055 128.243 241.18 128.377 240.108 128.377C238.806 128.377 237.827 128.231 237.159 127.939C236.491 127.647 235.961 127.271 235.569 126.797C235.177 126.335 234.924 125.837 234.797 125.326C234.613 124.561 234.532 123.443 234.532 121.96V114.851Z" fill="white"/>
<path d="M253.67 114.851H259.108C260.179 114.851 260.986 114.899 261.516 114.984C262.046 115.069 262.518 115.252 262.933 115.531C263.347 115.811 263.693 116.175 263.981 116.637C264.258 117.099 264.396 117.621 264.396 118.193C264.396 118.812 264.223 119.384 263.877 119.906C263.532 120.429 263.071 120.818 262.483 121.073C263.313 121.304 263.947 121.705 264.396 122.276C264.845 122.847 265.064 123.515 265.064 124.281C265.064 124.889 264.926 125.472 264.638 126.043C264.35 126.614 263.958 127.064 263.463 127.417C262.967 127.757 262.357 127.963 261.619 128.048C261.159 128.097 260.052 128.121 258.313 128.134H253.681V114.851H253.67ZM256.412 117.062V120.137H258.209C259.281 120.137 259.949 120.125 260.202 120.088C260.675 120.04 261.043 119.87 261.308 119.614C261.573 119.347 261.711 119.007 261.711 118.581C261.711 118.168 261.596 117.84 261.366 117.585C261.135 117.33 260.79 117.172 260.329 117.123C260.052 117.099 259.269 117.075 257.979 117.075H256.412V117.062ZM256.412 125.885H258.958C259.949 125.885 260.571 125.861 260.836 125.8C261.239 125.727 261.573 125.557 261.838 125.265C262.092 124.986 262.218 124.609 262.218 124.135C262.218 123.734 262.115 123.394 261.919 123.127C261.723 122.847 261.435 122.653 261.066 122.519C260.698 122.397 259.88 122.325 258.635 122.325H256.412V125.885Z" fill="white"/>
<path d="M170.88 93.437C170.88 93.437 170.488 98.4075 172.285 100.996C174.578 104.289 177.263 105.857 180.177 106.927C186.502 109.236 191.618 109.321 199.613 108.835C206.825 108.397 216.514 106.222 221.791 104.776C226.134 103.585 237.114 100.522 240.224 99.793C243.335 99.0638 246.618 98.6871 250.075 100.875C253.531 103.062 254.395 105.067 254.395 105.067C254.395 105.067 255.155 100.68 253.531 96.6818C251.849 92.5377 248.692 89.6818 242.989 89.6211C237.286 89.5724 221.318 97.2773 212.701 99.7808C207.781 101.215 200.454 103.56 191.859 103.925C185.776 104.192 179.866 103.171 177.424 101.118C175.189 99.2461 175.719 92.477 175.719 92.477L170.88 93.437Z" fill="white"/>
<path d="M51.7064 89.5246C51.7064 89.5246 51.3032 95.7346 53.1465 98.9794C55.4853 103.099 58.2272 105.068 61.2112 106.393C67.6629 109.285 72.9049 109.382 81.0617 108.775C88.4236 108.228 98.3316 105.518 103.712 103.695C108.147 102.2 119.357 98.3718 122.537 97.4603C125.717 96.5489 129.069 96.0749 132.595 98.8214C136.12 101.568 137.007 104.071 137.007 104.071C137.007 104.071 137.779 98.5905 136.12 93.5836C134.404 88.4065 131.178 84.8214 125.348 84.7607C119.519 84.6999 103.205 94.3249 94.4029 97.4603C89.3683 99.2468 81.9027 102.176 73.1123 102.65C66.9025 102.978 60.854 101.714 58.3655 99.1496C56.1074 96.8162 56.6489 88.3579 56.6489 88.3579L51.7064 89.5246Z" fill="white"/>
</svg>
