<svg width="73" height="73" viewBox="0 0 73 73" fill="none" xmlns="http://www.w3.org/2000/svg">
<g clip-path="url(#clip0)">
<path d="M56.845 7.48708C51.4669 2.67396 44.2962 0 36.6772 0C29.0583 0 21.8876 2.67396 16.3601 7.48708C6.3509 16.4448 5.15578 33.2908 13.6711 43.5855L36.6772 73.2664L59.534 43.5855C68.1987 33.2908 66.8542 16.4448 56.845 7.48708Z" fill="white"/>
<path d="M19.749 34.3271L21.9326 33.9844V18.9785L19.749 18.6484V17.9756H32.5205V22.0508H31.6826L31.2764 19.2959C30.3285 19.1774 28.9574 19.1182 27.1631 19.1182H24.3828V25.7705H28.9785L29.3721 23.7393H30.1846V28.9697H29.3721L28.9785 26.9131H24.3828V33.8574H27.7344C29.918 33.8574 31.3483 33.7897 32.0254 33.6543L32.749 30.5059H33.5869L33.3457 35H19.749V34.3271ZM35.6436 35V34.3271L37.8271 33.9844V18.9785L35.6436 18.6484V17.9756H42.4609V18.6484L40.2773 18.9785V25.6689H48.2881V18.9785L46.1045 18.6484V17.9756H52.9092V18.6484L50.7256 18.9785V33.9844L52.9092 34.3271V35H46.1045V34.3271L48.2881 33.9844V26.8115H40.2773V33.9844L42.4609 34.3271V35H35.6436Z" fill="#313643"/>
</g>
<defs>
<clipPath id="clip0">
<rect width="73" height="73" fill="white"/>
</clipPath>
</defs>
</svg>
