<svg width="14" height="18" viewBox="0 0 14 18" fill="none" xmlns="http://www.w3.org/2000/svg">
<path d="M7.22683 0.00375168C3.5714 -0.119438 0.569489 2.80709 0.569489 6.43469C0.569489 10.5516 4.52033 13.5394 6.73477 17.8362C6.8472 18.0544 7.16126 18.0547 7.27407 17.8365C9.27735 13.9703 12.7012 11.3777 13.3358 7.65299C13.9927 3.79863 11.1345 0.135493 7.22683 0.00375168ZM7.00411 9.80519C5.14266 9.80519 3.63361 8.2961 3.63361 6.43469C3.63361 4.57328 5.14269 3.06419 7.00411 3.06419C8.86555 3.06419 10.3746 4.57328 10.3746 6.43469C10.3746 8.2961 8.86555 9.80519 7.00411 9.80519Z" fill="white"/>
</svg>
