<svg width="18" height="18" viewBox="0 0 18 18" fill="none" xmlns="http://www.w3.org/2000/svg">
<path d="M7.45375 10.5466C5.73568 8.8285 5.34775 7.11043 5.26023 6.42208C5.23578 6.23176 5.30128 6.04088 5.43744 5.90567L6.82779 4.51595C7.03231 4.31155 7.0686 3.99301 6.9153 3.74784L4.70161 0.310464C4.53201 0.0389898 4.18378 -0.0589881 3.89751 0.0842229L0.343751 1.75791C0.112252 1.8719 -0.0239126 2.11787 0.00237154 2.37457C0.188578 4.14353 0.959785 8.49208 5.23323 12.7658C9.50668 17.0396 13.8546 17.8105 15.6245 17.9967C15.8812 18.023 16.1272 17.8868 16.2412 17.6553L17.9149 14.1016C18.0575 13.8159 17.9602 13.4686 17.6899 13.2987L14.2525 11.0856C14.0075 10.9322 13.6889 10.9682 13.4844 11.1725L12.0946 12.5629C11.9594 12.699 11.7686 12.7645 11.5782 12.7401C10.8899 12.6526 9.17182 12.2646 7.45375 10.5466Z" fill="white"/>
<path d="M14.2757 9.62076C13.9329 9.62076 13.655 9.34286 13.655 9.00007C13.6521 6.43029 11.5696 4.3478 8.99984 4.3449C8.65704 4.3449 8.37915 4.067 8.37915 3.72421C8.37915 3.38141 8.65704 3.10352 8.99984 3.10352C12.2549 3.10711 14.8928 5.74498 14.8964 9.00007C14.8964 9.34286 14.6185 9.62076 14.2757 9.62076Z" fill="white"/>
<path d="M17.3792 9.62069C17.0364 9.62069 16.7585 9.3428 16.7585 9C16.7537 4.71702 13.2828 1.24617 8.99984 1.24138C8.65704 1.24138 8.37915 0.963487 8.37915 0.62069C8.37915 0.277892 8.65704 0 8.99984 0C13.9681 0.0054732 17.9944 4.03171 17.9998 9C17.9998 9.16462 17.9344 9.32249 17.818 9.43889C17.7016 9.5553 17.5438 9.62069 17.3792 9.62069Z" fill="white"/>
</svg>
