<svg width="10" height="12" viewBox="0 0 10 12" fill="none" xmlns="http://www.w3.org/2000/svg">
<path d="M9.56712 1.24955C9.46483 1.1473 9.32613 1.08985 9.18145 1.08985C9.18148 1.08985 9.1814 1.08985 9.18145 1.08985L8.63599 1.09004V10.908H9.18145C9.48269 10.908 9.72691 10.6638 9.72691 10.3626V1.63531C9.72689 1.49061 9.66944 1.35186 9.56712 1.24955Z" fill="#313643"/>
<path d="M7.3508 0.127088C7.22726 0.0234477 7.06423 -0.0202631 6.90542 0.00786183L0.723605 1.09941C0.462957 1.14542 0.272949 1.3719 0.272949 1.63655V10.3632C0.272949 10.6278 0.46298 10.8544 0.723628 10.9003L6.90544 11.9912C6.93701 11.9968 6.96868 11.9995 7.0002 11.9995C7.12744 11.9995 7.25185 11.955 7.35083 11.8719C7.47436 11.7683 7.54566 11.6153 7.54566 11.4541V0.544978C7.54566 0.383752 7.47436 0.230775 7.3508 0.127088ZM5.20419 6.74897C5.10278 6.85045 4.96201 6.9086 4.81841 6.9086C4.67478 6.9086 4.53442 6.85043 4.43258 6.74892C4.33112 6.64718 4.27295 6.50681 4.27295 6.36314C4.27295 6.21951 4.33112 6.0791 4.43258 5.97736C4.53439 5.87587 4.67476 5.81768 4.81841 5.81768C4.96201 5.81768 5.10278 5.87585 5.20419 5.97736C5.30565 6.07915 5.36387 6.21951 5.36387 6.36314C5.36385 6.50683 5.30563 6.6472 5.20419 6.74897Z" fill="#313643"/>
</svg>
