<svg width="64" height="3" viewBox="0 0 64 3" fill="none" xmlns="http://www.w3.org/2000/svg">
<g opacity="0.2">
<path d="M0.46 2.36C0.326667 2.36 0.213333 2.32 0.12 2.24C0.04 2.14667 0 2.03333 0 1.9V0.46C0 0.326667 0.04 0.22 0.12 0.14C0.213333 0.0466667 0.326667 0 0.46 0H1.9C2.03333 0 2.14667 0.0466667 2.24 0.14C2.33333 0.22 2.38 0.326667 2.38 0.46V1.9C2.38 2.03333 2.33333 2.14667 2.24 2.24C2.14667 2.32 2.03333 2.36 1.9 2.36H0.46Z" fill="white"/>
<path d="M6.29906 2.36C6.16573 2.36 6.0524 2.32 5.95906 2.24C5.87906 2.14667 5.83906 2.03333 5.83906 1.9V0.46C5.83906 0.326667 5.87906 0.22 5.95906 0.14C6.0524 0.0466667 6.16573 0 6.29906 0H7.73906C7.8724 0 7.98573 0.0466667 8.07906 0.14C8.1724 0.22 8.21906 0.326667 8.21906 0.46V1.9C8.21906 2.03333 8.1724 2.14667 8.07906 2.24C7.98573 2.32 7.8724 2.36 7.73906 2.36H6.29906Z" fill="white"/>
<path d="M12.1381 2.36C12.0048 2.36 11.8915 2.32 11.7981 2.24C11.7181 2.14667 11.6781 2.03333 11.6781 1.9V0.46C11.6781 0.326667 11.7181 0.22 11.7981 0.14C11.8915 0.0466667 12.0048 0 12.1381 0H13.5781C13.7115 0 13.8248 0.0466667 13.9181 0.14C14.0115 0.22 14.0581 0.326667 14.0581 0.46V1.9C14.0581 2.03333 14.0115 2.14667 13.9181 2.24C13.8248 2.32 13.7115 2.36 13.5781 2.36H12.1381Z" fill="white"/>
<path d="M17.9772 2.36C17.8439 2.36 17.7305 2.32 17.6372 2.24C17.5572 2.14667 17.5172 2.03333 17.5172 1.9V0.46C17.5172 0.326667 17.5572 0.22 17.6372 0.14C17.7305 0.0466667 17.8439 0 17.9772 0H19.4172C19.5505 0 19.6639 0.0466667 19.7572 0.14C19.8505 0.22 19.8972 0.326667 19.8972 0.46V1.9C19.8972 2.03333 19.8505 2.14667 19.7572 2.24C19.6639 2.32 19.5505 2.36 19.4172 2.36H17.9772Z" fill="white"/>
<path d="M23.8162 2.36C23.6829 2.36 23.5696 2.32 23.4763 2.24C23.3963 2.14667 23.3563 2.03333 23.3563 1.9V0.46C23.3563 0.326667 23.3963 0.22 23.4763 0.14C23.5696 0.0466667 23.6829 0 23.8162 0H25.2563C25.3896 0 25.5029 0.0466667 25.5963 0.14C25.6896 0.22 25.7362 0.326667 25.7362 0.46V1.9C25.7362 2.03333 25.6896 2.14667 25.5963 2.24C25.5029 2.32 25.3896 2.36 25.2563 2.36H23.8162Z" fill="white"/>
<path d="M29.6553 2.36C29.522 2.36 29.4086 2.32 29.3153 2.24C29.2353 2.14667 29.1953 2.03333 29.1953 1.9V0.46C29.1953 0.326667 29.2353 0.22 29.3153 0.14C29.4086 0.0466667 29.522 0 29.6553 0H31.0953C31.2286 0 31.342 0.0466667 31.4353 0.14C31.5286 0.22 31.5753 0.326667 31.5753 0.46V1.9C31.5753 2.03333 31.5286 2.14667 31.4353 2.24C31.342 2.32 31.2286 2.36 31.0953 2.36H29.6553Z" fill="white"/>
<path d="M35.4944 2.36C35.361 2.36 35.2477 2.32 35.1544 2.24C35.0744 2.14667 35.0344 2.03333 35.0344 1.9V0.46C35.0344 0.326667 35.0744 0.22 35.1544 0.14C35.2477 0.0466667 35.361 0 35.4944 0H36.9344C37.0677 0 37.181 0.0466667 37.2744 0.14C37.3677 0.22 37.4144 0.326667 37.4144 0.46V1.9C37.4144 2.03333 37.3677 2.14667 37.2744 2.24C37.181 2.32 37.0677 2.36 36.9344 2.36H35.4944Z" fill="white"/>
<path d="M41.3334 2.36C41.2001 2.36 41.0868 2.32 40.9934 2.24C40.9134 2.14667 40.8734 2.03333 40.8734 1.9V0.46C40.8734 0.326667 40.9134 0.22 40.9934 0.14C41.0868 0.0466667 41.2001 0 41.3334 0H42.7734C42.9068 0 43.0201 0.0466667 43.1134 0.14C43.2068 0.22 43.2534 0.326667 43.2534 0.46V1.9C43.2534 2.03333 43.2068 2.14667 43.1134 2.24C43.0201 2.32 42.9068 2.36 42.7734 2.36H41.3334Z" fill="white"/>
<path d="M47.1725 2.36C47.0392 2.36 46.9258 2.32 46.8325 2.24C46.7525 2.14667 46.7125 2.03333 46.7125 1.9V0.46C46.7125 0.326667 46.7525 0.22 46.8325 0.14C46.9258 0.0466667 47.0392 0 47.1725 0H48.6125C48.7458 0 48.8592 0.0466667 48.9525 0.14C49.0458 0.22 49.0925 0.326667 49.0925 0.46V1.9C49.0925 2.03333 49.0458 2.14667 48.9525 2.24C48.8592 2.32 48.7458 2.36 48.6125 2.36H47.1725Z" fill="white"/>
<path d="M53.0116 2.36C52.8782 2.36 52.7649 2.32 52.6716 2.24C52.5916 2.14667 52.5516 2.03333 52.5516 1.9V0.46C52.5516 0.326667 52.5916 0.22 52.6716 0.14C52.7649 0.0466667 52.8782 0 53.0116 0H54.4516C54.5849 0 54.6982 0.0466667 54.7916 0.14C54.8849 0.22 54.9316 0.326667 54.9316 0.46V1.9C54.9316 2.03333 54.8849 2.14667 54.7916 2.24C54.6982 2.32 54.5849 2.36 54.4516 2.36H53.0116Z" fill="white"/>
<path d="M58.8506 2.36C58.7173 2.36 58.604 2.32 58.5106 2.24C58.4306 2.14667 58.3906 2.03333 58.3906 1.9V0.46C58.3906 0.326667 58.4306 0.22 58.5106 0.14C58.604 0.0466667 58.7173 0 58.8506 0H60.2906C60.424 0 60.5373 0.0466667 60.6306 0.14C60.724 0.22 60.7706 0.326667 60.7706 0.46V1.9C60.7706 2.03333 60.724 2.14667 60.6306 2.24C60.5373 2.32 60.424 2.36 60.2906 2.36H58.8506Z" fill="white"/>
</g>
</svg>
