<svg width="60" height="2" viewBox="0 0 60 2" fill="none" xmlns="http://www.w3.org/2000/svg">
<path d="M0.368 1.888C0.261333 1.888 0.170667 1.856 0.0960001 1.792C0.032 1.71733 0 1.62667 0 1.52V0.368C0 0.261333 0.032 0.176 0.0960001 0.112C0.170667 0.0373333 0.261333 0 0.368 0H1.52C1.62667 0 1.71733 0.0373333 1.792 0.112C1.86667 0.176 1.904 0.261333 1.904 0.368V1.52C1.904 1.62667 1.86667 1.71733 1.792 1.792C1.71733 1.856 1.62667 1.888 1.52 1.888H0.368Z" fill="#313643"/>
<path d="M5.03925 1.888C4.93258 1.888 4.84192 1.856 4.76725 1.792C4.70325 1.71733 4.67125 1.62667 4.67125 1.52V0.368C4.67125 0.261333 4.70325 0.176 4.76725 0.112C4.84192 0.0373333 4.93258 0 5.03925 0H6.19125C6.29792 0 6.38858 0.0373333 6.46325 0.112C6.53792 0.176 6.57525 0.261333 6.57525 0.368V1.52C6.57525 1.62667 6.53792 1.71733 6.46325 1.792C6.38858 1.856 6.29792 1.888 6.19125 1.888H5.03925Z" fill="#313643"/>
<path d="M9.7105 1.888C9.60383 1.888 9.51317 1.856 9.4385 1.792C9.3745 1.71733 9.3425 1.62667 9.3425 1.52V0.368C9.3425 0.261333 9.3745 0.176 9.4385 0.112C9.51317 0.0373333 9.60383 0 9.7105 0H10.8625C10.9692 0 11.0598 0.0373333 11.1345 0.112C11.2092 0.176 11.2465 0.261333 11.2465 0.368V1.52C11.2465 1.62667 11.2092 1.71733 11.1345 1.792C11.0598 1.856 10.9692 1.888 10.8625 1.888H9.7105Z" fill="#313643"/>
<path d="M14.3818 1.888C14.2751 1.888 14.1844 1.856 14.1097 1.792C14.0457 1.71733 14.0138 1.62667 14.0138 1.52V0.368C14.0138 0.261333 14.0457 0.176 14.1097 0.112C14.1844 0.0373333 14.2751 0 14.3818 0H15.5338C15.6404 0 15.7311 0.0373333 15.8057 0.112C15.8804 0.176 15.9178 0.261333 15.9178 0.368V1.52C15.9178 1.62667 15.8804 1.71733 15.8057 1.792C15.7311 1.856 15.6404 1.888 15.5338 1.888H14.3818Z" fill="#313643"/>
<path d="M19.053 1.888C18.9463 1.888 18.8557 1.856 18.781 1.792C18.717 1.71733 18.685 1.62667 18.685 1.52V0.368C18.685 0.261333 18.717 0.176 18.781 0.112C18.8557 0.0373333 18.9463 0 19.053 0H20.205C20.3117 0 20.4023 0.0373333 20.477 0.112C20.5517 0.176 20.589 0.261333 20.589 0.368V1.52C20.589 1.62667 20.5517 1.71733 20.477 1.792C20.4023 1.856 20.3117 1.888 20.205 1.888H19.053Z" fill="#313643"/>
<path d="M23.7243 1.888C23.6176 1.888 23.5269 1.856 23.4523 1.792C23.3883 1.71733 23.3563 1.62667 23.3563 1.52V0.368C23.3563 0.261333 23.3883 0.176 23.4523 0.112C23.5269 0.0373333 23.6176 0 23.7243 0H24.8763C24.9829 0 25.0736 0.0373333 25.1483 0.112C25.2229 0.176 25.2603 0.261333 25.2603 0.368V1.52C25.2603 1.62667 25.2229 1.71733 25.1483 1.792C25.0736 1.856 24.9829 1.888 24.8763 1.888H23.7243Z" fill="#313643"/>
<path d="M28.3955 1.888C28.2888 1.888 28.1982 1.856 28.1235 1.792C28.0595 1.71733 28.0275 1.62667 28.0275 1.52V0.368C28.0275 0.261333 28.0595 0.176 28.1235 0.112C28.1982 0.0373333 28.2888 0 28.3955 0H29.5475C29.6542 0 29.7448 0.0373333 29.8195 0.112C29.8942 0.176 29.9315 0.261333 29.9315 0.368V1.52C29.9315 1.62667 29.8942 1.71733 29.8195 1.792C29.7448 1.856 29.6542 1.888 29.5475 1.888H28.3955Z" fill="#313643"/>
<path d="M33.0667 1.888C32.9601 1.888 32.8694 1.856 32.7948 1.792C32.7308 1.71733 32.6987 1.62667 32.6987 1.52V0.368C32.6987 0.261333 32.7308 0.176 32.7948 0.112C32.8694 0.0373333 32.9601 0 33.0667 0H34.2188C34.3254 0 34.4161 0.0373333 34.4907 0.112C34.5654 0.176 34.6027 0.261333 34.6027 0.368V1.52C34.6027 1.62667 34.5654 1.71733 34.4907 1.792C34.4161 1.856 34.3254 1.888 34.2188 1.888H33.0667Z" fill="#313643"/>
<path d="M37.738 1.888C37.6313 1.888 37.5407 1.856 37.466 1.792C37.402 1.71733 37.37 1.62667 37.37 1.52V0.368C37.37 0.261333 37.402 0.176 37.466 0.112C37.5407 0.0373333 37.6313 0 37.738 0H38.89C38.9967 0 39.0873 0.0373333 39.162 0.112C39.2367 0.176 39.274 0.261333 39.274 0.368V1.52C39.274 1.62667 39.2367 1.71733 39.162 1.792C39.0873 1.856 38.9967 1.888 38.89 1.888H37.738Z" fill="#313643"/>
<path d="M42.4092 1.888C42.3026 1.888 42.2119 1.856 42.1372 1.792C42.0732 1.71733 42.0412 1.62667 42.0412 1.52V0.368C42.0412 0.261333 42.0732 0.176 42.1372 0.112C42.2119 0.0373333 42.3026 0 42.4092 0H43.5612C43.6679 0 43.7586 0.0373333 43.8332 0.112C43.9079 0.176 43.9452 0.261333 43.9452 0.368V1.52C43.9452 1.62667 43.9079 1.71733 43.8332 1.792C43.7586 1.856 43.6679 1.888 43.5612 1.888H42.4092Z" fill="#313643"/>
<path d="M47.0805 1.888C46.9738 1.888 46.8832 1.856 46.8085 1.792C46.7445 1.71733 46.7125 1.62667 46.7125 1.52V0.368C46.7125 0.261333 46.7445 0.176 46.8085 0.112C46.8832 0.0373333 46.9738 0 47.0805 0H48.2325C48.3392 0 48.4298 0.0373333 48.5045 0.112C48.5792 0.176 48.6165 0.261333 48.6165 0.368V1.52C48.6165 1.62667 48.5792 1.71733 48.5045 1.792C48.4298 1.856 48.3392 1.888 48.2325 1.888H47.0805Z" fill="#313643"/>
<path d="M51.7518 1.888C51.6451 1.888 51.5544 1.856 51.4798 1.792C51.4158 1.71733 51.3838 1.62667 51.3838 1.52V0.368C51.3838 0.261333 51.4158 0.176 51.4798 0.112C51.5544 0.0373333 51.6451 0 51.7518 0H52.9038C53.0104 0 53.1011 0.0373333 53.1758 0.112C53.2504 0.176 53.2878 0.261333 53.2878 0.368V1.52C53.2878 1.62667 53.2504 1.71733 53.1758 1.792C53.1011 1.856 53.0104 1.888 52.9038 1.888H51.7518Z" fill="#313643"/>
<path d="M56.423 1.888C56.3163 1.888 56.2257 1.856 56.151 1.792C56.087 1.71733 56.055 1.62667 56.055 1.52V0.368C56.055 0.261333 56.087 0.176 56.151 0.112C56.2257 0.0373333 56.3163 0 56.423 0H57.575C57.6817 0 57.7723 0.0373333 57.847 0.112C57.9217 0.176 57.959 0.261333 57.959 0.368V1.52C57.959 1.62667 57.9217 1.71733 57.847 1.792C57.7723 1.856 57.6817 1.888 57.575 1.888H56.423Z" fill="#313643"/>
</svg>
