<svg width="13" height="13" viewBox="0 0 13 13" fill="none" xmlns="http://www.w3.org/2000/svg">
<path d="M12.7817 5.81154L6.949 0.496833C6.69298 0.263519 6.30692 0.263544 6.05101 0.496807L0.218309 5.81156C0.0132296 5.99844 -0.0545125 6.28637 0.0456788 6.54507C0.145895 6.80378 0.389899 6.97092 0.667342 6.97092H1.59892V12.2959C1.59892 12.507 1.77011 12.6782 1.98123 12.6782H5.17826C5.38938 12.6782 5.56056 12.507 5.56056 12.2959V9.06273H7.43952V12.2959C7.43952 12.507 7.6107 12.6782 7.82182 12.6782H11.0187C11.2298 12.6782 11.401 12.507 11.401 12.2959V6.97092H12.3328C12.6102 6.97092 12.8542 6.80375 12.9544 6.54507C13.0545 6.28634 12.9867 5.99844 12.7817 5.81154Z" fill="white"/>
<path d="M11.3013 1.08493H8.73382L11.6836 3.76709V1.46721C11.6836 1.25609 11.5124 1.08493 11.3013 1.08493Z" fill="white"/>
</svg>
