<svg width="190" height="42" viewBox="0 0 190 42" xmlns="http://www.w3.org/2000/svg">
<path d="M14.7549 3.6377H15.7549V2.6377H14.7549V3.6377ZM14.7549 6.54053V7.54053H15.7549V6.54053H14.7549ZM6.52783 6.54053V5.54053H5.52783V6.54053H6.52783ZM6.52783 11.1567H5.52783V12.1567H6.52783V11.1567ZM12.3477 11.1567H13.3477V10.1567H12.3477V11.1567ZM12.3477 14.0596V15.0596H13.3477V14.0596H12.3477ZM6.52783 14.0596V13.0596H5.52783V14.0596H6.52783ZM6.52783 21.0972H5.52783V22.0972H6.52783V21.0972ZM15.0522 21.0972H16.0522V20.0972H15.0522V21.0972ZM15.0522 24V25H16.0522V24H15.0522ZM2.57715 24H1.57715V25H2.57715V24ZM2.57715 3.6377V2.6377H1.57715V3.6377H2.57715ZM13.7549 3.6377V6.54053H15.7549V3.6377H13.7549ZM14.7549 5.54053H6.52783V7.54053H14.7549V5.54053ZM5.52783 6.54053V11.1567H7.52783V6.54053H5.52783ZM6.52783 12.1567H12.3477V10.1567H6.52783V12.1567ZM11.3477 11.1567V14.0596H13.3477V11.1567H11.3477ZM12.3477 13.0596H6.52783V15.0596H12.3477V13.0596ZM5.52783 14.0596V21.0972H7.52783V14.0596H5.52783ZM6.52783 22.0972H15.0522V20.0972H6.52783V22.0972ZM14.0522 21.0972V24H16.0522V21.0972H14.0522ZM15.0522 23H2.57715V25H15.0522V23ZM3.57715 24V3.6377H1.57715V24H3.57715ZM2.57715 4.6377H14.7549V2.6377H2.57715V4.6377ZM37.7923 3.6377L38.7347 3.97212L39.2083 2.6377H37.7923V3.6377ZM30.5565 24.0283V25.0283H31.2627L31.4989 24.3627L30.5565 24.0283ZM26.889 24.0283L25.9468 24.3633L26.1832 25.0283H26.889V24.0283ZM19.639 3.6377V2.6377H18.2221L18.6968 3.9727L19.639 3.6377ZM23.703 3.6377L24.6569 3.33774L24.4368 2.6377H23.703V3.6377ZM28.7298 19.6245L27.7759 19.9245L28.7325 22.9669L29.6843 19.9229L28.7298 19.6245ZM33.7284 3.6377V2.6377H32.9933L32.7739 3.33928L33.7284 3.6377ZM36.8499 3.30327L29.6141 23.6939L31.4989 24.3627L38.7347 3.97212L36.8499 3.30327ZM30.5565 23.0283H26.889V25.0283H30.5565V23.0283ZM27.8312 23.6933L20.5812 3.30269L18.6968 3.9727L25.9468 24.3633L27.8312 23.6933ZM19.639 4.6377H23.703V2.6377H19.639V4.6377ZM22.749 3.93765L27.7759 19.9245L29.6838 19.3246L24.6569 3.33774L22.749 3.93765ZM29.6843 19.9229L34.6828 3.93611L32.7739 3.33928L27.7754 19.3261L29.6843 19.9229ZM33.7284 4.6377H37.7923V2.6377H33.7284V4.6377ZM55.3073 3.6377H56.3073V2.6377H55.3073V3.6377ZM55.3073 6.54053V7.54053H56.3073V6.54053H55.3073ZM47.0803 6.54053V5.54053H46.0803V6.54053H47.0803ZM47.0803 11.1567H46.0803V12.1567H47.0803V11.1567ZM52.9001 11.1567H53.9001V10.1567H52.9001V11.1567ZM52.9001 14.0596V15.0596H53.9001V14.0596H52.9001ZM47.0803 14.0596V13.0596H46.0803V14.0596H47.0803ZM47.0803 21.0972H46.0803V22.0972H47.0803V21.0972ZM55.6047 21.0972H56.6047V20.0972H55.6047V21.0972ZM55.6047 24V25H56.6047V24H55.6047ZM43.1296 24H42.1296V25H43.1296V24ZM43.1296 3.6377V2.6377H42.1296V3.6377H43.1296ZM54.3073 3.6377V6.54053H56.3073V3.6377H54.3073ZM55.3073 5.54053H47.0803V7.54053H55.3073V5.54053ZM46.0803 6.54053V11.1567H48.0803V6.54053H46.0803ZM47.0803 12.1567H52.9001V10.1567H47.0803V12.1567ZM51.9001 11.1567V14.0596H53.9001V11.1567H51.9001ZM52.9001 13.0596H47.0803V15.0596H52.9001V13.0596ZM46.0803 14.0596V21.0972H48.0803V14.0596H46.0803ZM47.0803 22.0972H55.6047V20.0972H47.0803V22.0972ZM54.6047 21.0972V24H56.6047V21.0972H54.6047ZM55.6047 23H43.1296V25H55.6047V23ZM44.1296 24V3.6377H42.1296V24H44.1296ZM43.1296 4.6377H55.3073V2.6377H43.1296V4.6377ZM78.3589 3.6377H79.3589V2.6377H78.3589V3.6377ZM78.3589 24V25H79.3589V24H78.3589ZM73.9834 24L73.1203 24.505L73.4099 25H73.9834V24ZM65.0767 8.77783L65.9398 8.27281L64.0767 5.08865V8.77783H65.0767ZM65.0767 24V25H66.0767V24H65.0767ZM61.126 24H60.126V25H61.126V24ZM61.126 3.6377V2.6377H60.126V3.6377H61.126ZM65.5015 3.6377L66.3646 3.13268L66.075 2.6377H65.5015V3.6377ZM74.4082 18.8599L73.5451 19.3649L75.4082 22.549V18.8599H74.4082ZM74.4082 3.6377V2.6377H73.4082V3.6377H74.4082ZM77.3589 3.6377V24H79.3589V3.6377H77.3589ZM78.3589 23H73.9834V25H78.3589V23ZM74.8465 23.495L65.9398 8.27281L64.2136 9.28285L73.1203 24.505L74.8465 23.495ZM64.0767 8.77783V24H66.0767V8.77783H64.0767ZM65.0767 23H61.126V25H65.0767V23ZM62.126 24V3.6377H60.126V24H62.126ZM61.126 4.6377H65.5015V2.6377H61.126V4.6377ZM64.6384 4.14271L73.5451 19.3649L75.2713 18.3548L66.3646 3.13268L64.6384 4.14271ZM75.4082 18.8599V3.6377H73.4082V18.8599H75.4082ZM74.4082 4.6377H78.3589V2.6377H74.4082V4.6377ZM99.2157 3.6377H100.216V2.6377H99.2157V3.6377ZM99.2157 6.54053V7.54053H100.216V6.54053H99.2157ZM93.2684 6.54053V5.54053H92.2684V6.54053H93.2684ZM93.2684 24V25H94.2684V24H93.2684ZM89.3177 24H88.3177V25H89.3177V24ZM89.3177 6.54053H90.3177V5.54053H89.3177V6.54053ZM83.3138 6.54053H82.3138V7.54053H83.3138V6.54053ZM83.3138 3.6377V2.6377H82.3138V3.6377H83.3138ZM98.2157 3.6377V6.54053H100.216V3.6377H98.2157ZM99.2157 5.54053H93.2684V7.54053H99.2157V5.54053ZM92.2684 6.54053V24H94.2684V6.54053H92.2684ZM93.2684 23H89.3177V25H93.2684V23ZM90.3177 24V6.54053H88.3177V24H90.3177ZM89.3177 5.54053H83.3138V7.54053H89.3177V5.54053ZM84.3138 6.54053V3.6377H82.3138V6.54053H84.3138ZM83.3138 4.6377H99.2157V2.6377H83.3138V4.6377ZM130.38 3.6377H131.38V2.6377H130.38V3.6377ZM130.38 24V25H131.38V24H130.38ZM126.429 24H125.429V25H126.429V24ZM126.429 14.0737H127.429V13.0737H126.429V14.0737ZM117.423 14.0737V13.0737H116.423V14.0737H117.423ZM117.423 24V25H118.423V24H117.423ZM113.473 24H112.473V25H113.473V24ZM113.473 3.6377V2.6377H112.473V3.6377H113.473ZM117.423 3.6377H118.423V2.6377H117.423V3.6377ZM117.423 11.1709H116.423V12.1709H117.423V11.1709ZM126.429 11.1709V12.1709H127.429V11.1709H126.429ZM126.429 3.6377V2.6377H125.429V3.6377H126.429ZM129.38 3.6377V24H131.38V3.6377H129.38ZM130.38 23H126.429V25H130.38V23ZM127.429 24V14.0737H125.429V24H127.429ZM126.429 13.0737H117.423V15.0737H126.429V13.0737ZM116.423 14.0737V24H118.423V14.0737H116.423ZM117.423 23H113.473V25H117.423V23ZM114.473 24V3.6377H112.473V24H114.473ZM113.473 4.6377H117.423V2.6377H113.473V4.6377ZM116.423 3.6377V11.1709H118.423V3.6377H116.423ZM117.423 12.1709H126.429V10.1709H117.423V12.1709ZM127.429 11.1709V3.6377H125.429V11.1709H127.429ZM126.429 4.6377H130.38V2.6377H126.429V4.6377ZM146.366 3.6377L147.301 3.28443L147.057 2.6377H146.366V3.6377ZM154.055 24V25H155.501L154.99 23.6467L154.055 24ZM150.061 24L149.124 24.3479L149.366 25H150.061V24ZM147.739 17.7412L148.677 17.3933L148.435 16.7412H147.739V17.7412ZM141.027 17.7412V16.7412H140.332L140.09 17.3933L141.027 17.7412ZM138.705 24V25H139.401L139.643 24.3479L138.705 24ZM134.712 24L133.776 23.6467L133.265 25H134.712V24ZM142.401 3.6377V2.6377H141.709L141.465 3.28443L142.401 3.6377ZM144.383 7.84326L145.334 7.53219L144.383 4.62856L143.433 7.53219L144.383 7.84326ZM142.075 14.895L141.125 14.5839L140.696 15.895H142.075V14.895ZM146.691 14.895V15.895H148.071L147.642 14.5839L146.691 14.895ZM145.43 3.99096L153.119 24.3533L154.99 23.6467L147.301 3.28443L145.43 3.99096ZM154.055 23H150.061V25H154.055V23ZM150.999 23.6521L148.677 17.3933L146.802 18.0891L149.124 24.3479L150.999 23.6521ZM147.739 16.7412H141.027V18.7412H147.739V16.7412ZM140.09 17.3933L137.767 23.6521L139.643 24.3479L141.965 18.0891L140.09 17.3933ZM138.705 23H134.712V25H138.705V23ZM135.647 24.3533L143.336 3.99096L141.465 3.28443L133.776 23.6467L135.647 24.3533ZM142.401 4.6377H146.366V2.6377H142.401V4.6377ZM143.433 7.53219L141.125 14.5839L143.025 15.2061L145.334 8.15433L143.433 7.53219ZM142.075 15.895H146.691V13.895H142.075V15.895ZM147.642 14.5839L145.334 7.53219L143.433 8.15433L145.741 15.2061L147.642 14.5839ZM162.592 3.6377H163.592V2.6377H162.592V3.6377ZM162.592 21.0972H161.592V22.0972H162.592V21.0972ZM170.536 21.0972H171.536V20.0972H170.536V21.0972ZM170.536 24V25H171.536V24H170.536ZM158.641 24H157.641V25H158.641V24ZM158.641 3.6377V2.6377H157.641V3.6377H158.641ZM161.592 3.6377V21.0972H163.592V3.6377H161.592ZM162.592 22.0972H170.536V20.0972H162.592V22.0972ZM169.536 21.0972V24H171.536V21.0972H169.536ZM170.536 23H158.641V25H170.536V23ZM159.641 24V3.6377H157.641V24H159.641ZM158.641 4.6377H162.592V2.6377H158.641V4.6377ZM179.81 3.6377H180.81V2.6377H179.81V3.6377ZM179.81 21.0972H178.81V22.0972H179.81V21.0972ZM187.753 21.0972H188.753V20.0972H187.753V21.0972ZM187.753 24V25H188.753V24H187.753ZM175.859 24H174.859V25H175.859V24ZM175.859 3.6377V2.6377H174.859V3.6377H175.859ZM178.81 3.6377V21.0972H180.81V3.6377H178.81ZM179.81 22.0972H187.753V20.0972H179.81V22.0972ZM186.753 21.0972V24H188.753V21.0972H186.753ZM187.753 23H175.859V25H187.753V23ZM176.859 24V3.6377H174.859V24H176.859ZM175.859 4.6377H179.81V2.6377H175.859V4.6377Z" fill="white"/>
<path d="M78.1 40C78.0333 40 77.98 39.98 77.94 39.94C77.9 39.8933 77.88 39.8367 77.88 39.77V33.24C77.88 33.1667 77.9 33.11 77.94 33.07C77.98 33.0233 78.0333 33 78.1 33H80.83C81.5367 33 82.07 33.17 82.43 33.51C82.79 33.85 82.97 34.2933 82.97 34.84C82.97 35.2133 82.8833 35.5267 82.71 35.78C82.5367 36.0267 82.3333 36.2067 82.1 36.32C82.3867 36.46 82.6267 36.6767 82.82 36.97C83.0133 37.2633 83.11 37.6 83.11 37.98C83.11 38.3533 83.0233 38.6933 82.85 39C82.6833 39.3067 82.4333 39.55 82.1 39.73C81.7667 39.91 81.37 40 80.91 40H78.1ZM80.68 35.97C81.1133 35.97 81.4433 35.8733 81.67 35.68C81.8967 35.48 82.01 35.2033 82.01 34.85C82.01 34.5033 81.8967 34.24 81.67 34.06C81.45 33.88 81.12 33.79 80.68 33.79H78.82V35.97H80.68ZM80.78 39.21C81.2067 39.21 81.54 39.0967 81.78 38.87C82.0267 38.6367 82.15 38.34 82.15 37.98C82.15 37.6133 82.0267 37.3167 81.78 37.09C81.54 36.8633 81.2067 36.75 80.78 36.75H78.82V39.21H80.78ZM83.9918 40C83.9385 40 83.8918 39.98 83.8518 39.94C83.8118 39.9 83.7918 39.8533 83.7918 39.8L83.8118 39.69L86.2918 33.22C86.3451 33.0733 86.4518 33 86.6118 33H87.2518C87.4118 33 87.5185 33.0733 87.5718 33.22L90.0518 39.69L90.0718 39.8C90.0718 39.8533 90.0485 39.9 90.0018 39.94C89.9618 39.98 89.9151 40 89.8618 40H89.3918C89.3251 40 89.2685 39.9833 89.2218 39.95C89.1818 39.91 89.1551 39.87 89.1418 39.83L88.5818 38.39H85.2718L84.7218 39.83C84.6685 39.9433 84.5851 40 84.4718 40H83.9918ZM85.5618 37.56H88.3018L86.9318 33.97L85.5618 37.56ZM91.3715 40C91.3048 40 91.2515 39.98 91.2115 39.94C91.1715 39.8933 91.1515 39.8367 91.1515 39.77V33.24C91.1515 33.1667 91.1715 33.11 91.2115 33.07C91.2515 33.0233 91.3048 33 91.3715 33H93.8115C94.5715 33 95.1648 33.18 95.5915 33.54C96.0248 33.8933 96.2415 34.41 96.2415 35.09C96.2415 35.5967 96.1148 36.0133 95.8615 36.34C95.6082 36.6667 95.2548 36.8933 94.8015 37.02L96.3415 39.69C96.3615 39.73 96.3715 39.7667 96.3715 39.8C96.3715 39.8533 96.3515 39.9 96.3115 39.94C96.2715 39.98 96.2248 40 96.1715 40H95.7315C95.6315 40 95.5515 39.9767 95.4915 39.93C95.4382 39.8833 95.3882 39.8167 95.3415 39.73L93.8715 37.17H92.0915V39.77C92.0915 39.8367 92.0682 39.8933 92.0215 39.94C91.9748 39.98 91.9182 40 91.8515 40H91.3715ZM93.7715 36.35C94.7782 36.35 95.2815 35.9267 95.2815 35.08C95.2815 34.2333 94.7782 33.81 93.7715 33.81H92.0915V36.35H93.7715Z" fill="white"/>
<path d="M2.1 40C2.03333 40 1.98 39.98 1.94 39.94C1.9 39.8933 1.88 39.8367 1.88 39.77V33.24C1.88 33.1667 1.9 33.11 1.94 33.07C1.98 33.0233 2.03333 33 2.1 33H4.54C5.3 33 5.89333 33.18 6.32 33.54C6.75333 33.8933 6.97 34.41 6.97 35.09C6.97 35.5967 6.84333 36.0133 6.59 36.34C6.33667 36.6667 5.98333 36.8933 5.53 37.02L7.07 39.69C7.09 39.73 7.1 39.7667 7.1 39.8C7.1 39.8533 7.08 39.9 7.04 39.94C7 39.98 6.95333 40 6.9 40H6.46C6.36 40 6.28 39.9767 6.22 39.93C6.16667 39.8833 6.11667 39.8167 6.07 39.73L4.6 37.17H2.82V39.77C2.82 39.8367 2.79667 39.8933 2.75 39.94C2.70333 39.98 2.64667 40 2.58 40H2.1ZM4.5 36.35C5.50667 36.35 6.01 35.9267 6.01 35.08C6.01 34.2333 5.50667 33.81 4.5 33.81H2.82V36.35H4.5ZM8.64297 40C8.5763 40 8.52297 39.98 8.48297 39.94C8.44297 39.8933 8.42297 39.8367 8.42297 39.77V33.24C8.42297 33.1667 8.44297 33.11 8.48297 33.07C8.52297 33.0233 8.5763 33 8.64297 33H12.753C12.8263 33 12.883 33.0233 12.923 33.07C12.9696 33.11 12.993 33.1667 12.993 33.24V33.6C12.993 33.6667 12.9696 33.72 12.923 33.76C12.883 33.8 12.8263 33.82 12.753 33.82H9.34297V36.05H12.533C12.6063 36.05 12.663 36.0733 12.703 36.12C12.7496 36.16 12.773 36.2167 12.773 36.29V36.63C12.773 36.6967 12.7496 36.7533 12.703 36.8C12.663 36.84 12.6063 36.86 12.533 36.86H9.34297V39.17H12.833C12.9063 39.17 12.963 39.1933 13.003 39.24C13.0496 39.28 13.073 39.3367 13.073 39.41V39.77C13.073 39.8367 13.0496 39.8933 13.003 39.94C12.9563 39.98 12.8996 40 12.833 40H8.64297ZM16.7077 40.1C16.161 40.1 15.6843 40.0133 15.2777 39.84C14.8777 39.6667 14.571 39.44 14.3577 39.16C14.151 38.8733 14.041 38.5667 14.0277 38.24C14.0277 38.1867 14.0477 38.14 14.0877 38.1C14.1277 38.06 14.1777 38.04 14.2377 38.04H14.7277C14.8477 38.04 14.931 38.1067 14.9777 38.24C15.0377 38.52 15.2077 38.7633 15.4877 38.97C15.7743 39.17 16.181 39.27 16.7077 39.27C17.2743 39.27 17.6977 39.17 17.9777 38.97C18.2577 38.77 18.3977 38.4933 18.3977 38.14C18.3977 37.9133 18.3277 37.7267 18.1877 37.58C18.0543 37.4333 17.851 37.3067 17.5777 37.2C17.311 37.0867 16.9077 36.95 16.3677 36.79C15.8543 36.6433 15.4443 36.4867 15.1377 36.32C14.8377 36.1533 14.611 35.95 14.4577 35.71C14.3043 35.4633 14.2277 35.1533 14.2277 34.78C14.2277 34.42 14.3243 34.1 14.5177 33.82C14.711 33.5333 14.991 33.31 15.3577 33.15C15.7243 32.9833 16.1577 32.9 16.6577 32.9C17.1777 32.9 17.621 32.9933 17.9877 33.18C18.361 33.36 18.6443 33.59 18.8377 33.87C19.031 34.1433 19.1343 34.42 19.1477 34.7C19.1477 34.76 19.1277 34.81 19.0877 34.85C19.0477 34.89 18.9977 34.91 18.9377 34.91H18.4377C18.3843 34.91 18.3343 34.8933 18.2877 34.86C18.241 34.8267 18.2077 34.7767 18.1877 34.71C18.1477 34.4233 17.9877 34.1867 17.7077 34C17.4277 33.8133 17.0777 33.72 16.6577 33.72C16.2043 33.72 15.8443 33.81 15.5777 33.99C15.311 34.1633 15.1777 34.4233 15.1777 34.77C15.1777 35.0033 15.2377 35.1933 15.3577 35.34C15.4843 35.4867 15.6743 35.6167 15.9277 35.73C16.1877 35.8433 16.5643 35.9733 17.0577 36.12C17.6243 36.28 18.0677 36.44 18.3877 36.6C18.7143 36.76 18.9577 36.96 19.1177 37.2C19.2777 37.4333 19.3577 37.7367 19.3577 38.11C19.3577 38.7367 19.1177 39.2267 18.6377 39.58C18.1643 39.9267 17.521 40.1 16.7077 40.1ZM22.3607 40C22.294 40 22.2374 39.98 22.1907 39.94C22.1507 39.8933 22.1307 39.8367 22.1307 39.77V33.86H20.2007C20.134 33.86 20.0774 33.84 20.0307 33.8C19.9907 33.7533 19.9707 33.6967 19.9707 33.63V33.24C19.9707 33.1667 19.9907 33.11 20.0307 33.07C20.0774 33.0233 20.134 33 20.2007 33H25.0007C25.074 33 25.1307 33.0233 25.1707 33.07C25.2107 33.11 25.2307 33.1667 25.2307 33.24V33.63C25.2307 33.6967 25.2074 33.7533 25.1607 33.8C25.1207 33.84 25.0674 33.86 25.0007 33.86H23.0807V39.77C23.0807 39.8367 23.0574 39.8933 23.0107 39.94C22.964 39.98 22.9074 40 22.8407 40H22.3607ZM25.15 40C25.0967 40 25.05 39.98 25.01 39.94C24.97 39.9 24.95 39.8533 24.95 39.8L24.97 39.69L27.45 33.22C27.5033 33.0733 27.61 33 27.77 33H28.41C28.57 33 28.6767 33.0733 28.73 33.22L31.21 39.69L31.23 39.8C31.23 39.8533 31.2067 39.9 31.16 39.94C31.12 39.98 31.0733 40 31.02 40H30.55C30.4833 40 30.4267 39.9833 30.38 39.95C30.34 39.91 30.3133 39.87 30.3 39.83L29.74 38.39H26.43L25.88 39.83C25.8267 39.9433 25.7433 40 25.63 40H25.15ZM26.72 37.56H29.46L28.09 33.97L26.72 37.56ZM34.8127 40.1C33.9527 40.1 33.2894 39.87 32.8227 39.41C32.3561 38.9433 32.1227 38.24 32.1227 37.3V33.24C32.1227 33.1667 32.1427 33.11 32.1827 33.07C32.2227 33.0233 32.2761 33 32.3427 33H32.8227C32.8961 33 32.9527 33.0233 32.9927 33.07C33.0394 33.11 33.0627 33.1667 33.0627 33.24V37.32C33.0627 37.9733 33.2127 38.46 33.5127 38.78C33.8194 39.1 34.2527 39.26 34.8127 39.26C35.3661 39.26 35.7927 39.1 36.0927 38.78C36.3994 38.4533 36.5527 37.9667 36.5527 37.32V33.24C36.5527 33.1667 36.5727 33.11 36.6127 33.07C36.6527 33.0233 36.7094 33 36.7827 33H37.2627C37.3294 33 37.3827 33.0233 37.4227 33.07C37.4694 33.11 37.4927 33.1667 37.4927 33.24V37.3C37.4927 38.24 37.2594 38.9433 36.7927 39.41C36.3327 39.87 35.6727 40.1 34.8127 40.1ZM39.4047 40C39.338 40 39.2847 39.98 39.2447 39.94C39.2047 39.8933 39.1847 39.8367 39.1847 39.77V33.24C39.1847 33.1667 39.2047 33.11 39.2447 33.07C39.2847 33.0233 39.338 33 39.4047 33H41.8447C42.6047 33 43.198 33.18 43.6247 33.54C44.058 33.8933 44.2747 34.41 44.2747 35.09C44.2747 35.5967 44.148 36.0133 43.8947 36.34C43.6414 36.6667 43.288 36.8933 42.8347 37.02L44.3747 39.69C44.3947 39.73 44.4047 39.7667 44.4047 39.8C44.4047 39.8533 44.3847 39.9 44.3447 39.94C44.3047 39.98 44.258 40 44.2047 40H43.7647C43.6647 40 43.5847 39.9767 43.5247 39.93C43.4714 39.8833 43.4214 39.8167 43.3747 39.73L41.9047 37.17H40.1247V39.77C40.1247 39.8367 40.1014 39.8933 40.0547 39.94C40.008 39.98 39.9514 40 39.8847 40H39.4047ZM41.8047 36.35C42.8114 36.35 43.3147 35.9267 43.3147 35.08C43.3147 34.2333 42.8114 33.81 41.8047 33.81H40.1247V36.35H41.8047ZM45.2477 40C45.1943 40 45.1477 39.98 45.1077 39.94C45.0677 39.9 45.0477 39.8533 45.0477 39.8L45.0677 39.69L47.5477 33.22C47.601 33.0733 47.7077 33 47.8677 33H48.5077C48.6677 33 48.7743 33.0733 48.8277 33.22L51.3077 39.69L51.3277 39.8C51.3277 39.8533 51.3043 39.9 51.2577 39.94C51.2177 39.98 51.171 40 51.1177 40H50.6477C50.581 40 50.5243 39.9833 50.4777 39.95C50.4377 39.91 50.411 39.87 50.3977 39.83L49.8377 38.39H46.5277L45.9777 39.83C45.9243 39.9433 45.841 40 45.7277 40H45.2477ZM46.8177 37.56H49.5577L48.1877 33.97L46.8177 37.56ZM52.6273 40C52.5607 40 52.5073 39.98 52.4673 39.94C52.4273 39.8933 52.4073 39.8367 52.4073 39.77V33.24C52.4073 33.1667 52.4273 33.11 52.4673 33.07C52.5073 33.0233 52.5607 33 52.6273 33H53.0673C53.134 33 53.184 33.0133 53.2173 33.04C53.2507 33.0667 53.284 33.1 53.3173 33.14L56.6673 38.3V33.24C56.6673 33.1667 56.6873 33.11 56.7273 33.07C56.774 33.0233 56.8307 33 56.8973 33H57.3473C57.4207 33 57.4773 33.0233 57.5173 33.07C57.564 33.11 57.5873 33.1667 57.5873 33.24V39.76C57.5873 39.8267 57.564 39.8833 57.5173 39.93C57.4773 39.9767 57.424 40 57.3573 40H56.9073C56.794 40 56.714 39.9533 56.6673 39.86L53.3173 34.75V39.77C53.3173 39.8367 53.294 39.8933 53.2473 39.94C53.2073 39.98 53.154 40 53.0873 40H52.6273ZM61.1009 40C61.0343 40 60.9776 39.98 60.9309 39.94C60.8909 39.8933 60.8709 39.8367 60.8709 39.77V33.86H58.9409C58.8743 33.86 58.8176 33.84 58.7709 33.8C58.7309 33.7533 58.7109 33.6967 58.7109 33.63V33.24C58.7109 33.1667 58.7309 33.11 58.7709 33.07C58.8176 33.0233 58.8743 33 58.9409 33H63.7409C63.8143 33 63.8709 33.0233 63.9109 33.07C63.9509 33.11 63.9709 33.1667 63.9709 33.24V33.63C63.9709 33.6967 63.9476 33.7533 63.9009 33.8C63.8609 33.84 63.8076 33.86 63.7409 33.86H61.8209V39.77C61.8209 39.8367 61.7976 39.8933 61.7509 39.94C61.7043 39.98 61.6476 40 61.5809 40H61.1009Z" fill="white"/>
<path d="M107.799 40C107.733 40 107.679 39.98 107.639 39.94C107.599 39.8933 107.579 39.8367 107.579 39.77V33.24C107.579 33.1667 107.599 33.11 107.639 33.07C107.679 33.0233 107.733 33 107.799 33H108.269C108.343 33 108.399 33.0233 108.439 33.07C108.486 33.11 108.509 33.1667 108.509 33.24V35.73L111.219 33.16C111.326 33.0533 111.456 33 111.609 33H112.109C112.163 33 112.209 33.02 112.249 33.06C112.289 33.1 112.309 33.1467 112.309 33.2C112.309 33.2533 112.293 33.2967 112.259 33.33L109.139 36.35L112.469 39.66C112.503 39.7 112.519 39.7467 112.519 39.8C112.519 39.8533 112.499 39.9 112.459 39.94C112.419 39.98 112.373 40 112.319 40H111.799C111.706 40 111.633 39.9867 111.579 39.96C111.526 39.9267 111.469 39.8867 111.409 39.84L108.509 37.01V39.77C108.509 39.8367 108.486 39.8933 108.439 39.94C108.393 39.98 108.336 40 108.269 40H107.799ZM113.076 40C113.022 40 112.976 39.98 112.936 39.94C112.896 39.9 112.876 39.8533 112.876 39.8L112.896 39.69L115.376 33.22C115.429 33.0733 115.536 33 115.696 33H116.336C116.496 33 116.602 33.0733 116.656 33.22L119.136 39.69L119.156 39.8C119.156 39.8533 119.132 39.9 119.086 39.94C119.046 39.98 118.999 40 118.946 40H118.476C118.409 40 118.352 39.9833 118.306 39.95C118.266 39.91 118.239 39.87 118.226 39.83L117.666 38.39H114.356L113.806 39.83C113.752 39.9433 113.669 40 113.556 40H113.076ZM114.646 37.56H117.386L116.016 33.97L114.646 37.56ZM120.455 40C120.389 40 120.335 39.98 120.295 39.94C120.255 39.8933 120.235 39.8367 120.235 39.77V33.24C120.235 33.1667 120.255 33.11 120.295 33.07C120.335 33.0233 120.389 33 120.455 33H122.895C123.655 33 124.249 33.18 124.675 33.54C125.109 33.8933 125.325 34.41 125.325 35.09C125.325 35.5967 125.199 36.0133 124.945 36.34C124.692 36.6667 124.339 36.8933 123.885 37.02L125.425 39.69C125.445 39.73 125.455 39.7667 125.455 39.8C125.455 39.8533 125.435 39.9 125.395 39.94C125.355 39.98 125.309 40 125.255 40H124.815C124.715 40 124.635 39.9767 124.575 39.93C124.522 39.8833 124.472 39.8167 124.425 39.73L122.955 37.17H121.175V39.77C121.175 39.8367 121.152 39.8933 121.105 39.94C121.059 39.98 121.002 40 120.935 40H120.455ZM122.855 36.35C123.862 36.35 124.365 35.9267 124.365 35.08C124.365 34.2333 123.862 33.81 122.855 33.81H121.175V36.35H122.855ZM126.298 40C126.245 40 126.198 39.98 126.158 39.94C126.118 39.9 126.098 39.8533 126.098 39.8L126.118 39.69L128.598 33.22C128.652 33.0733 128.758 33 128.918 33H129.558C129.718 33 129.825 33.0733 129.878 33.22L132.358 39.69L132.378 39.8C132.378 39.8533 132.355 39.9 132.308 39.94C132.268 39.98 132.222 40 132.168 40H131.698C131.632 40 131.575 39.9833 131.528 39.95C131.488 39.91 131.462 39.87 131.448 39.83L130.888 38.39H127.578L127.028 39.83C126.975 39.9433 126.892 40 126.778 40H126.298ZM127.868 37.56H130.608L129.238 33.97L127.868 37.56ZM135.831 40.1C134.965 40.1 134.295 39.8733 133.821 39.42C133.348 38.96 133.098 38.27 133.071 37.35C133.065 37.15 133.061 36.8667 133.061 36.5C133.061 36.1333 133.065 35.8533 133.071 35.66C133.098 34.7533 133.355 34.0667 133.841 33.6C134.335 33.1333 134.998 32.9 135.831 32.9C136.665 32.9 137.325 33.1333 137.811 33.6C138.298 34.0667 138.555 34.7533 138.581 35.66C138.595 36.0467 138.601 36.3267 138.601 36.5C138.601 36.6667 138.595 36.95 138.581 37.35C138.555 38.27 138.305 38.96 137.831 39.42C137.365 39.8733 136.698 40.1 135.831 40.1ZM135.831 39.27C136.365 39.27 136.791 39.11 137.111 38.79C137.431 38.4633 137.605 37.9667 137.631 37.3C137.645 36.9 137.651 36.6333 137.651 36.5C137.651 36.3533 137.645 36.0867 137.631 35.7C137.605 35.0333 137.431 34.5367 137.111 34.21C136.791 33.8833 136.365 33.72 135.831 33.72C135.298 33.72 134.868 33.8833 134.541 34.21C134.221 34.5367 134.051 35.0333 134.031 35.7C134.025 35.8933 134.021 36.16 134.021 36.5C134.021 36.8333 134.025 37.1 134.031 37.3C134.051 37.9667 134.221 38.4633 134.541 38.79C134.861 39.11 135.291 39.27 135.831 39.27ZM140.299 40C140.233 40 140.179 39.98 140.139 39.94C140.099 39.8933 140.079 39.8367 140.079 39.77V33.24C140.079 33.1667 140.099 33.11 140.139 33.07C140.179 33.0233 140.233 33 140.299 33H140.769C140.843 33 140.899 33.0233 140.939 33.07C140.986 33.11 141.009 33.1667 141.009 33.24V35.73L143.719 33.16C143.826 33.0533 143.956 33 144.109 33H144.609C144.663 33 144.709 33.02 144.749 33.06C144.789 33.1 144.809 33.1467 144.809 33.2C144.809 33.2533 144.793 33.2967 144.759 33.33L141.639 36.35L144.969 39.66C145.003 39.7 145.019 39.7467 145.019 39.8C145.019 39.8533 144.999 39.9 144.959 39.94C144.919 39.98 144.873 40 144.819 40H144.299C144.206 40 144.133 39.9867 144.079 39.96C144.026 39.9267 143.969 39.8867 143.909 39.84L141.009 37.01V39.77C141.009 39.8367 140.986 39.8933 140.939 39.94C140.893 39.98 140.836 40 140.769 40H140.299ZM146.276 40C146.209 40 146.156 39.98 146.116 39.94C146.076 39.8933 146.056 39.8367 146.056 39.77V33.24C146.056 33.1667 146.076 33.11 146.116 33.07C146.156 33.0233 146.209 33 146.276 33H150.386C150.459 33 150.516 33.0233 150.556 33.07C150.602 33.11 150.626 33.1667 150.626 33.24V33.6C150.626 33.6667 150.602 33.72 150.556 33.76C150.516 33.8 150.459 33.82 150.386 33.82H146.976V36.05H150.166C150.239 36.05 150.296 36.0733 150.336 36.12C150.382 36.16 150.406 36.2167 150.406 36.29V36.63C150.406 36.6967 150.382 36.7533 150.336 36.8C150.296 36.84 150.239 36.86 150.166 36.86H146.976V39.17H150.466C150.539 39.17 150.596 39.1933 150.636 39.24C150.682 39.28 150.706 39.3367 150.706 39.41V39.77C150.706 39.8367 150.682 39.8933 150.636 39.94C150.589 39.98 150.532 40 150.466 40H146.276ZM151.994 37.4C151.928 37.4 151.871 37.38 151.824 37.34C151.784 37.3 151.764 37.2467 151.764 37.18V36.82C151.764 36.7533 151.784 36.7 151.824 36.66C151.871 36.6133 151.928 36.59 151.994 36.59H154.994C155.061 36.59 155.114 36.6133 155.154 36.66C155.201 36.7 155.224 36.7533 155.224 36.82V37.18C155.224 37.2467 155.201 37.3 155.154 37.34C155.114 37.38 155.061 37.4 154.994 37.4H151.994ZM156.94 40C156.873 40 156.82 39.98 156.78 39.94C156.74 39.8933 156.72 39.8367 156.72 39.77V33.24C156.72 33.1667 156.74 33.11 156.78 33.07C156.82 33.0233 156.873 33 156.94 33H159.38C160.14 33 160.733 33.18 161.16 33.54C161.593 33.8933 161.81 34.41 161.81 35.09C161.81 35.5967 161.683 36.0133 161.43 36.34C161.177 36.6667 160.823 36.8933 160.37 37.02L161.91 39.69C161.93 39.73 161.94 39.7667 161.94 39.8C161.94 39.8533 161.92 39.9 161.88 39.94C161.84 39.98 161.793 40 161.74 40H161.3C161.2 40 161.12 39.9767 161.06 39.93C161.007 39.8833 160.957 39.8167 160.91 39.73L159.44 37.17H157.66V39.77C157.66 39.8367 157.637 39.8933 157.59 39.94C157.543 39.98 157.487 40 157.42 40H156.94ZM159.34 36.35C160.347 36.35 160.85 35.9267 160.85 35.08C160.85 34.2333 160.347 33.81 159.34 33.81H157.66V36.35H159.34ZM165.753 40.1C164.886 40.1 164.216 39.8733 163.743 39.42C163.27 38.96 163.02 38.27 162.993 37.35C162.986 37.15 162.983 36.8667 162.983 36.5C162.983 36.1333 162.986 35.8533 162.993 35.66C163.02 34.7533 163.276 34.0667 163.763 33.6C164.256 33.1333 164.92 32.9 165.753 32.9C166.586 32.9 167.246 33.1333 167.733 33.6C168.22 34.0667 168.476 34.7533 168.503 35.66C168.516 36.0467 168.523 36.3267 168.523 36.5C168.523 36.6667 168.516 36.95 168.503 37.35C168.476 38.27 168.226 38.96 167.753 39.42C167.286 39.8733 166.62 40.1 165.753 40.1ZM165.753 39.27C166.286 39.27 166.713 39.11 167.033 38.79C167.353 38.4633 167.526 37.9667 167.553 37.3C167.566 36.9 167.573 36.6333 167.573 36.5C167.573 36.3533 167.566 36.0867 167.553 35.7C167.526 35.0333 167.353 34.5367 167.033 34.21C166.713 33.8833 166.286 33.72 165.753 33.72C165.22 33.72 164.79 33.8833 164.463 34.21C164.143 34.5367 163.973 35.0333 163.953 35.7C163.946 35.8933 163.943 36.16 163.943 36.5C163.943 36.8333 163.946 37.1 163.953 37.3C163.973 37.9667 164.143 38.4633 164.463 38.79C164.783 39.11 165.213 39.27 165.753 39.27ZM172.501 40.1C171.634 40.1 170.964 39.8733 170.491 39.42C170.018 38.96 169.768 38.27 169.741 37.35C169.734 37.15 169.731 36.8667 169.731 36.5C169.731 36.1333 169.734 35.8533 169.741 35.66C169.768 34.7533 170.024 34.0667 170.511 33.6C171.004 33.1333 171.668 32.9 172.501 32.9C173.334 32.9 173.994 33.1333 174.481 33.6C174.968 34.0667 175.224 34.7533 175.251 35.66C175.264 36.0467 175.271 36.3267 175.271 36.5C175.271 36.6667 175.264 36.95 175.251 37.35C175.224 38.27 174.974 38.96 174.501 39.42C174.034 39.8733 173.368 40.1 172.501 40.1ZM172.501 39.27C173.034 39.27 173.461 39.11 173.781 38.79C174.101 38.4633 174.274 37.9667 174.301 37.3C174.314 36.9 174.321 36.6333 174.321 36.5C174.321 36.3533 174.314 36.0867 174.301 35.7C174.274 35.0333 174.101 34.5367 173.781 34.21C173.461 33.8833 173.034 33.72 172.501 33.72C171.968 33.72 171.538 33.8833 171.211 34.21C170.891 34.5367 170.721 35.0333 170.701 35.7C170.694 35.8933 170.691 36.16 170.691 36.5C170.691 36.8333 170.694 37.1 170.701 37.3C170.721 37.9667 170.891 38.4633 171.211 38.79C171.531 39.11 171.961 39.27 172.501 39.27ZM176.979 40C176.912 40 176.856 39.98 176.809 39.94C176.769 39.8933 176.749 39.8367 176.749 39.77V33.24C176.749 33.1667 176.769 33.11 176.809 33.07C176.849 33.0233 176.906 33 176.979 33H177.449C177.569 33 177.652 33.05 177.699 33.15L179.829 37.24L181.979 33.15C182.032 33.05 182.112 33 182.219 33H182.689C182.762 33 182.819 33.0233 182.859 33.07C182.899 33.11 182.919 33.1667 182.919 33.24V39.77C182.919 39.8367 182.896 39.8933 182.849 39.94C182.809 39.98 182.756 40 182.689 40H182.229C182.162 40 182.109 39.98 182.069 39.94C182.029 39.8933 182.009 39.8367 182.009 39.77V34.8L180.299 38.11C180.232 38.25 180.126 38.32 179.979 38.32H179.679C179.539 38.32 179.432 38.25 179.359 38.11L177.659 34.8V39.77C177.659 39.8367 177.636 39.8933 177.589 39.94C177.549 39.98 177.496 40 177.429 40H176.979ZM186.909 40.1C186.362 40.1 185.885 40.0133 185.479 39.84C185.079 39.6667 184.772 39.44 184.559 39.16C184.352 38.8733 184.242 38.5667 184.229 38.24C184.229 38.1867 184.249 38.14 184.289 38.1C184.329 38.06 184.379 38.04 184.439 38.04H184.929C185.049 38.04 185.132 38.1067 185.179 38.24C185.239 38.52 185.409 38.7633 185.689 38.97C185.975 39.17 186.382 39.27 186.909 39.27C187.475 39.27 187.899 39.17 188.179 38.97C188.459 38.77 188.599 38.4933 188.599 38.14C188.599 37.9133 188.529 37.7267 188.389 37.58C188.255 37.4333 188.052 37.3067 187.779 37.2C187.512 37.0867 187.109 36.95 186.569 36.79C186.055 36.6433 185.645 36.4867 185.339 36.32C185.039 36.1533 184.812 35.95 184.659 35.71C184.505 35.4633 184.429 35.1533 184.429 34.78C184.429 34.42 184.525 34.1 184.719 33.82C184.912 33.5333 185.192 33.31 185.559 33.15C185.925 32.9833 186.359 32.9 186.859 32.9C187.379 32.9 187.822 32.9933 188.189 33.18C188.562 33.36 188.845 33.59 189.039 33.87C189.232 34.1433 189.335 34.42 189.349 34.7C189.349 34.76 189.329 34.81 189.289 34.85C189.249 34.89 189.199 34.91 189.139 34.91H188.639C188.585 34.91 188.535 34.8933 188.489 34.86C188.442 34.8267 188.409 34.7767 188.389 34.71C188.349 34.4233 188.189 34.1867 187.909 34C187.629 33.8133 187.279 33.72 186.859 33.72C186.405 33.72 186.045 33.81 185.779 33.99C185.512 34.1633 185.379 34.4233 185.379 34.77C185.379 35.0033 185.439 35.1933 185.559 35.34C185.685 35.4867 185.875 35.6167 186.129 35.73C186.389 35.8433 186.765 35.9733 187.259 36.12C187.825 36.28 188.269 36.44 188.589 36.6C188.915 36.76 189.159 36.96 189.319 37.2C189.479 37.4333 189.559 37.7367 189.559 38.11C189.559 38.7367 189.319 39.2267 188.839 39.58C188.365 39.9267 187.722 40.1 186.909 40.1Z" fill="white"/>
</svg>
