<svg width="184" height="92" viewBox="0 0 184 92" fill="none" xmlns="http://www.w3.org/2000/svg">
<g clip-path="url(#clip0)">
<path d="M83.4727 33.2826H99.3265L98.2393 30.6375L94.8641 27.3596C94.8641 27.3596 92.5274 25.0554 92.4787 25.169C92.43 25.2826 89.6065 26.8404 89.6065 26.8404L86.0528 28.5118L84.495 30.5077L83.4727 33.2826Z" fill="#FF0000"/>
<path d="M126.946 34.044H123.862C118.718 21.549 106.418 12.7377 92.0572 12.7377C77.6961 12.7377 65.3959 21.549 60.2519 34.044H57.2012C62.4912 19.9263 76.1221 9.86547 92.0896 9.86547C108.057 9.86547 121.656 19.9263 126.946 34.044Z" fill="white"/>
<path d="M127.594 58.4328C122.871 73.5565 108.738 84.5423 92.0561 84.5423C75.3745 84.5423 61.2407 73.5565 56.5186 58.4328H59.5368C64.1616 71.95 76.981 81.6701 92.0723 81.6701C107.164 81.6701 119.983 71.95 124.608 58.4328H127.594Z" fill="white"/>
<path d="M84.0898 69.4838H81.7207V77.7272H84.0898V69.4838Z" fill="#FF0000" stroke="#FF0000" stroke-miterlimit="10"/>
<path d="M75.1319 69.4838H72.7627V73.638H75.1319V69.4838Z" fill="#FF0000" stroke="#FF0000" stroke-miterlimit="10"/>
<path d="M93.1934 69.4838H90.8242V78.6684H93.1934V69.4838Z" fill="#FF0000" stroke="#FF0000" stroke-miterlimit="10"/>
<path d="M102.135 69.4838H99.7656V78.4575H102.135V69.4838Z" fill="#FF0000" stroke="#FF0000" stroke-miterlimit="10"/>
<path d="M110.75 69.4838H108.381V74.3682H110.75V69.4838Z" fill="#FF0000" stroke="#FF0000" stroke-miterlimit="10"/>
<path d="M92.058 14.0034C92.0418 14.0034 92.0418 14.0034 92.0256 14.0034C92.0094 14.0034 92.0094 14.0034 91.9931 14.0034C78.3136 14.0034 66.5327 22.2468 61.3887 34.044H64.342C64.4556 33.8006 64.5854 33.5572 64.699 33.3137H86.3298L85.5834 31.691C85.5834 31.691 85.5834 30.7985 85.7619 31.0419C86.2325 31.691 87.0601 32.0967 87.9363 32.5024C88.8126 32.9081 88.8775 32.3726 88.8775 32.3726C88.8775 32.3726 88.0012 31.6261 87.7903 30.6849C87.5793 29.7438 88.3582 28.6403 88.4232 28.8675C88.5205 29.2407 89.0722 30.3442 89.6726 30.6849C90.2731 31.0257 90.7761 30.7336 91.4576 29.906C92.5124 28.6241 91.9607 26.6282 91.9607 26.6282C91.9607 26.6282 92.415 26.7904 93.0479 27.3908C93.6808 27.9912 93.4374 28.9162 93.0479 29.906C92.6585 30.8797 93.0317 30.9608 94.054 30.8148C95.0601 30.6849 96.0175 29.906 96.0175 29.906C96.0175 29.906 95.9526 30.2793 95.7416 30.8797C95.5469 31.4801 94.4597 32.7783 94.9952 32.6322C95.5307 32.5024 97.0885 31.4152 97.0885 31.4152C97.0885 31.4152 97.4292 32.0156 97.0885 32.762C97.0073 32.9243 96.9262 33.119 96.8288 33.2975H119.336C119.466 33.5409 119.579 33.8006 119.709 34.044H122.646C117.518 22.2468 105.754 14.0034 92.058 14.0034ZM101.097 31.691C101.535 31.1555 102.038 30.2955 101.924 29.2894C101.729 27.5693 100.918 27.5044 100.918 27.5044C100.918 27.5044 100.853 29.1271 100.237 29.2894C99.6361 29.4517 98.7436 29.2894 98.7436 29.2894C98.7436 29.2894 99.3441 28.8513 99.6199 28.3807C99.8958 27.9101 99.8146 27.0338 99.8146 27.0338L98.9384 27.5044C98.9384 27.5044 99.4739 26.6931 99.0682 25.4111C98.6625 24.1292 97.7862 23.0419 97.7862 23.0419C97.7862 23.0419 97.7213 24.5998 97.3806 25.33C97.0398 26.0764 95.482 26.4821 95.482 26.4821C95.482 26.4821 95.6118 24.259 94.6057 22.1657C93.5996 20.0724 90.5489 18.3198 90.5489 18.3198C90.5489 18.3198 91.2305 21.5004 90.8248 22.8472C90.4191 24.1941 90.0783 25.6221 89.3319 26.2225C88.5854 26.8229 87.7741 26.8229 87.4333 25.687C87.0925 24.5348 87.3035 22.5876 87.3035 22.5876C87.3035 22.5876 85.34 23.5937 84.5286 25.33C83.7173 27.0663 83.7173 29.9223 83.7173 29.9223C83.7173 29.9223 82.9708 29.2083 82.5651 28.7377C82.1595 28.2671 81.7538 27.3259 81.7538 27.3259C81.7538 27.3259 81.624 29.2245 81.4779 30.2955C81.413 30.831 81.6402 31.3503 81.8998 31.7073H65.624C70.9789 22.6849 80.8126 16.6484 92.058 16.6484C103.303 16.6484 113.137 22.6849 118.492 31.7073L101.097 31.691Z" fill="white"/>
<path d="M123.538 58.4328C119.108 71.1062 107.262 80.2745 93.1931 80.7614H92.9172C92.7225 80.7776 92.5116 80.7776 92.3006 80.7776H92.0734C92.0572 80.7776 92.0572 80.7776 92.041 80.7776H92.0247C92.0085 80.7776 92.0085 80.7776 91.9923 80.7776C91.9761 80.7776 91.9761 80.7776 91.9598 80.7776C77.3878 80.7776 64.9903 71.447 60.4629 58.4328H63.3026C63.7083 59.4713 64.1627 60.4936 64.6657 61.4835L65.5095 63.0737C67.3594 66.2218 69.7773 68.9967 72.6008 71.2847C72.682 71.2522 75.1485 73.0048 75.1485 73.0048C77.1931 74.3516 79.3838 75.4713 81.7205 76.2989L84.0897 77.0453C86.2479 77.6295 88.5197 77.9703 90.8402 78.0677H93.2093C95.4811 77.9865 97.6718 77.662 99.7813 77.1102L102.15 76.38C102.929 76.1042 103.708 75.8121 104.471 75.4713C104.52 75.4551 104.585 75.4226 104.633 75.4064C104.731 75.3577 104.812 75.3253 104.909 75.2766C106.11 74.7086 107.278 74.0758 108.398 73.3618L110.767 71.6904C113.818 69.3212 116.398 66.4003 118.378 63.0737L119.286 61.4672C119.789 60.4936 120.244 59.4713 120.649 58.4328H123.538Z" fill="white"/>
<path d="M166.425 59.1636H15.9507C9.42738 59.1636 4.12109 53.8574 4.12109 47.334V45.1434C4.12109 38.62 9.42738 33.3138 15.9507 33.3138H166.425C172.949 33.3138 178.255 38.62 178.255 45.1434V47.334C178.271 50.4821 177.038 53.4517 174.815 55.691C172.575 57.9304 169.59 59.1636 166.425 59.1636ZM15.9507 34.7742C10.2387 34.7742 5.58154 39.4314 5.58154 45.1434V47.334C5.58154 53.046 10.2387 57.7032 15.9507 57.7032H166.425C169.2 57.7032 171.813 56.616 173.776 54.6525C175.724 52.689 176.795 50.0927 176.795 47.334V45.1434C176.795 39.4314 172.137 34.7742 166.425 34.7742H15.9507Z" fill="white"/>
<path d="M14.9453 54.1177V39.0264H17.996V45.7282L24.1461 39.0264H28.2354L22.5559 44.9006L28.5437 54.1177H24.6005L20.4463 47.0426L17.9798 49.5578V54.1177H14.9453Z" fill="white"/>
<path d="M30.1182 54.1177V39.0264H41.2987V41.574H33.1526V44.9168H40.7307V47.4645H33.1526V51.57H41.5746V54.1177H30.1182Z" fill="white"/>
<path d="M44.1875 39.0264H50.224C51.4248 39.0264 52.3011 39.0751 52.9015 39.1724C53.4857 39.2698 54.0212 39.4807 54.4755 39.789C54.9461 40.0974 55.3193 40.5193 55.6277 41.0548C55.936 41.574 56.0983 42.1744 56.0983 42.8235C56.0983 43.5375 55.9035 44.1866 55.5303 44.7708C55.1571 45.355 54.6378 45.8093 53.9887 46.1014C54.9137 46.3611 55.6114 46.8316 56.1145 47.4645C56.6175 48.0974 56.8609 48.86 56.8609 49.7363C56.8609 50.4178 56.6987 51.0832 56.3903 51.7322C56.0658 52.3813 55.6277 52.9006 55.0759 53.2901C54.5242 53.6795 53.8427 53.9229 53.0313 54.0041C52.5283 54.0527 51.295 54.0852 49.364 54.1014H44.2362V39.0264H44.1875ZM47.2382 41.5254V45.0142H49.2342C50.4187 45.0142 51.1652 44.998 51.4411 44.9655C51.9603 44.9006 52.366 44.7221 52.6743 44.43C52.9826 44.1379 53.1287 43.7323 53.1287 43.2454C53.1287 42.7748 52.9989 42.4016 52.7392 42.1095C52.4796 41.8174 52.1064 41.6389 51.5871 41.574C51.2788 41.5416 50.4187 41.5254 48.9907 41.5254H47.2382ZM47.2382 47.5294V51.57H50.0617C51.1652 51.57 51.863 51.5375 52.155 51.4726C52.6094 51.3915 52.9826 51.1968 53.2585 50.8722C53.5506 50.5477 53.6804 50.1258 53.6804 49.5903C53.6804 49.1359 53.5668 48.7464 53.3559 48.4381C53.1287 48.1298 52.8204 47.8864 52.3985 47.7404C51.9765 47.5943 51.0841 47.5294 49.7047 47.5294H47.2382Z" fill="white"/>
<path d="M73.0062 54.1177H69.6958L68.3814 50.6937H62.3449L61.0954 54.1177H57.8662L63.7404 39.0264H66.9697L73.0062 54.1177ZM67.3916 48.146L65.3145 42.5477L63.2861 48.146H67.3916Z" fill="white"/>
<path d="M74.6299 39.0264H80.6664C81.8672 39.0264 82.7435 39.0751 83.3439 39.1724C83.928 39.2698 84.4635 39.4807 84.9179 39.789C85.3885 40.0974 85.7617 40.5193 86.07 41.0548C86.3783 41.574 86.5406 42.1744 86.5406 42.8235C86.5406 43.5375 86.3459 44.1866 85.9727 44.7708C85.5994 45.355 85.0802 45.8093 84.4311 46.1014C85.356 46.3611 86.0538 46.8316 86.5568 47.4645C87.0599 48.0974 87.3033 48.86 87.3033 49.7363C87.3033 50.4178 87.141 51.0832 86.8327 51.7322C86.5081 52.3813 86.07 52.9006 85.5183 53.2901C84.9666 53.6795 84.285 53.9229 83.4737 54.0041C82.9706 54.0527 81.7374 54.0852 79.8063 54.1014H74.6786V39.0264H74.6299ZM77.6806 41.5254V45.0142H79.6765C80.8611 45.0142 81.6076 44.998 81.8834 44.9655C82.4027 44.9006 82.8084 44.7221 83.1167 44.43C83.425 44.1379 83.571 43.7323 83.571 43.2454C83.571 42.7748 83.4412 42.4016 83.1816 42.1095C82.922 41.8174 82.5487 41.6389 82.0295 41.574C81.7211 41.5416 80.8611 41.5254 79.4331 41.5254H77.6806ZM77.6806 47.5294V51.57H80.5041C81.6076 51.57 82.3053 51.5375 82.5974 51.4726C83.0518 51.3915 83.425 51.1968 83.7009 50.8722C83.9929 50.5477 84.1228 50.1258 84.1228 49.5903C84.1228 49.1359 84.0092 48.7464 83.7982 48.4381C83.571 48.1298 83.2627 47.8864 82.8408 47.7404C82.4189 47.5943 81.5264 47.5294 80.1471 47.5294H77.6806Z" fill="white"/>
<path d="M95.709 54.1177V39.0264H98.7597V44.9655H104.731V39.0264H107.782V54.1177H104.731V47.5132H98.7597V54.1177H95.709Z" fill="white"/>
<path d="M110.313 46.6528C110.313 45.1112 110.541 43.8293 111.011 42.7907C111.352 42.0281 111.823 41.3303 112.423 40.7299C113.023 40.1133 113.673 39.6589 114.37 39.3668C115.311 38.9611 116.399 38.7664 117.616 38.7664C119.839 38.7664 121.624 39.4479 122.954 40.8273C124.285 42.2066 124.95 44.1214 124.95 46.5879C124.95 49.022 124.285 50.9368 122.971 52.2999C121.64 53.6792 119.871 54.3607 117.664 54.3607C115.425 54.3607 113.64 53.6792 112.309 52.2999C110.979 50.9368 110.313 49.0544 110.313 46.6528ZM113.445 46.5554C113.445 48.2593 113.835 49.5575 114.63 50.4337C115.425 51.31 116.415 51.7644 117.632 51.7644C118.849 51.7644 119.839 51.3262 120.618 50.45C121.397 49.5737 121.786 48.2593 121.786 46.5068C121.786 44.7705 121.413 43.4885 120.65 42.6447C119.888 41.8009 118.881 41.3628 117.632 41.3628C116.382 41.3628 115.36 41.8009 114.597 42.6609C113.835 43.521 113.445 44.8191 113.445 46.5554Z" fill="white"/>
<path d="M127.302 39.0264H130.352V47.2049C130.352 48.503 130.385 49.3469 130.466 49.7201C130.596 50.3367 130.904 50.8398 131.391 51.213C131.878 51.5862 132.559 51.7809 133.403 51.7809C134.263 51.7809 134.912 51.6024 135.367 51.2454C135.805 50.8884 136.064 50.4503 136.162 49.9473C136.243 49.428 136.292 48.5842 136.292 47.3834V39.0426H139.342V46.9615C139.342 48.7789 139.261 50.0446 139.099 50.8073C138.937 51.5538 138.628 52.1866 138.19 52.7059C137.752 53.2252 137.152 53.6308 136.421 53.9391C135.675 54.2475 134.718 54.3935 133.517 54.3935C132.073 54.3935 130.985 54.2312 130.239 53.8905C129.492 53.5497 128.908 53.1278 128.47 52.5923C128.032 52.0568 127.756 51.5051 127.61 50.9209C127.415 50.0609 127.318 48.7789 127.318 47.0913L127.302 39.0264Z" fill="white"/>
<path d="M141.777 49.2005L144.747 48.9084C144.925 49.8982 145.282 50.6285 145.834 51.0991C146.386 51.5696 147.116 51.7968 148.041 51.7968C149.015 51.7968 149.761 51.5859 150.264 51.1802C150.767 50.7583 151.011 50.2877 151.011 49.7197C151.011 49.3628 150.913 49.0544 150.702 48.811C150.491 48.5676 150.134 48.3404 149.599 48.1619C149.242 48.0321 148.43 47.8212 147.165 47.4966C145.526 47.0909 144.39 46.5879 143.725 46.0037C142.8 45.1761 142.329 44.1538 142.329 42.9692C142.329 42.2066 142.54 41.4763 142.978 40.811C143.416 40.1457 144.049 39.6264 144.861 39.2857C145.688 38.9287 146.678 38.7664 147.83 38.7664C149.729 38.7664 151.157 39.1883 152.114 40.0159C153.071 40.8435 153.574 41.9469 153.623 43.3425L150.572 43.4723C150.443 42.6934 150.167 42.1417 149.729 41.8009C149.307 41.4601 148.658 41.2978 147.798 41.2978C146.905 41.2978 146.224 41.4763 145.721 41.8496C145.396 42.0767 145.234 42.4013 145.234 42.7907C145.234 43.1477 145.38 43.4561 145.688 43.6995C146.078 44.024 147.002 44.3648 148.495 44.7056C149.972 45.0625 151.076 45.4195 151.79 45.7928C152.504 46.166 153.055 46.6853 153.461 47.3344C153.867 47.9834 154.061 48.7786 154.061 49.736C154.061 50.596 153.818 51.4074 153.347 52.1701C152.86 52.9327 152.195 53.4845 151.303 53.8577C150.426 54.2309 149.323 54.4094 148.025 54.4094C146.11 54.4094 144.65 53.9713 143.627 53.0788C142.589 52.1701 141.972 50.8881 141.777 49.2005Z" fill="white"/>
<path d="M156.608 54.1177V39.0264H167.789V41.574H159.643V44.9168H167.221V47.4645H159.643V51.57H168.065V54.1177H156.608Z" fill="white"/>
<path d="M77.0301 64.7299C76.8354 64.5838 76.6082 64.5189 76.3161 64.5189C76.0403 64.5189 75.7482 64.5838 75.4074 64.7137C75.2451 64.7786 75.0829 64.8759 74.9206 64.9733C74.7421 65.0707 74.5636 65.2005 74.3851 65.3627L74.3689 65.4926L74.45 65.6224L74.5798 65.6711C74.9206 65.4277 75.1964 65.2492 75.4074 65.1843C75.6184 65.0869 75.8131 65.0382 75.9916 65.0382C76.1701 65.0382 76.3161 65.0869 76.4135 65.168C76.5108 65.2329 76.5758 65.3465 76.5758 65.4763C76.5758 65.7197 76.4297 65.9307 76.1376 66.1254C75.8293 66.3039 75.4723 66.4175 75.0504 66.4175C74.6772 66.4175 74.3851 66.3526 74.1579 66.1903C73.9632 66.0281 73.8496 65.8333 73.8496 65.5899C73.8496 65.168 74.093 64.7948 74.5636 64.4378C75.0342 64.0808 75.667 63.8699 76.4459 63.7725L76.5595 63.7076V63.4642L76.4784 63.3506C76.2188 63.3019 76.0403 63.2532 75.9267 63.2045L75.7969 63.1396C76.4297 62.9449 76.8841 62.7339 77.1599 62.5392C77.5494 62.2796 77.7441 62.0037 77.7441 61.7441C77.7441 61.5169 77.663 61.3384 77.4845 61.241C77.306 61.1437 77.0626 61.0788 76.7867 61.0788C76.6731 61.0788 76.5433 61.095 76.3973 61.1112C76.2512 61.1275 76.1214 61.1599 76.0078 61.1761C75.7157 61.241 75.5048 61.3384 75.3425 61.4358C75.0342 61.6143 74.8232 61.7765 74.7096 61.9226C74.5636 62.1011 74.5149 62.2958 74.5149 62.5068C74.5149 62.6528 74.5474 62.7826 74.5798 62.8962L74.661 63.0423C74.5798 63.0585 74.4824 63.0909 74.3689 63.1072C74.2553 63.1234 74.1741 63.1396 74.0768 63.1559C73.8334 63.1883 73.6062 63.2208 73.379 63.2208C72.8922 63.2208 72.519 63.1559 72.2756 63.0098C72.0321 62.8638 71.9023 62.669 71.9023 62.4256C71.9023 62.1498 72.0159 61.9388 72.2431 61.7765C72.4703 61.6143 72.7948 61.5494 73.2167 61.5494C73.3141 61.5494 73.4277 61.5494 73.5413 61.5656C73.6549 61.5818 73.7685 61.598 73.882 61.6143C73.9956 61.6305 74.1092 61.6467 74.2228 61.6792C74.3202 61.7116 74.4662 61.7441 74.6447 61.7603L74.8232 61.7116L74.8719 61.5331L74.807 61.4195C74.6123 61.3546 74.45 61.3384 74.3202 61.306C74.1904 61.2735 74.0443 61.241 73.8983 61.241C73.6549 61.1924 73.3952 61.1761 73.1194 61.1761C72.5514 61.1761 72.0808 61.2897 71.7076 61.5007C71.3181 61.7441 71.1396 62.0362 71.1396 62.4094C71.1396 62.7989 71.3344 63.1072 71.7401 63.3344C72.1295 63.5453 72.6488 63.6427 73.2979 63.6427C73.4439 63.6427 73.5737 63.6427 73.7198 63.6264C73.8496 63.6102 73.9956 63.594 74.1417 63.5778C74.2715 63.5615 74.4338 63.5291 74.596 63.4966C74.7745 63.4642 74.9044 63.4317 75.0179 63.4155C75.0991 63.4804 75.164 63.4966 75.164 63.4966C75.2289 63.5291 75.2938 63.5615 75.3749 63.5615C74.7259 63.7076 74.2228 63.9185 73.8009 64.2106C73.5088 64.4053 73.3141 64.6163 73.168 64.8273C73.0382 65.0382 72.9733 65.2816 72.9733 65.525C72.9733 65.9145 73.1518 66.2228 73.4926 66.4662C73.8334 66.7096 74.2715 66.8232 74.8232 66.8232C75.0017 66.8232 75.1802 66.807 75.3263 66.7745C75.4885 66.7421 75.6346 66.7096 75.8131 66.6609C76.1214 66.5636 76.4135 66.4337 76.6894 66.239C76.9003 66.1092 77.0626 65.9469 77.1762 65.8009C77.2898 65.6386 77.3547 65.4763 77.3547 65.2978C77.3384 65.0707 77.2411 64.8759 77.0301 64.7299ZM75.7482 61.809C76.0078 61.598 76.3161 61.5007 76.6731 61.5007C76.8192 61.5007 76.9165 61.5331 76.9977 61.5818C77.0626 61.6467 77.095 61.7279 77.095 61.8252C77.095 62.0037 76.9652 62.1984 76.6894 62.3607C76.4297 62.5392 76.024 62.7015 75.4561 62.88L75.3912 62.7826C75.3587 62.7177 75.3425 62.6366 75.3425 62.5392C75.3425 62.2471 75.4885 62.0037 75.7482 61.809Z" fill="white"/>
<path d="M84.1373 63.9672C83.9912 63.8212 83.829 63.7563 83.5856 63.7563C83.3746 63.7563 83.1312 63.8374 82.904 64.0159C82.8391 64.0808 82.7417 64.1457 82.6606 64.2106C82.6444 64.2268 82.5957 64.2755 82.5146 64.3729L82.5957 64.0159V63.9672C82.5957 63.9185 82.5795 63.8861 82.547 63.8374C82.5146 63.7887 82.4821 63.7725 82.401 63.7725H82.3685L82.0278 63.8374C81.9628 63.8536 81.8817 63.9672 81.8006 64.1619C81.7681 64.2268 81.7357 64.3242 81.7194 64.4053C81.476 64.7299 81.2489 65.022 81.0541 65.2492C80.8432 65.525 80.6647 65.7197 80.5511 65.8171C80.3077 66.0443 80.1292 66.1579 79.9994 66.1579C79.9345 66.1579 79.8695 66.1254 79.8046 66.093C79.756 66.0281 79.7235 65.9794 79.6748 65.9145C79.6261 65.8496 79.6099 65.7847 79.5775 65.736L79.3178 65.2005L79.5775 64.8922C79.7397 64.6974 79.8533 64.5838 79.9345 64.5027C80.0156 64.4378 80.0643 64.4053 80.0967 64.4053L80.1616 64.4378C80.1779 64.4378 80.1941 64.4703 80.2103 64.5027C80.2103 64.5838 80.1779 64.6812 80.113 64.811C80.048 64.8922 80.0156 64.9733 79.9831 65.0058C79.9182 65.0707 79.8533 65.168 79.7722 65.2654L79.9182 65.4439C80.0805 65.3627 80.2103 65.2816 80.3239 65.2005C80.4213 65.1193 80.5186 65.022 80.5998 64.9246C80.762 64.7137 80.8432 64.5027 80.8432 64.2755C80.8432 64.1457 80.7945 64.0321 80.7134 63.9348C80.6322 63.8374 80.5186 63.7887 80.3888 63.7887C80.259 63.7887 80.1454 63.8212 80.048 63.8861C79.9345 63.951 79.8209 64.0646 79.6911 64.1944L79.188 64.7623L78.7823 63.8861L78.7174 63.8049C78.6687 63.7725 78.6363 63.7563 78.5876 63.7563L78.5389 63.7725L78.2144 63.8212C78.1657 63.8374 78.1495 63.8536 78.1008 63.8861C78.0683 63.9185 78.0683 63.951 78.0683 63.9834V64.0646L78.1008 64.097L78.7012 65.4114L78.1819 66.0281C78.117 66.093 78.0521 66.1579 77.9872 66.2066C77.971 66.2228 77.9385 66.239 77.9061 66.2552L77.8574 66.239L77.8412 66.1903L77.8574 66.1254L77.9061 65.9794L77.7276 65.8658C77.5653 65.9794 77.4517 66.0767 77.403 66.1741C77.3543 66.239 77.3381 66.2715 77.3381 66.3202C77.3219 66.3688 77.3057 66.4337 77.3057 66.5473C77.3057 66.6609 77.3381 66.7421 77.403 66.8232C77.4842 66.8881 77.5815 66.9368 77.6789 66.9368C77.7763 66.9368 77.8898 66.8881 78.0359 66.7907C78.0846 66.7583 78.1332 66.7096 78.2144 66.6285C78.2955 66.5473 78.3767 66.4662 78.4253 66.3851L78.9446 65.7847C79.0906 66.0605 79.2205 66.239 79.3503 66.3688C79.5288 66.5473 79.7235 66.6285 79.9507 66.6285C80.1454 66.6285 80.3726 66.5311 80.6322 66.3202C80.8919 66.1092 81.2002 65.7684 81.6058 65.2654L80.9405 68.2999C80.9568 68.3972 80.973 68.4946 81.0054 68.6082C81.0379 68.7056 81.0541 68.7867 81.0704 68.8354H81.2489C81.3462 68.7218 81.4273 68.5433 81.5085 68.3486C81.5896 68.1538 81.6708 67.9266 81.7519 67.6832C81.8168 67.4398 81.9304 67.0991 82.044 66.6609C82.1576 66.239 82.2712 65.7847 82.3685 65.3141C82.5632 64.9895 82.7742 64.7461 82.9527 64.5676C83.115 64.3891 83.261 64.3242 83.3746 64.3242C83.4395 64.3242 83.5044 64.3567 83.5531 64.3891C83.618 64.454 83.618 64.5027 83.618 64.5838C83.618 64.7786 83.5531 64.9895 83.4071 65.168C83.261 65.3465 83.0663 65.525 82.7904 65.7035L82.5795 65.8171C82.5146 65.8496 82.4334 65.882 82.3848 65.9307C82.3198 65.9794 82.3036 66.0281 82.3036 66.0767C82.3036 66.2066 82.3848 66.3364 82.6282 66.3039C82.8067 66.2715 83.2286 66.0118 83.2286 66.0118C83.6018 65.8009 83.8939 65.5737 84.0886 65.3465C84.332 65.0382 84.4456 64.7461 84.4456 64.4378C84.3482 64.2918 84.2671 64.1133 84.1373 63.9672Z" fill="white"/>
<path d="M94.6539 63.8692C94.589 63.8043 94.5079 63.7881 94.443 63.7881C94.378 63.7881 94.2645 63.7718 94.1671 63.7718C93.8101 63.7718 93.5018 63.853 93.2421 64.0315C93.0312 64.1775 92.9014 64.3398 92.8527 64.5507C92.5444 65.0051 92.2847 65.3621 92.0575 65.6055C91.944 65.7191 91.8304 65.8489 91.7005 65.9787C91.7168 65.995 91.733 66.0112 91.7492 66.0274C91.7168 66.0599 91.6843 66.0761 91.6681 66.0923C91.6681 66.0923 91.6843 66.0761 91.6843 66.0599C91.6843 66.0436 91.6843 66.0112 91.7005 65.995C91.7655 65.9138 91.7655 65.8165 91.7655 65.7191C91.7655 65.6055 91.7168 65.4757 91.6519 65.3459C91.6032 65.281 91.5707 65.2161 91.5058 65.1674C91.4409 65.1187 91.3922 65.07 91.3273 65.0051L91.1001 64.8428C90.8405 64.6643 90.7107 64.5345 90.7107 64.4209C90.7107 64.356 90.7431 64.2911 90.808 64.2424C90.873 64.1775 90.9703 64.1613 91.1164 64.1613C91.1975 64.1775 91.2624 64.1775 91.2949 64.1938C91.3111 64.21 91.3436 64.2424 91.3598 64.2749L91.3273 64.3723C91.2949 64.4209 91.2624 64.4696 91.1813 64.5507L91.2786 64.7292C91.4247 64.7292 91.522 64.713 91.6032 64.6806C91.6681 64.6643 91.7492 64.6157 91.8141 64.5832C91.9602 64.4696 92.0251 64.356 92.0251 64.2262C92.0251 64.0639 91.9602 63.9341 91.8304 63.8692C91.7655 63.8043 91.6843 63.7881 91.6194 63.7881C91.5545 63.7881 91.4409 63.7718 91.3436 63.7718C90.9866 63.7718 90.6782 63.853 90.4186 64.0315C90.1752 64.1938 90.0454 64.3885 90.0291 64.5994C89.8831 64.8104 89.7371 65.0213 89.6072 65.1674C89.4125 65.427 89.1853 65.638 88.9906 65.8002C88.6174 66.1248 88.2604 66.2871 87.9683 66.2871C87.8222 66.2871 87.7086 66.2384 87.6275 66.1572C87.5626 66.0923 87.5301 65.9787 87.5139 65.8489C87.9845 65.7029 88.4064 65.5082 88.7472 65.2485C88.9257 65.1025 89.0717 64.9564 89.1691 64.8266C89.2502 64.6968 89.2827 64.5507 89.2827 64.4047C89.2827 64.2262 89.2178 64.0639 89.0555 63.9503C88.9095 63.8205 88.7147 63.7718 88.5038 63.7718C88.3253 63.7718 88.0981 63.8368 87.8709 63.9341C87.7736 63.999 87.6762 64.0477 87.5626 64.1126V64.0315C87.4977 64.0964 87.449 64.1775 87.3841 64.2424C87.3354 64.2911 87.303 64.3073 87.2705 64.356C87.1894 64.4696 87.092 64.567 87.0433 64.6643C87.0109 64.7292 86.9784 64.7617 86.946 64.8266C86.8161 65.0051 86.7025 65.1512 86.589 65.281C86.3942 65.5406 86.2157 65.7353 86.0859 65.8814C86.021 65.9463 85.9561 65.995 85.875 66.0761C85.7776 66.1572 85.6965 66.1897 85.664 66.1897L85.5991 66.1572C85.5666 66.1248 85.5504 66.0923 85.5504 66.0761C85.5504 66.0112 85.6153 65.8651 85.7127 65.6055C85.8101 65.3621 85.9236 65.07 86.0697 64.7942C86.1346 64.6968 86.2482 64.4047 86.4916 63.9503L86.3131 63.853C86.0048 63.9828 85.7776 64.0477 85.6478 64.0639C85.5017 64.1126 85.4044 64.1288 85.3395 64.1288C85.2908 64.1288 85.2583 64.1126 85.2421 64.0964L85.2259 64.0477L85.2421 63.9828L85.3395 63.7881L85.2421 63.642C85.0311 63.6907 84.8526 63.7718 84.7391 63.9179C84.6255 64.0639 84.5605 64.2262 84.5605 64.3885C84.5605 64.4534 84.5768 64.5345 84.6255 64.5994C84.6417 64.6319 84.6579 64.6643 84.6904 64.6806C84.7553 64.7455 84.8689 64.7779 85.0149 64.7779C85.1123 64.7779 85.2259 64.7455 85.3719 64.6968L85.4206 64.6806C85.3557 64.7942 85.2745 64.9077 85.2096 65.0213C85.1447 65.1349 85.0798 65.2485 85.0311 65.3459C84.8689 65.6867 84.804 65.9463 84.804 66.1086C84.804 66.2871 84.8689 66.4331 84.9825 66.5467C85.0474 66.6116 85.1123 66.6441 85.1772 66.6603C85.2421 66.6927 85.3395 66.709 85.453 66.709C85.6478 66.709 85.875 66.6278 86.1021 66.4331C86.2644 66.3033 86.4591 66.0923 86.735 65.7678C86.7512 66.0436 86.8486 66.2546 87.0271 66.4331C87.2056 66.6278 87.4652 66.7414 87.806 66.7414C88.1792 66.7414 88.5687 66.6116 88.9581 66.3357C89.1529 66.2059 89.3638 66.0436 89.5423 65.8814C89.7208 65.7191 89.8831 65.5082 90.0778 65.2647C90.1427 65.1998 90.1752 65.1187 90.2239 65.07C90.2563 65.1187 90.305 65.1512 90.3699 65.1998C90.4511 65.2647 90.5646 65.3621 90.6945 65.4432C90.8892 65.5893 91.019 65.6867 91.0677 65.7516C91.1164 65.8165 91.1326 65.8814 91.1326 65.9301C91.1326 66.0274 91.0677 66.1248 90.9703 66.2059C90.873 66.2708 90.7269 66.3195 90.5646 66.3195C90.4673 66.3195 90.3861 66.3033 90.3212 66.2708C90.2888 66.2384 90.2563 66.2059 90.2563 66.1735L90.2888 66.0923C90.305 66.0761 90.3537 66.0274 90.4186 65.9625V65.8165C90.3212 65.7678 90.2401 65.7516 90.2076 65.7516L90.0778 65.7353C89.9318 65.7353 89.7857 65.784 89.6721 65.8651C89.5585 65.9463 89.4936 66.0599 89.4936 66.1897C89.4936 66.3682 89.5748 66.498 89.7533 66.5954C89.9318 66.6927 90.1427 66.7414 90.4024 66.7414C90.5484 66.7414 90.6782 66.7252 90.808 66.6765C90.9216 66.6441 91.0515 66.6116 91.1975 66.5467C91.5058 66.498 91.7817 66.3844 92.0251 66.2059C92.1549 66.1086 92.301 65.995 92.447 65.8327C92.5931 65.6867 92.7391 65.5244 92.8851 65.3134C92.9501 65.2485 93.015 65.1512 93.0636 65.0538C93.0636 65.0376 93.0799 65.0376 93.0799 65.0213C93.1123 65.07 93.161 65.1187 93.2421 65.1836C93.3233 65.2485 93.4369 65.3459 93.5667 65.427C93.7614 65.5731 93.8912 65.6704 93.9399 65.7353C93.9886 65.8002 94.0048 65.8652 94.0048 65.9138C94.0048 66.0112 93.9399 66.1086 93.8425 66.1897C93.7452 66.2546 93.5991 66.3033 93.4369 66.3033C93.3395 66.3033 93.2584 66.2871 93.1935 66.2546C93.161 66.2221 93.1286 66.1897 93.1286 66.1572L93.161 66.0761C93.1772 66.0599 93.2259 66.0112 93.2908 65.9463V65.8002C93.1935 65.7516 93.1123 65.7353 93.0799 65.7353L92.95 65.7191C92.804 65.7191 92.658 65.7678 92.5444 65.8489C92.4308 65.9301 92.3659 66.0436 92.3659 66.1735C92.3659 66.352 92.447 66.4818 92.6255 66.5791C92.804 66.6765 93.015 66.7252 93.2746 66.7252C93.4206 66.7252 93.5505 66.709 93.6803 66.6603C93.7939 66.6278 93.9237 66.5954 94.0697 66.5305C94.3781 66.4006 94.6539 66.0436 94.7188 65.7516C94.7513 65.5893 94.6864 65.4595 94.6215 65.3297C94.5728 65.2647 94.5403 65.1998 94.4754 65.1512C94.4105 65.0862 94.3618 65.0538 94.2969 64.9889L94.0697 64.8266C93.8101 64.6481 93.6803 64.5183 93.6803 64.4047C93.6803 64.3398 93.7127 64.2749 93.7776 64.2262C93.8426 64.1613 93.9399 64.1451 94.086 64.1451C94.1671 64.1613 94.232 64.1613 94.2645 64.1775C94.2807 64.1938 94.3131 64.2262 94.3294 64.2587L94.2969 64.356C94.2645 64.4047 94.232 64.4534 94.1509 64.5345L94.2482 64.713C94.3943 64.713 94.4916 64.6968 94.5728 64.6643C94.6377 64.6481 94.7188 64.5994 94.7837 64.567C94.9298 64.4534 94.9947 64.3398 94.9947 64.21C94.8649 64.0639 94.8 63.9341 94.6539 63.8692ZM87.8222 64.5507C87.9196 64.4209 88.0007 64.3236 88.0981 64.2587C88.1792 64.1938 88.2766 64.1613 88.3577 64.1613C88.4064 64.1613 88.4389 64.1775 88.4713 64.21C88.5038 64.2424 88.5038 64.2911 88.5038 64.3398C88.5038 64.567 88.3902 64.7942 88.1792 65.0051C87.9845 65.1836 87.7573 65.3134 87.4977 65.4108C87.5464 65.0862 87.66 64.7942 87.8222 64.5507Z" fill="white"/>
<path d="M104.504 63.2704C104.568 63.3191 104.633 63.3353 104.682 63.3353C104.731 63.3516 104.796 63.3678 104.861 63.3678C104.974 63.3678 105.039 63.3191 105.088 63.238C105.136 63.1569 105.153 63.0433 105.153 62.881C105.136 62.8323 105.12 62.7999 105.088 62.7512C105.039 62.7187 105.023 62.6863 104.974 62.6863L104.909 62.6376L104.812 62.5727C104.731 62.524 104.666 62.5078 104.617 62.5078C104.585 62.5078 104.552 62.524 104.52 62.5564C104.471 62.5889 104.439 62.6538 104.39 62.7349C104.325 62.8648 104.276 62.9459 104.276 63.0108C104.276 63.0595 104.293 63.1082 104.341 63.1406C104.374 63.2055 104.422 63.2542 104.504 63.2704Z" fill="white"/>
<path d="M111.254 64.4706L111.173 64.1623C110.864 64.6004 110.621 64.9412 110.41 65.2008C110.215 65.4604 110.02 65.6714 109.874 65.8174C109.631 66.0771 109.42 66.2231 109.258 66.2231C109.177 66.2231 109.112 66.1907 109.079 66.1258C109.047 66.0608 109.014 65.9797 109.014 65.9148C109.014 65.8337 108.998 65.7525 108.998 65.7038L109.014 65.4118L109.063 65.1034C109.501 64.568 109.842 64.0162 110.069 63.4645C110.296 62.9128 110.41 62.3448 110.41 61.7931C110.41 61.6146 110.394 61.4848 110.377 61.4036C110.345 61.3387 110.329 61.2738 110.313 61.2251C110.28 61.1602 110.248 61.1278 110.215 61.0953L110.069 61.1278C109.939 61.2089 109.793 61.355 109.647 61.5497C109.501 61.7282 109.355 61.9716 109.225 62.2475C109.047 62.6045 108.917 62.9128 108.803 63.1886C108.739 63.3347 108.69 63.4807 108.657 63.6105C108.609 63.7566 108.56 63.9189 108.511 64.1136L108.43 64.4868C108.219 64.7951 108.025 65.0385 107.895 65.2495C107.7 65.5091 107.505 65.7201 107.359 65.8661C107.116 66.1258 106.905 66.2718 106.743 66.2718C106.661 66.2718 106.597 66.2393 106.564 66.1744C106.532 66.1095 106.499 66.0284 106.499 65.9635C106.499 65.8823 106.483 65.8012 106.483 65.7525L106.499 65.4604L106.548 65.1521C106.986 64.6166 107.327 64.0649 107.554 63.5132C107.781 62.9615 107.895 62.3935 107.895 61.8418C107.895 61.6633 107.879 61.5335 107.862 61.4523C107.83 61.3874 107.814 61.3225 107.797 61.2738C107.781 61.2252 107.732 61.1765 107.7 61.144L107.554 61.1765C107.424 61.2576 107.278 61.4037 107.132 61.5984C106.986 61.7769 106.84 62.0203 106.71 62.2961C106.532 62.6531 106.402 62.9615 106.288 63.2373C106.223 63.3834 106.175 63.5294 106.142 63.6592C106.094 63.8053 106.045 63.9675 105.996 64.1623L105.915 64.5679C105.461 65.2008 105.104 65.6389 104.86 65.8986C104.568 66.1907 104.373 66.3367 104.26 66.3367L104.211 66.3205L104.179 66.2231L104.211 66.0771L104.292 65.7688L104.828 64.1947L104.86 64.1136V64.0811C104.86 64.0487 104.828 64.0162 104.795 63.9513C104.747 63.9189 104.714 63.9026 104.682 63.9026H104.633L104.325 63.9675C104.26 63.9838 104.227 64 104.162 64.0325C104.114 64.0974 104.098 64.1298 104.081 64.1623L103.968 64.4868C103.692 64.86 103.465 65.1521 103.286 65.3955C103.091 65.6552 102.913 65.8499 102.783 65.9959C102.718 66.0608 102.653 66.1095 102.572 66.1907C102.475 66.2718 102.394 66.3043 102.361 66.3043L102.296 66.2718C102.264 66.2393 102.248 66.2069 102.248 66.1907C102.248 66.1258 102.313 65.9797 102.41 65.7201C102.507 65.4767 102.621 65.1846 102.767 64.9087C102.832 64.8114 102.945 64.5193 103.189 64.0649L103.01 63.9675C102.702 64.0974 102.475 64.1623 102.345 64.1785C102.199 64.2272 102.102 64.2434 102.037 64.2434C101.988 64.2434 101.956 64.2272 101.939 64.211L101.923 64.1623L101.939 64.0974L102.037 63.9026L101.939 63.7566C101.728 63.8053 101.55 63.8864 101.436 64.0325C101.323 64.1785 101.258 64.3408 101.258 64.503C101.258 64.5679 101.274 64.6491 101.323 64.714C101.339 64.7464 101.355 64.7789 101.388 64.7951C101.453 64.86 101.566 64.8925 101.712 64.8925C101.81 64.8925 101.923 64.86 102.069 64.8114L102.118 64.7951C102.053 64.9087 101.972 65.0223 101.907 65.1359C101.842 65.2495 101.777 65.3631 101.728 65.4604C101.566 65.8012 101.501 66.0608 101.501 66.2231C101.501 66.4016 101.566 66.5477 101.68 66.6613C101.745 66.7262 101.81 66.7586 101.874 66.7748C101.939 66.8073 102.037 66.8235 102.15 66.8235C102.345 66.8235 102.572 66.7424 102.799 66.5477C102.978 66.4016 103.238 66.1095 103.595 65.6552L103.513 65.9635L103.481 66.1907C103.481 66.3692 103.546 66.499 103.659 66.6126C103.757 66.7262 103.903 66.7911 104.081 66.7911C104.309 66.7911 104.568 66.6937 104.844 66.4828C105.12 66.288 105.412 65.9473 105.769 65.4929C105.769 65.5578 105.753 65.6552 105.753 65.785C105.753 66.0933 105.818 66.3529 105.98 66.5477C106.142 66.7424 106.337 66.8398 106.597 66.8398C106.84 66.8398 107.116 66.7262 107.392 66.4828C107.522 66.3692 107.668 66.2231 107.814 66.0608C107.943 65.9148 108.089 65.7525 108.252 65.5253C108.252 65.5903 108.236 65.6876 108.236 65.8174C108.236 66.1258 108.3 66.3854 108.463 66.5801C108.625 66.7748 108.82 66.8722 109.079 66.8722C109.323 66.8722 109.599 66.7586 109.874 66.5152C110.004 66.4016 110.15 66.2556 110.296 66.0933C110.442 65.931 110.605 65.7363 110.799 65.4767C110.848 65.4118 110.881 65.3631 110.945 65.2819C111.027 65.1684 111.091 65.0872 111.124 65.0223C111.189 64.9412 111.205 64.8763 111.238 64.8276C111.254 64.7789 111.27 64.7464 111.27 64.6978L111.254 64.4706ZM109.404 63.1886C109.453 63.0101 109.517 62.7992 109.599 62.5396C109.647 62.4097 109.68 62.3124 109.712 62.2475L109.745 62.5558C109.745 62.8641 109.68 63.2211 109.534 63.5781C109.453 63.789 109.339 64 109.193 64.2434C109.258 63.8702 109.323 63.5132 109.404 63.1886ZM106.872 63.1886C106.921 63.0101 106.986 62.7992 107.067 62.5396C107.116 62.4097 107.148 62.3124 107.181 62.2475L107.213 62.5558C107.213 62.8641 107.148 63.2211 107.002 63.5781C106.921 63.789 106.808 64 106.661 64.2434C106.726 63.8702 106.791 63.5132 106.872 63.1886Z" fill="white"/>
<path d="M100.966 64.503C100.901 64.5193 100.804 64.5193 100.739 64.5193C100.657 64.5193 100.56 64.5193 100.495 64.5193C100.43 64.5193 100.349 64.503 100.284 64.503C100.219 64.4868 100.138 64.4868 100.106 64.4706C99.9435 64.4381 99.8137 64.4219 99.6838 64.4057C99.554 64.3894 99.4404 64.3894 99.3268 64.3894C99.1159 64.3894 98.9212 64.4057 98.7751 64.4544C98.6129 64.4868 98.4993 64.5193 98.4181 64.5679C98.3045 64.6166 98.2234 64.6653 98.1585 64.7302C98.0449 64.8113 97.98 64.9087 97.9475 65.0223C97.9151 65.1197 97.8989 65.2333 97.8989 65.3306C97.8989 65.5253 97.9151 65.6552 97.9475 65.7201C97.98 65.785 98.0124 65.8012 98.0124 65.8012L98.0449 65.785L98.0287 65.7688C98.0611 65.7688 98.0774 65.7525 98.0774 65.7363C98.126 65.5578 98.2559 65.428 98.4506 65.3144C98.6453 65.217 98.8563 65.1359 99.0834 65.0548C99.2944 64.9898 99.5054 64.9412 99.7001 64.9249C99.8786 64.8925 100.008 64.8925 100.041 64.8925H100.171C100.154 64.9412 100.106 65.0385 100.008 65.2008C99.911 65.3631 99.7974 65.5253 99.6189 65.7038C99.4404 65.8823 99.2295 66.0446 98.9536 66.1907C98.6778 66.3367 98.3694 66.4016 97.9962 66.4016C97.769 66.4016 97.5743 66.3367 97.412 66.2231C97.3471 66.1582 97.2822 66.0771 97.2335 65.9959C97.1849 65.9148 97.1524 65.8174 97.1037 65.6876C97.055 65.574 97.0388 65.4442 97.0388 65.2657C97.0388 65.1197 97.0713 64.9574 97.1037 64.7951C97.1524 64.6166 97.2173 64.4219 97.3309 64.2109C97.4445 64 97.5905 63.7728 97.769 63.5456C97.9475 63.3022 98.2072 63.0588 98.5155 62.7992C98.6128 62.8316 98.7264 62.8478 98.8563 62.8478C98.9861 62.8641 99.1321 62.8641 99.2782 62.8641C99.4567 62.8641 99.6838 62.8316 99.9759 62.7992C100.284 62.7505 100.56 62.6694 100.852 62.5558C101.144 62.4422 101.388 62.2799 101.599 62.1014C101.81 61.9229 101.907 61.6795 101.907 61.3874C101.907 61.3063 101.891 61.2251 101.858 61.1927C101.826 61.1278 101.793 61.0953 101.777 61.0466C101.745 60.9979 101.712 60.9817 101.664 60.933C101.582 60.8681 101.469 60.8194 101.339 60.7545C101.209 60.7059 101.031 60.6896 100.852 60.6896C100.739 60.6896 100.593 60.7059 100.447 60.7221C100.3 60.7545 100.138 60.787 99.9922 60.8681C99.8461 60.8681 99.6838 60.933 99.5053 61.0466C99.3268 61.1602 99.1321 61.2738 98.9536 61.4199C98.7751 61.5659 98.6129 61.6957 98.4506 61.8255C98.3045 61.9554 98.2072 62.0527 98.1585 62.1014C98.1423 62.0852 98.1423 62.0852 98.1098 62.0852C97.9151 62.004 97.7204 61.9067 97.5743 61.8255C97.412 61.7444 97.3309 61.6795 97.3309 61.6795H97.3634C97.3147 61.647 97.266 61.6146 97.1849 61.5497C97.12 61.4848 97.055 61.4523 97.0064 61.4036C96.9252 61.5172 96.8928 61.647 96.8928 61.7606C96.8928 61.9067 96.9577 62.0365 97.0713 62.1825C97.2011 62.3286 97.3958 62.4584 97.6717 62.5882C97.4932 62.7667 97.3471 62.9777 97.1686 63.1724C97.0064 63.3671 96.8603 63.5943 96.7305 63.8377C96.6007 64.0649 96.5033 64.3083 96.4222 64.5842C96.3411 64.8438 96.3086 65.1197 96.3086 65.428C96.341 65.8499 96.4709 66.2069 96.7143 66.499C96.9577 66.7911 97.3147 66.9209 97.7853 66.9209C98.0124 66.9209 98.2559 66.8884 98.5317 66.8398C98.8076 66.7911 99.1321 66.6288 99.4891 66.4016C99.4404 66.5152 99.4242 66.6126 99.3918 66.6937C99.3593 66.7748 99.3431 66.856 99.3268 66.9209C99.3106 66.9858 99.3106 67.0669 99.2944 67.1318C99.2944 67.1968 99.2944 67.2941 99.2944 67.3753C99.2944 67.6511 99.3431 67.8621 99.4404 67.9919C99.5216 68.1379 99.6352 68.2353 99.7488 68.3002C99.8623 68.3651 100.025 68.3976 100.203 68.4138C100.236 68.4138 100.268 68.3976 100.3 68.3813C100.333 68.3651 100.349 68.3327 100.333 68.3164C100.252 68.2028 100.187 68.1055 100.138 68.0081C100.073 67.927 100.057 67.8296 100.057 67.6998C100.057 67.5538 100.073 67.4077 100.106 67.2617C100.138 67.1156 100.187 66.9371 100.268 66.7262C100.333 66.5314 100.447 66.3043 100.56 66.0446C100.674 65.785 100.836 65.4929 100.998 65.1359C101.014 65.0872 101.047 65.071 101.079 65.0385C101.063 64.8925 101.031 64.7302 100.998 64.6328C100.998 64.5355 100.982 64.5193 100.966 64.503ZM99.0672 62.2474C99.0672 62.2474 99.0672 62.2312 99.0672 62.2474C99.2457 62.1014 99.3755 61.9878 99.5053 61.9067C99.6352 61.8255 99.7488 61.7282 99.8623 61.6795C99.9759 61.6146 100.09 61.5334 100.187 61.4848C100.349 61.4199 100.495 61.3387 100.641 61.3063C100.804 61.2576 100.95 61.2414 101.063 61.2414C101.144 61.2414 101.242 61.2576 101.371 61.29C101.485 61.3225 101.534 61.3874 101.534 61.501C101.534 61.647 101.469 61.7769 101.339 61.858C101.193 61.9554 101.047 62.0365 100.901 62.1014C100.739 62.1663 100.511 62.215 100.236 62.2799C100.025 62.3124 99.8137 62.3124 99.6352 62.3124C99.4404 62.2799 99.2457 62.2637 99.0672 62.2474C99.0672 62.2637 99.0672 62.2474 99.0672 62.2474Z" fill="white"/>
</g>
<defs>
<clipPath id="clip0">
<rect width="184" height="91.9919" fill="white"/>
</clipPath>
</defs>
</svg>
