<svg width="11" height="12" viewBox="0 0 11 12" fill="none" xmlns="http://www.w3.org/2000/svg">
<path d="M5.91473 5.78043C6.70886 5.78043 7.39651 5.49561 7.95837 4.93367C8.52023 4.37181 8.80505 3.68434 8.80505 2.89013C8.80505 2.09618 8.52023 1.40862 7.95828 0.846585C7.39633 0.284819 6.70877 0 5.91473 0C5.12051 0 4.43304 0.284819 3.87118 0.846676C3.30932 1.40853 3.02441 2.09609 3.02441 2.89013C3.02441 3.68434 3.30932 4.3719 3.87128 4.93376C4.43323 5.49552 5.12079 5.78043 5.91473 5.78043Z" fill="#ffffff"/>
<path d="M10.9718 9.22751C10.9556 8.99368 10.9228 8.73862 10.8745 8.46927C10.8258 8.19791 10.7631 7.94138 10.688 7.70691C10.6105 7.46458 10.505 7.22526 10.3747 6.99592C10.2393 6.75788 10.0804 6.55061 9.90207 6.38005C9.71558 6.20161 9.48724 6.05815 9.22321 5.9535C8.96008 5.84941 8.66849 5.79667 8.35657 5.79667C8.23407 5.79667 8.1156 5.84694 7.88681 5.99589C7.746 6.08772 7.5813 6.19392 7.39746 6.31138C7.24026 6.41154 7.02731 6.50538 6.76428 6.59034C6.50766 6.67338 6.2471 6.71549 5.98993 6.71549C5.73276 6.71549 5.47229 6.67338 5.21539 6.59034C4.95264 6.50547 4.73969 6.41163 4.58267 6.31147C4.40057 6.19511 4.23578 6.08891 4.09286 5.9958C3.86435 5.84685 3.74579 5.79658 3.62329 5.79658C3.31128 5.79658 3.01978 5.84941 2.75674 5.9536C2.49289 6.05806 2.26447 6.20152 2.07779 6.38014C1.89954 6.55079 1.74051 6.75797 1.60538 6.99592C1.4751 7.22526 1.36963 7.46448 1.29199 7.70701C1.21701 7.94147 1.1543 8.19791 1.10559 8.46927C1.05734 8.73825 1.02457 8.99341 1.00836 9.22778C0.992432 9.4574 0.984375 9.69571 0.984375 9.9364C0.984375 10.5628 1.1835 11.0699 1.57617 11.4439C1.96399 11.8129 2.47714 12.0002 3.10117 12.0002H8.87924C9.50327 12.0002 10.0162 11.813 10.4041 11.4439C10.7969 11.0702 10.996 10.563 10.996 9.93631C10.9959 9.69452 10.9878 9.45602 10.9718 9.22751Z" fill="#ffffff"/>
</svg>
