<svg width="12" height="12" viewBox="0 0 12 12" fill="none" xmlns="http://www.w3.org/2000/svg">
<path d="M6 4.84277C7.12614 4.84277 8.03906 3.92985 8.03906 2.80371C8.03906 1.67757 7.12614 0.764648 6 0.764648C4.87386 0.764648 3.96094 1.67757 3.96094 2.80371C3.96094 3.92985 4.87386 4.84277 6 4.84277Z" fill="#ffffff"/>
<path d="M10.125 4.84369C10.8369 4.84369 11.4141 4.26655 11.4141 3.55462C11.4141 2.84269 10.8369 2.26555 10.125 2.26555C9.41307 2.26555 8.83594 2.84269 8.83594 3.55462C8.83594 4.26655 9.41307 4.84369 10.125 4.84369Z" fill="#ffffff"/>
<path d="M1.875 4.84369C2.58693 4.84369 3.16406 4.26655 3.16406 3.55462C3.16406 2.84269 2.58693 2.26555 1.875 2.26555C1.16307 2.26555 0.585938 2.84269 0.585938 3.55462C0.585938 4.26655 1.16307 4.84369 1.875 4.84369Z" fill="#ffffff"/>
<path d="M3.14508 6.00096C2.63766 5.58523 2.17812 5.64026 1.59141 5.64026C0.713906 5.64026 0 6.34994 0 7.22205V9.78165C0 10.1604 0.309141 10.4684 0.689297 10.4684C2.33053 10.4684 2.13281 10.4981 2.13281 10.3976C2.13281 8.58386 1.91798 7.25376 3.14508 6.00096Z" fill="#ffffff"/>
<path d="M6.559 5.64927C5.53422 5.56379 4.64348 5.65025 3.87517 6.28442C2.58946 7.31426 2.83689 8.70089 2.83689 10.3972C2.83689 10.846 3.20205 11.218 3.65767 11.218C8.60491 11.218 8.80181 11.3776 9.09517 10.7279C9.19138 10.5082 9.16502 10.578 9.16502 8.47629C9.16502 6.80694 7.71955 5.64927 6.559 5.64927Z" fill="#ffffff"/>
<path d="M10.4081 5.63979C9.81814 5.63979 9.36113 5.58532 8.85439 6.00049C10.0723 7.24399 9.86665 8.48333 9.86665 10.3971C9.86665 10.4982 9.70252 10.4679 11.2856 10.4679C11.6793 10.4679 11.9995 10.1489 11.9995 9.75681V7.22158C11.9995 6.34947 11.2856 5.63979 10.4081 5.63979Z" fill="#ffffff"/>
</svg>
