<svg width="12" height="12" viewBox="0 0 12 12" fill="none" xmlns="http://www.w3.org/2000/svg">
<path d="M4.96876 7.03137C3.82338 5.88599 3.56476 4.74061 3.50642 4.28172C3.49011 4.15483 3.53378 4.02758 3.62455 3.93744L4.55145 3.01096C4.6878 2.87469 4.71199 2.66233 4.60979 2.49889L3.134 0.207302C3.02094 0.0263187 2.78878 -0.0389999 2.59793 0.0564741L0.22876 1.17227C0.0744277 1.24826 -0.0163486 1.41224 0.00117413 1.58337C0.125312 2.76268 0.63945 5.66171 3.48842 8.51089C6.33738 11.3601 9.236 11.874 10.4159 11.9981C10.5871 12.0157 10.751 11.9249 10.827 11.7705L11.9428 9.40137C12.0379 9.21093 11.9731 8.9794 11.7928 8.86613L9.50124 7.39075C9.33789 7.28844 9.12554 7.31247 8.98917 7.44868L8.06269 8.37558C7.97255 8.46635 7.8453 8.51002 7.71842 8.49371C7.25952 8.43537 6.11414 8.17675 4.96876 7.03137Z" fill="#313643"/>
<path d="M9.51648 6.41416C9.28795 6.41416 9.10269 6.2289 9.10269 6.00037C9.10075 4.28719 7.71243 2.89886 5.99924 2.89692C5.77071 2.89692 5.58545 2.71166 5.58545 2.48313C5.58545 2.2546 5.77071 2.06934 5.99924 2.06934C8.1693 2.07173 9.92788 3.83031 9.93028 6.00037C9.93028 6.2289 9.74502 6.41416 9.51648 6.41416Z" fill="#313643"/>
<path d="M11.5855 6.41379C11.3569 6.41379 11.1717 6.22853 11.1717 6C11.1685 3.14468 8.85457 0.830779 5.99924 0.827586C5.77071 0.827586 5.58545 0.642325 5.58545 0.413793C5.58545 0.185261 5.77071 0 5.99924 0C9.31144 0.0036488 11.9956 2.6878 11.9992 6C11.9992 6.10975 11.9556 6.215 11.878 6.2926C11.8004 6.3702 11.6952 6.41379 11.5855 6.41379Z" fill="#313643"/>
</svg>
