<svg width="12" height="12" viewBox="0 0 12 12" fill="none" xmlns="http://www.w3.org/2000/svg">
<path d="M11.9828 4.62214C11.9414 4.49485 11.8314 4.40208 11.699 4.38287L7.97896 3.84228L6.31525 0.471351C6.25605 0.351351 6.13382 0.275391 6.00002 0.275391C5.86619 0.275391 5.74399 0.351351 5.68476 0.471351L4.02099 3.84228L0.301004 4.38287C0.168606 4.40208 0.058567 4.49485 0.0172234 4.62212C-0.0241436 4.7494 0.0103562 4.88911 0.106192 4.98251L2.79793 7.60642L2.16259 11.3115C2.13995 11.4434 2.19418 11.5767 2.30244 11.6553C2.36368 11.6998 2.43622 11.7225 2.50911 11.7225C2.56508 11.7225 2.62124 11.7091 2.67266 11.6821L6 9.93275L9.32719 11.682C9.44567 11.7443 9.58918 11.734 9.69744 11.6553C9.80569 11.5767 9.85995 11.4433 9.83733 11.3114L9.20178 7.60642L11.8938 4.98249C11.9896 4.88911 12.0242 4.7494 11.9828 4.62214Z" fill="#313643"/>
</svg>
