<svg width="12" height="8" viewBox="0 0 12 8" fill="none" xmlns="http://www.w3.org/2000/svg">
<path d="M7.83231 3.28223C8.52906 3.28223 9.10712 2.7754 9.21875 2.11036H2.78122C2.89285 2.7754 3.47089 3.28223 4.16767 3.28223H5.29686V7.29575H3.3564C3.16224 7.29575 3.00484 7.45316 3.00484 7.64731C3.00484 7.84147 3.16224 7.99888 3.3564 7.99888H8.64357C8.83773 7.99888 8.99513 7.84147 8.99513 7.64731C8.99513 7.45316 8.83773 7.29575 8.64357 7.29575H6.70311V3.28223H7.83231Z" fill="white"/>
<path d="M11.6484 0.000976562H0.351562C0.157406 0.000976562 0 0.158384 0 0.352541V1.05567C0 1.24983 0.157406 1.40723 0.351562 1.40723H11.6484C11.8426 1.40723 12 1.24983 12 1.05567V0.352541C12 0.158384 11.8426 0.000976562 11.6484 0.000976562Z" fill="white"/>
</svg>
