<svg width="30" height="30" viewBox="0 0 30 30" fill="none" xmlns="http://www.w3.org/2000/svg">
<g clip-path="url(#clip0)">
<path d="M25.65 4.31125C22.8 1.55625 19.05 0 15.0562 0C3.59375 0 -3.60375 12.4187 2.12 22.2975L0 30L7.91875 27.935C11.3687 29.7987 14.195 29.6338 15.0637 29.7437C28.355 29.7437 34.9712 13.6637 25.6312 4.36L25.65 4.31125Z" fill="white"/>
<path d="M15.0843 27.1886L15.0768 27.1874H15.0568C11.0793 27.1874 8.53809 25.3036 8.28809 25.1949L3.60059 26.4136L4.85684 21.8574L4.55809 21.3886C3.32059 19.4186 2.66309 17.1499 2.66309 14.8136C2.66309 3.82238 16.0943 -1.67387 23.8668 6.09488C31.6206 13.7824 26.1768 27.1886 15.0843 27.1886Z" fill="#4CAF50"/>
<path d="M21.8847 17.8839L21.8734 17.9776C21.4972 17.7901 19.6647 16.8939 19.3234 16.7701C18.5572 16.4864 18.7734 16.7251 17.3022 18.4101C17.0834 18.6539 16.8659 18.6726 16.4947 18.5039C16.1197 18.3164 14.9159 17.9226 13.4909 16.6476C12.3809 15.6539 11.6359 14.4351 11.4159 14.0601C11.0497 13.4276 11.8159 13.3376 12.5134 12.0176C12.6384 11.7551 12.5747 11.5489 12.4822 11.3626C12.3884 11.1751 11.6422 9.33761 11.3297 8.60511C11.0297 7.87511 10.7209 7.96761 10.4897 7.96761C9.76965 7.90511 9.2434 7.91511 8.77965 8.39761C6.76215 10.6151 7.2709 12.9026 8.99715 15.3351C12.3897 19.7751 14.1972 20.5926 17.5022 21.7276C18.3947 22.0114 19.2084 21.9714 19.8522 21.8789C20.5697 21.7651 22.0609 20.9776 22.3722 20.0964C22.6909 19.2151 22.6909 18.4839 22.5972 18.3151C22.5047 18.1464 22.2597 18.0526 21.8847 17.8839Z" fill="white"/>
</g>
<defs>
<clipPath id="clip0">
<rect width="30" height="30" fill="white"/>
</clipPath>
</defs>
</svg>
