<svg width="73" height="73" viewBox="0 0 73 73" fill="none" xmlns="http://www.w3.org/2000/svg">
<g clip-path="url(#clip0)">
<path d="M56.8455 7.48708C51.4674 2.67396 44.2967 0 36.6777 0C29.0588 0 21.888 2.67396 16.3606 7.48708C6.35139 16.4448 5.15627 33.2908 13.6715 43.5855L36.6777 73.2664L59.5345 43.5855C68.1992 33.2908 66.8547 16.4448 56.8455 7.48708Z" fill="white"/>
<path d="M25.2734 39.6394V14.2725H30.4009V25.5375L40.7377 14.2725H47.6107L38.0649 24.1465L48.1289 39.6394H41.5014L34.5193 27.7469L30.3736 31.9747V39.6394H25.2734Z" fill="#313643"/>
<path d="M48.6191 39.9124H41.337L34.464 28.1836L30.6457 32.0841V39.9124H25V14H30.673V24.8287L40.6279 14H48.2646L38.4187 24.174L48.6191 39.9124ZM41.6643 39.3669H47.6373L37.7369 24.1195L46.9827 14.5455H40.8734L30.1548 26.247V14.5455H25.5455V39.3669H30.1002V31.8659L34.5731 27.3108L41.6643 39.3669Z" fill="white"/>
</g>
<defs>
<clipPath id="clip0">
<rect width="73" height="73" fill="white"/>
</clipPath>
</defs>
</svg>
