<svg width="15" height="3" viewBox="0 0 15 3" fill="none" xmlns="http://www.w3.org/2000/svg">
<path opacity="0.2" d="M0.8 3.00049C0.666667 3.00049 0.553333 2.96049 0.46 2.88049C0.38 2.78715 0.34 2.67382 0.34 2.54049V1.10049C0.34 0.967155 0.38 0.860488 0.46 0.780488C0.553333 0.687155 0.666667 0.640488 0.8 0.640488H2.24C2.37333 0.640488 2.48667 0.687155 2.58 0.780488C2.67333 0.860488 2.72 0.967155 2.72 1.10049V2.54049C2.72 2.67382 2.67333 2.78715 2.58 2.88049C2.48667 2.96049 2.37333 3.00049 2.24 3.00049H0.8ZM6.63906 3.00049C6.50573 3.00049 6.3924 2.96049 6.29906 2.88049C6.21906 2.78715 6.17906 2.67382 6.17906 2.54049V1.10049C6.17906 0.967155 6.21906 0.860488 6.29906 0.780488C6.3924 0.687155 6.50573 0.640488 6.63906 0.640488H8.07906C8.2124 0.640488 8.32573 0.687155 8.41906 0.780488C8.5124 0.860488 8.55906 0.967155 8.55906 1.10049V2.54049C8.55906 2.67382 8.5124 2.78715 8.41906 2.88049C8.32573 2.96049 8.2124 3.00049 8.07906 3.00049H6.63906ZM12.4781 3.00049C12.3448 3.00049 12.2315 2.96049 12.1381 2.88049C12.0581 2.78715 12.0181 2.67382 12.0181 2.54049V1.10049C12.0181 0.967155 12.0581 0.860488 12.1381 0.780488C12.2315 0.687155 12.3448 0.640488 12.4781 0.640488H13.9181C14.0515 0.640488 14.1648 0.687155 14.2581 0.780488C14.3515 0.860488 14.3981 0.967155 14.3981 1.10049V2.54049C14.3981 2.67382 14.3515 2.78715 14.2581 2.88049C14.1648 2.96049 14.0515 3.00049 13.9181 3.00049H12.4781Z" fill="white"/>
</svg>
