<svg width="11" height="11" viewBox="0 0 11 11" fill="none" xmlns="http://www.w3.org/2000/svg">
<path d="M4.0077 6.06876C4.0077 5.93097 3.89593 5.81934 3.75802 5.81934H2.88675C2.749 5.81934 2.63721 5.93097 2.63721 6.06876V6.93993C2.63721 7.0779 2.749 7.18958 2.88675 7.18958H3.75802C3.89593 7.18958 4.0077 7.0779 4.0077 6.93993V6.06876Z" fill="#313643"/>
<path d="M6.18506 6.06876C6.18506 5.93097 6.07327 5.81934 5.93563 5.81934H5.06424C4.92649 5.81934 4.8147 5.93097 4.8147 6.06876V6.93993C4.8147 7.0779 4.92649 7.18958 5.06424 7.18958H5.93563C6.07327 7.18958 6.18506 7.0779 6.18506 6.93993V6.06876Z" fill="#313643"/>
<path d="M8.36268 6.06876C8.36268 5.93097 8.25089 5.81934 8.11314 5.81934H7.24186C7.10396 5.81934 6.99219 5.93097 6.99219 6.06876V6.93993C6.99219 7.0779 7.10396 7.18958 7.24186 7.18958H8.11314C8.25089 7.18958 8.36268 7.0779 8.36268 6.93993V6.06876Z" fill="#313643"/>
<path d="M4.0077 8.24663C4.0077 8.10861 3.89593 7.99707 3.75802 7.99707H2.88675C2.749 7.99707 2.63721 8.10861 2.63721 8.24663V9.11764C2.63721 9.25552 2.749 9.36718 2.88675 9.36718H3.75802C3.89593 9.36718 4.0077 9.2555 4.0077 9.11764V8.24663Z" fill="#313643"/>
<path d="M6.18506 8.24663C6.18506 8.10861 6.07327 7.99707 5.93563 7.99707H5.06424C4.92649 7.99707 4.8147 8.10861 4.8147 8.24663V9.11764C4.8147 9.25552 4.92649 9.36718 5.06424 9.36718H5.93563C6.07327 9.36718 6.18506 9.2555 6.18506 9.11764V8.24663Z" fill="#313643"/>
<path d="M8.36268 8.24663C8.36268 8.10861 8.25089 7.99707 8.11325 7.99707H7.24186C7.10396 7.99707 6.99219 8.10861 6.99219 8.24663V9.11764C6.99219 9.25552 7.10396 9.36718 7.24186 9.36718H8.11325C8.25089 9.36718 8.36268 9.2555 8.36268 9.11764V8.24663Z" fill="#313643"/>
<path d="M9.92056 1.22499V2.55562C9.92056 3.15706 9.43266 3.64172 8.83132 3.64172H8.14419C7.5428 3.64172 7.04843 3.15706 7.04843 2.55562V1.22021H3.95136V2.55562C3.95136 3.15706 3.45701 3.64172 2.85571 3.64172H2.16845C1.56713 3.64172 1.07925 3.15706 1.07925 2.55562V1.22499C0.55369 1.24083 0.121826 1.67572 0.121826 2.21025V10.0084C0.121826 10.553 0.563221 11.0002 1.1078 11.0002H9.89199C10.4358 11.0002 10.878 10.552 10.878 10.0084V2.21025C10.878 1.67572 10.4461 1.24083 9.92056 1.22499ZM9.60141 9.52278C9.60141 9.75812 9.41059 9.94905 9.17516 9.94905H1.80586C1.57042 9.94905 1.3796 9.75812 1.3796 9.52278V5.49476C1.3796 5.25932 1.5704 5.06839 1.80586 5.06839H9.17514C9.41057 5.06839 9.60139 5.25932 9.60139 5.49476L9.60141 9.52278Z" fill="#313643"/>
<path d="M2.16605 2.92818H2.84572C3.05202 2.92818 3.21929 2.76115 3.21929 2.55486V0.373455C3.21929 0.167134 3.05202 0 2.84572 0H2.16605C1.95973 0 1.79248 0.167134 1.79248 0.373455V2.55486C1.79248 2.76115 1.95973 2.92818 2.16605 2.92818Z" fill="#313643"/>
<path d="M8.13526 2.92818H8.81493C9.0211 2.92818 9.18837 2.76115 9.18837 2.55486V0.373455C9.18839 0.167134 9.02112 0 8.81493 0H8.13526C7.92899 0 7.76172 0.167134 7.76172 0.373455V2.55486C7.76172 2.76115 7.92899 2.92818 8.13526 2.92818Z" fill="#313643"/>
</svg>
