<svg width="73" height="73" viewBox="0 0 73 73" fill="none" xmlns="http://www.w3.org/2000/svg">
<g clip-path="url(#clip0)">
<path d="M56.845 7.48708C51.4669 2.67396 44.2962 0 36.6772 0C29.0583 0 21.8876 2.67396 16.3601 7.48708C6.3509 16.4448 5.15578 33.2908 13.6711 43.5855L36.6772 73.2664L59.534 43.5855C68.1987 33.2908 66.8542 16.4448 56.845 7.48708Z" fill="white"/>
<path d="M35.0992 22.1325C36.1908 22.374 37.7469 22.969 38.0124 23.3505C38.0124 23.403 36.506 22.892 34.9499 22.703H34.9333C34.2399 25.0829 32.7999 31.1902 32.916 32.9716C32.9326 33.2691 33.0488 33.2971 33.1483 33.2971C33.646 33.2971 33.3806 34.0286 32.8663 34.0286C32.3686 34.0286 31.7415 33.1921 31.6917 32.4607C31.4927 29.9477 32.6174 25.2159 33.364 22.57C33.1483 22.57 32.9492 22.57 32.7336 22.57C31.9738 22.57 31.2272 22.598 30.4508 22.731C28.1349 26.2729 22.6405 37 18.9675 37C18.075 37 17 36.1075 17 34.1616C17 33.0276 17.3816 32.3242 17.6603 32.3242C17.5275 32.5132 17.3782 32.9716 17.3782 33.3251C17.3782 34.5151 17.8925 34.9736 18.6026 34.9736C22.1428 34.9736 27.1561 26.3779 29.555 22.892C25.1521 23.676 23.1348 25.7304 23.168 26.2694C23.1514 26.7839 22.2589 25.9719 22.2257 24.7819C22.1594 22.5665 28.1814 21.7825 30.3845 21.646H30.4011C32.1065 18.8636 36.7549 11.0519 37.6474 9.51195C38.2446 8.48648 38.5897 8 38.9712 8C39.5187 8 40.1126 8.92047 40.1955 9.18996C39.8472 9.27046 39.6647 9.56795 39.4026 10.0019C38.457 11.6469 36.4065 16.9422 35.0992 22.1325ZM31.1775 21.618C31.9538 21.618 32.7501 21.6705 33.5597 21.779C34.2366 19.3746 36.0249 13.7783 36.9838 11.6434C36.8013 11.9164 36.6387 12.1859 31.1775 21.618Z" fill="#313643"/>
<path d="M31.6763 31.1308C31.6763 31.1308 31.5602 32.9193 32.091 33.8537C32.7646 35.0402 33.5542 35.6072 34.4136 35.9887C36.2716 36.8216 37.7813 36.8496 40.1303 36.6746C42.2505 36.5171 45.1039 35.7367 46.6534 35.2117C47.9308 34.7812 51.1591 33.6787 52.0748 33.4162C52.9906 33.1538 53.9561 33.0173 54.9714 33.8082C55.9867 34.5992 56.2421 35.3202 56.2421 35.3202C56.2421 35.3202 56.4644 33.7417 55.9867 32.2998C55.4923 30.8088 54.5633 29.7764 52.8844 29.7589C51.2055 29.7414 46.5074 32.5133 43.9725 33.4162C42.5226 33.9307 40.3725 34.7742 37.841 34.9107C36.0526 35.0052 34.3107 34.6412 33.594 33.9027C32.9437 33.2308 33.0997 30.7948 33.0997 30.7948L31.6763 31.1308Z" fill="#313643"/>
</g>
<defs>
<clipPath id="clip0">
<rect width="73" height="73" fill="white"/>
</clipPath>
</defs>
</svg>
