<svg width="100" height="100" viewBox="0 0 100 100" fill="none" xmlns="http://www.w3.org/2000/svg">
<g opacity="0.07" clip-path="url(#clip0)">
<path d="M96.5778 48.9982H95.0426C94.8938 48.098 94.8168 47.249 94.9877 46.6197C95.2879 45.514 96.2756 44.3419 97.2307 43.2085C98.5838 41.6031 99.9828 39.9431 99.9998 37.9181C100.021 35.3693 98.2615 33.4728 96.7088 31.7996C95.866 30.8912 95.0697 30.0332 94.7613 29.2817C94.3916 28.3803 94.2096 27.1627 94.0334 25.9854C93.6664 23.5307 93.2504 20.7487 90.9079 19.5475C88.5627 18.3469 86.0612 19.6342 83.8532 20.7706C82.7954 21.3151 81.7012 21.878 80.7553 22.1043C80.0493 22.2727 78.9989 22.1672 78.0696 22.0549C77.2675 21.9579 76.5366 22.5303 76.4395 23.3334C76.3427 24.1366 76.9151 24.8664 77.7183 24.9633C78.9536 25.1127 80.2589 25.2346 81.436 24.9537C82.727 24.645 83.9811 23.9996 85.1938 23.3754C86.9282 22.4829 88.5663 21.6397 89.5715 22.1547C90.5754 22.6694 90.8477 24.4905 91.136 26.4188C91.3377 27.7686 91.5467 29.1643 92.0508 30.394C92.561 31.6369 93.5778 32.7326 94.5613 33.7924C95.8004 35.1279 97.0816 36.509 97.0701 37.8937C97.0621 38.8629 96.0088 40.1125 94.9906 41.3209C93.8303 42.6978 92.6305 44.1214 92.1606 45.8521C91.8891 46.8517 91.9336 47.9369 92.0805 48.9984H82.2438C82.2208 47.7119 81.6673 46.5576 80.9145 45.4681C81.8983 42.742 82.7721 39.9367 83.5126 37.1156C83.718 36.3332 83.2501 35.5324 82.4676 35.3269C81.6846 35.1217 80.8845 35.5896 80.679 36.3721C80.1139 38.5246 79.4686 40.6675 78.755 42.7712C77.8987 41.7357 77.1089 40.6826 76.8335 39.6685C76.561 38.666 76.8431 37.2242 77.1415 35.6978C77.569 33.5107 78.0538 31.0318 76.9755 28.9274C75.8968 26.8223 73.6001 25.768 71.5737 24.8377C70.1611 24.1891 68.8267 23.5764 68.1726 22.7723C67.3763 21.7905 66.9683 20.1717 66.5738 18.6061C66.0246 16.4258 65.4564 14.1714 63.7246 12.9018C61.5394 11.3018 58.7888 11.6462 56.3625 11.9497C55.0226 12.1175 53.7574 12.2761 52.8828 12.0671C51.8439 11.8192 50.6539 11.2071 49.5029 10.6149C47.143 9.40087 44.469 8.0247 41.9901 9.2956C39.6371 10.5015 39.1172 13.2446 38.7348 15.7655C37.5592 15.2165 36.5045 14.6696 35.9461 13.9831C35.1499 13.0012 34.7419 11.3825 34.3473 9.81688C33.7981 7.63662 33.2299 5.38214 31.4981 4.11261C29.313 2.51262 26.5624 2.85695 24.136 3.16047C22.7966 3.32824 21.5312 3.48644 20.6564 3.27785C19.6175 3.03 18.4275 2.41789 17.2765 1.82571C14.9167 0.612038 12.2423 -0.763738 9.76422 0.506374C7.28552 1.77571 6.84041 4.7503 6.44803 7.3749C6.25662 8.65517 6.05838 9.9788 5.65272 10.9675C5.3117 11.7995 4.44413 12.7345 3.52538 13.7245C1.8625 15.5167 -0.022262 17.5481 0.000198824 20.2561C0.0183628 22.4032 1.51719 24.1815 2.96659 25.9012C4.00702 27.1358 5.08299 28.4123 5.41443 29.6311C5.68592 30.6322 5.40389 32.0734 5.10545 33.599C4.67733 35.7871 4.19198 38.2672 5.27069 40.3707C6.349 42.4752 8.64489 43.5294 10.6707 44.4597C12.0839 45.1087 13.4191 45.7218 14.0742 46.5289C14.5808 47.1523 14.9298 48.0353 15.2185 48.9982H3.42226C1.49023 48.9874 -0.103902 50.6745 0.00605818 52.6013C0.31426 58.0017 1.76269 63.1491 4.31092 67.9003C4.69334 68.6133 5.58143 68.8815 6.29412 68.4987C7.00701 68.1163 7.27497 67.2284 6.89255 66.5155C4.54764 62.1431 3.21464 57.4054 2.93066 52.4339C2.91366 52.1362 3.10233 51.9378 3.42226 51.9277H96.5778C96.9008 51.9392 97.0861 52.1353 97.0692 52.4341C96.5938 60.761 93.0762 68.603 87.1639 74.5158C80.605 81.0754 72.2466 84.4541 63.1124 84.4783H36.8874C26.5852 84.476 17.0906 80.0158 10.5091 71.9385C9.99821 71.3114 9.07555 71.2168 8.44821 71.7286C7.82107 72.2397 7.72712 73.1623 8.23825 73.7895C12.8273 79.4197 18.8507 83.4859 25.5702 85.642V89.8236C25.5702 95.4345 30.135 99.9993 35.746 99.9993H64.2539C69.8648 99.9993 74.4296 95.4345 74.4296 89.8236V85.648C79.9528 83.8779 85.0147 80.807 89.2356 76.5873C95.6571 70.1653 99.4777 61.647 99.9941 52.6013C100.104 50.6743 98.4994 48.9884 96.5778 48.9982ZM34.2421 48.9982C30.5854 43.4656 27.4667 37.5877 24.9702 31.5129C23.2558 27.3442 21.8028 23.0047 20.6517 18.6145C20.4462 17.8319 19.6456 17.3641 18.8632 17.569C18.0806 17.7743 17.6126 18.5749 17.8177 19.3575C19.0019 23.8735 20.4968 28.3379 22.2605 32.6268C24.5872 38.2881 27.4376 43.7836 30.7495 48.9982H18.262C17.8497 47.4437 17.3441 45.907 16.3484 44.6818C15.263 43.3447 13.5501 42.558 11.8933 41.7972C10.2218 41.0297 8.49372 40.2361 7.87771 39.0342C7.26208 37.8336 7.62732 35.9668 7.98044 34.1615C8.33024 32.3734 8.69216 30.5246 8.24157 28.8631C7.74001 27.0192 6.45213 25.491 5.20643 24.0131C4.09159 22.6903 2.93886 21.3223 2.92968 20.2315C2.91679 18.6876 4.31776 17.1774 5.67283 15.7171C6.72849 14.5792 7.82029 13.4024 8.36286 12.0794C8.90309 10.763 9.1277 9.26103 9.34508 7.8083C9.66129 5.69424 9.95993 3.69757 11.0998 3.11379C12.2402 2.52941 14.0347 3.45324 15.9359 4.43116C17.2419 5.10304 18.5925 5.79776 19.9761 6.12784C21.3665 6.45987 22.9595 6.26045 24.4997 6.06788C26.4767 5.82042 28.5214 5.56456 29.7667 6.47627C30.6468 7.12139 31.0837 8.85576 31.5063 10.5329C31.9784 12.4069 32.4667 14.3448 33.6717 15.8303C34.7573 17.1655 36.4692 17.9514 38.1249 18.7114C39.7969 19.479 41.5256 20.2727 42.1414 21.4745C42.7571 22.676 42.3922 24.5422 42.0395 26.3467C41.6897 28.1358 41.328 29.9856 41.7791 31.6459C41.9793 32.3863 42.3127 33.074 42.6875 33.693C38.7446 35.798 36.0546 39.9533 36.0546 44.7263C36.0546 46.1917 36.3122 47.6367 36.8071 48.9984H34.2421V48.9982ZM57.1183 48.9982H39.9909C39.3311 47.6773 38.9842 46.216 38.9842 44.7261C38.9842 39.449 43.2774 35.1558 48.5545 35.1558C53.8316 35.1558 58.1248 39.449 58.1248 44.7261C58.125 46.2162 57.7779 47.6775 57.1183 48.9982ZM67.3527 48.9982H60.3021C60.797 47.6365 61.0545 46.1917 61.0545 44.7261C61.0545 41.0006 59.4142 37.6527 56.8201 35.3605C57.4607 35.2269 58.1174 35.1558 58.7888 35.1558C64.066 35.1558 68.3591 39.449 68.3591 44.7261C68.3593 46.2162 68.0124 47.6775 67.3527 48.9982ZM70.5364 48.9982C71.0314 47.6365 71.289 46.1917 71.289 44.7261C71.289 37.8336 65.6816 32.2262 58.789 32.2262C57.0217 32.2262 55.2648 32.6035 53.664 33.3225C52.1029 32.6203 50.3744 32.2262 48.5547 32.2262C47.4926 32.2262 46.4611 32.3604 45.4758 32.6107C45.1076 32.0736 44.7688 31.4766 44.6071 30.8791C44.3346 29.8766 44.6166 28.4348 44.9151 26.9084C45.3426 24.7213 45.8274 22.2424 44.749 20.1379C44.0451 18.7645 42.8223 17.8397 41.4952 17.1036C41.8123 15.0196 42.0977 12.5321 43.3266 11.9026C44.467 11.3184 46.2615 12.2421 48.1627 13.22C49.4688 13.8919 50.8193 14.5866 52.2029 14.9167C53.5935 15.2487 55.1861 15.0493 56.7265 14.8567C58.7035 14.6093 60.7482 14.3536 61.9935 15.2651C62.8736 15.9104 63.3105 17.6446 63.7332 19.3217C64.2052 21.1957 64.6935 23.1336 65.8986 24.6192C66.9841 25.9543 68.696 26.7403 70.3517 27.5002C72.0237 28.2678 73.7524 29.0615 74.3683 30.2633C74.9839 31.4648 74.619 33.3311 74.2663 35.1355C73.9165 36.9246 73.5548 38.7744 74.0064 40.4361C74.5071 42.2812 75.7954 43.8099 77.0413 45.2882C78.1325 46.583 79.2571 47.9204 79.3116 48.9982H70.5364ZM71.4999 89.8236C71.4999 93.8191 68.2493 97.0697 64.2539 97.0697H35.7462C31.7507 97.0697 28.5001 93.8191 28.5001 89.8236V86.4496C31.2194 87.0801 34.0298 87.408 36.8874 87.408H63.1124C65.9718 87.408 68.781 87.0832 71.4997 86.4549V89.8236H71.4999Z" fill="#313643"/>
</g>
<defs>
<clipPath id="clip0">
<rect width="100" height="100" fill="white"/>
</clipPath>
</defs>
</svg>
