<svg width="100" height="100" viewBox="0 0 100 100" fill="none" xmlns="http://www.w3.org/2000/svg">
<g opacity="0.05" clip-path="url(#clip0)">
<path d="M99.707 3.65799C100.208 2.68403 100.039 1.50012 99.2871 0.704072C98.486 -0.0490076 97.2972 -0.215208 96.3201 0.289058C91.9664 2.34694 88.0028 5.14423 84.6054 8.55672L81.3089 11.8532L79.4201 9.96445C77.1123 7.76087 73.4797 7.76087 71.172 9.96445C70.0779 11.0579 69.4631 12.5416 69.4631 14.0886C69.4631 15.6356 70.0779 17.1191 71.172 18.2128L72.9403 19.981L70.5828 22.3385L68.2261 19.9818C66.2721 18.0321 63.1086 18.0321 61.1546 19.9818L49.3716 31.7649C47.4219 33.7189 47.4219 36.8823 49.3716 38.8363L51.7281 41.1928L49.3702 43.5499L47.0133 41.193C44.3762 38.6736 40.2239 38.6736 37.5867 41.193C36.3362 42.4428 35.6337 44.1384 35.6337 45.9062C35.6337 47.6741 36.3362 49.3697 37.5867 50.6194L39.9442 52.9769L36.8987 56.0224C31.8988 53.8878 26.1033 55.0078 22.259 58.8519C18.4145 62.6958 17.2938 68.4914 19.4281 73.4915L15.5766 77.3498C11.2012 75.7941 6.31989 76.9823 3.14899 80.3748C-0.0217174 83.7674 -0.87772 88.7179 0.970019 92.9782C2.81776 97.2385 7.01692 99.9965 11.6606 99.9998C14.7551 100.009 17.7241 98.7768 19.9023 96.5787C23.0814 93.3697 24.1661 88.6357 22.7015 84.3627L26.5005 80.5637C31.4998 82.6805 37.2832 81.5535 41.1219 77.7142C44.9603 73.875 46.0864 68.0912 43.9686 63.0925L47.0141 60.047L49.3716 62.4044C51.0555 64.0883 53.5098 64.7459 55.81 64.1295C58.1103 63.5132 59.9069 61.7166 60.5232 59.4163C61.1396 57.1161 60.482 54.6617 58.7982 52.9779L56.4413 50.621L58.7983 48.2631L61.1548 50.6196C63.1084 52.5705 66.2729 52.5705 68.2263 50.6196L80.0094 38.8365C81.9591 36.8825 81.9591 33.7191 80.0094 31.7651L77.6527 29.4084L80.0101 27.0509L81.7784 28.8192C83.2512 30.2958 85.4002 30.8735 87.415 30.3347C89.4297 29.7959 91.0032 28.2221 91.5423 26.2074C92.0811 24.1927 91.5034 22.0436 90.0267 20.5708L88.138 18.6821L91.4344 15.3856C94.8501 11.9848 97.6491 8.01672 99.707 3.65799ZM20.3466 82.0044C19.4072 82.9216 19.0793 84.2971 19.5035 85.5394C20.5813 88.5685 19.8193 91.9474 17.5456 94.2205C15.9865 95.7872 13.8673 96.6676 11.6571 96.6666C9.44685 96.6656 7.32823 95.7835 5.77051 94.2156C4.20381 92.6563 3.32339 90.5367 3.32437 88.3263C3.32535 86.1159 4.20732 83.9971 5.77539 82.439C8.04791 80.1688 11.4243 79.4093 14.4501 80.4875C15.6922 80.9103 17.0667 80.5832 17.985 79.6462L21.1702 76.461C21.8397 77.3567 22.6345 78.1513 23.5302 78.8206L20.3466 82.0044ZM39.987 73.8739C37.1192 78.1453 31.4779 79.5428 26.9477 77.1041C25.2312 76.1743 23.8218 74.7658 22.8904 73.0501C20.7936 69.1593 21.4975 64.3537 24.6221 61.2279C28.2623 57.5922 34.0676 57.3129 38.04 60.5825C42.0125 63.8518 42.8548 69.6022 39.987 73.8739ZM42.2171 60.1307C41.5437 59.2404 40.7508 58.4474 39.8604 57.7741L42.3009 55.3336L44.6576 57.6903L42.2171 60.1307ZM56.4415 55.3345C57.0666 55.9595 57.418 56.8071 57.418 57.6912C57.418 58.5754 57.0666 59.423 56.4415 60.0479C55.1228 61.3076 53.0467 61.3076 51.7283 60.0479L39.9434 48.2631C39.3161 47.6395 38.9646 46.7909 38.9669 45.9064C38.9667 44.5583 39.7788 43.3429 41.0244 42.8269C42.2699 42.3111 43.7036 42.5963 44.6568 43.5497L56.4415 55.3345ZM54.0846 48.2645L51.7267 45.9066L54.0846 43.5495L56.4417 45.9066L54.0846 48.2645ZM77.6527 36.4798L65.8696 48.2631C65.2183 48.914 64.1627 48.914 63.5113 48.2631L51.7281 36.48C51.0787 35.8281 51.0787 34.7737 51.7281 34.1218L63.5111 22.3387C64.1625 21.6878 65.2181 21.6878 65.8694 22.3387L77.6525 34.1218C78.302 34.7737 78.302 35.8279 77.6527 36.4798ZM75.296 27.0517L72.9393 24.695L75.2968 22.3375L77.6535 24.6942L75.296 27.0517ZM88.4024 24.6952C88.4024 25.3582 88.1389 25.9939 87.67 26.4627C86.6808 27.4066 85.1243 27.4066 84.1351 26.4627L73.5285 15.8561C73.0596 15.3874 72.7961 14.7517 72.7961 14.0886C72.7961 13.4256 73.0596 12.7899 73.5285 12.3211C73.9972 11.8522 74.6329 11.5888 75.296 11.5888C75.959 11.5888 76.5947 11.8522 77.0634 12.3211L87.6698 22.9275C88.1389 23.3963 88.4024 24.0322 88.4024 24.6952ZM85.7813 16.3256L83.6656 14.2099L86.9621 10.9134C89.523 8.34892 92.4297 6.15433 95.5977 4.39369C93.838 7.56225 91.6434 10.4691 89.0779 13.0293L85.7813 16.3256Z" fill="black"/>
<path d="M13.5638 83.7134C11.3612 82.8027 8.82192 83.5745 7.49876 85.5572C6.1756 87.5397 6.4373 90.181 8.12352 91.8655C9.06038 92.8037 10.3326 93.3296 11.6585 93.3271C14.0419 93.3253 16.0924 91.6401 16.5556 89.3021C17.0191 86.964 15.7664 84.6241 13.5638 83.7134ZM12.8369 89.5091C12.1862 90.1599 11.131 90.1599 10.4802 89.5091C10.166 89.1976 9.98923 88.7732 9.98923 88.3309C9.98923 87.8883 10.166 87.4641 10.4802 87.1526C11.131 86.5019 12.1862 86.5019 12.8369 87.1526C13.4877 87.8032 13.4877 88.8582 12.8369 89.5091Z" fill="black"/>
<path d="M30.9115 61.6781C29.4208 61.8458 28.0322 62.5185 26.9762 63.5838C26.4997 64.0604 26.3573 64.7771 26.6151 65.3997C26.8729 66.0224 27.4805 66.4284 28.1545 66.4286L28.1547 66.4288C28.5968 66.4294 29.0208 66.2536 29.3329 65.9405C29.8585 65.4091 30.5499 65.0732 31.2924 64.9884C32.2066 64.8834 32.8622 64.057 32.7571 63.1428C32.6519 62.2286 31.8256 61.5728 30.9115 61.6781Z" fill="black"/>
<path d="M67.0427 28.2302C65.7401 26.9314 63.6322 26.9314 62.3295 28.2302L60.0705 30.4892C59.594 30.9658 59.4516 31.6825 59.7094 32.3051C59.9672 32.9277 60.5747 33.3338 61.2487 33.334C61.6909 33.3346 62.1149 33.1588 62.427 32.8457L64.686 30.5867L66.9402 32.8408C67.5909 33.4916 68.6461 33.4916 69.2969 32.8408C69.9476 32.1901 69.9476 31.1349 69.2969 30.4841L67.0427 28.2302Z" fill="black"/>
</g>
<defs>
<clipPath id="clip0">
<rect width="100" height="100" fill="white"/>
</clipPath>
</defs>
</svg>
