<svg width="100" height="86" viewBox="0 0 100 86" fill="none" xmlns="http://www.w3.org/2000/svg">
<mask id="path-1-inside-1" fill="white">
<path d="M87.8906 76.2031C87.8906 77.2819 87.0163 78.1562 85.9375 78.1562C84.8587 78.1562 83.9844 77.2819 83.9844 76.2031C83.9844 75.1243 84.8587 74.25 85.9375 74.25C87.0163 74.25 87.8906 75.1243 87.8906 76.2031Z"/>
<path d="M63.6719 76.2031C63.6719 77.2819 62.7975 78.1562 61.7188 78.1562C60.64 78.1562 59.7656 77.2819 59.7656 76.2031C59.7656 75.1243 60.64 74.25 61.7188 74.25C62.7975 74.25 63.6719 75.1243 63.6719 76.2031Z"/>
<path d="M40.2344 76.2031C40.2344 77.2819 39.36 78.1562 38.2812 78.1562C37.2025 78.1562 36.3281 77.2819 36.3281 76.2031C36.3281 75.1243 37.2025 74.25 38.2812 74.25C39.36 74.25 40.2344 75.1243 40.2344 76.2031Z"/>
<path d="M16.0156 76.2031C16.0156 77.2819 15.1413 78.1562 14.0625 78.1562C12.9837 78.1562 12.1094 77.2819 12.1094 76.2031C12.1094 75.1243 12.9837 74.25 14.0625 74.25C15.1413 74.25 16.0156 75.1243 16.0156 76.2031Z"/>
<path d="M75.2655 9.29181C71.7659 8.29388 67.5766 8.55786 64.1739 10.1585L60.8345 11.7309C59.1072 8.53268 55.1826 7.96506 51.9531 7.86588V7.84375C51.9531 5.68997 53.7056 3.9375 55.8594 3.9375C56.9382 3.9375 57.8125 3.06317 57.8125 1.98438C57.8125 0.905578 56.9382 0.03125 55.8594 0.03125C51.5518 0.03125 48.0469 3.53619 48.0469 7.84375V7.87503C42.3492 8.07645 38.2812 9.78543 38.2812 15.6562C38.2812 17.5117 38.7253 19.6518 39.5233 21.7369L1.14136 39.27C0.449371 39.5866 0 40.2885 0 41.0469V84.0156C0 85.0944 0.874328 85.9688 1.95312 85.9688H98.0469C99.1257 85.9688 100 85.0944 100 84.0156V41.0469C100 26.5106 89.6431 13.401 75.2655 9.29181ZM65.8371 13.6932C68.2426 12.561 71.4622 12.2696 74.1936 13.0478C86.4288 16.5451 95.1607 27.0897 96.0228 39.0938H73.4375C72.3587 39.0938 71.4844 39.9681 71.4844 41.0469C71.4844 42.1257 72.3587 43 73.4375 43H96.0938V54.7416C95.0211 54.4182 94.0018 53.862 93.2106 53.141C88.9397 49.2462 82.74 49.2462 78.4691 53.141C75.679 55.6846 71.7819 55.6846 68.9919 53.141C64.6996 49.2271 58.9325 49.2271 54.641 53.141C51.8379 55.6961 48.3566 55.6961 45.5544 53.141C41.2621 49.2271 35.495 49.2271 31.2035 53.141C28.4134 55.6846 24.5163 55.6846 21.7262 53.141C17.4553 49.2462 11.2556 49.2462 6.98547 53.1402C6.15158 53.9001 5.04913 54.4769 3.90625 54.7912V43H57.8125C58.8913 43 59.7656 42.1257 59.7656 41.0469C59.7656 39.9681 58.8913 39.0938 57.8125 39.0938H10.9291L41.2468 25.2441C43.589 29.0565 46.7728 31.2812 50 31.2812C56.6742 31.2812 61.7188 22.01 61.7188 15.6562C61.7188 15.6486 61.718 15.6402 61.718 15.6326L65.8371 13.6932ZM3.90625 58.7974C6.00891 58.4289 8.04977 57.4547 9.61685 56.0272C12.4069 53.4828 16.304 53.4828 19.0941 56.0272C23.365 59.922 29.5647 59.922 33.8356 56.0272C36.6379 53.4713 40.1199 53.4713 42.9222 56.0272C47.2137 59.9411 52.9808 59.9411 57.2731 56.0272C60.0754 53.4713 63.5574 53.4713 66.3597 56.0272C70.6306 59.922 76.8303 59.922 81.1012 56.0272C83.8913 53.4828 87.7884 53.4828 90.5785 56.0272C92.0845 57.4005 94.0559 58.3618 96.0938 58.7593V66.4604C95.0211 66.1369 94.0018 65.5807 93.2106 64.8597C88.9397 60.9649 82.74 60.9649 78.4691 64.8597C75.679 67.4034 71.7819 67.4034 68.9919 64.8597C64.6996 60.9459 58.9325 60.9459 54.641 64.8597C51.8379 67.4148 48.3566 67.4148 45.5544 64.8597C41.2621 60.9459 35.495 60.9459 31.2035 64.8597C28.4134 67.4034 24.5163 67.4034 21.7262 64.8597C17.4553 60.9649 11.2556 60.9649 6.98547 64.859C6.15158 65.6189 5.04913 66.1956 3.90625 66.51V58.7974ZM50 11.75C55.5969 11.75 57.4074 12.4443 57.7484 14.7224V14.7239C58.3969 19.049 54.2999 27.375 50 27.375C45.9351 27.375 42.1875 20.137 42.1875 15.6562C42.1875 12.7731 43.3678 11.75 50 11.75ZM3.90625 82.0625V70.5162C6.00891 70.1477 8.04977 69.1734 9.61685 67.7459C12.4069 65.2015 16.304 65.2015 19.0941 67.7459C23.365 71.6407 29.5647 71.6407 33.8356 67.7459C36.6379 65.1901 40.1199 65.1901 42.9222 67.7459C47.2137 71.6598 52.9808 71.6598 57.2731 67.7459C60.0754 65.1901 63.5574 65.1901 66.3597 67.7459C70.6306 71.6407 76.8303 71.6407 81.1012 67.7459C83.8913 65.2015 87.7884 65.2015 90.5785 67.7459C92.0845 69.1192 94.0559 70.0805 96.0938 70.478V82.0625H3.90625Z"/>
<path d="M67.5781 41.0469C67.5781 42.1257 66.7038 43 65.625 43C64.5462 43 63.6719 42.1257 63.6719 41.0469C63.6719 39.9681 64.5462 39.0938 65.625 39.0938C66.7038 39.0938 67.5781 39.9681 67.5781 41.0469Z"/>
</mask>
<path d="M87.8906 76.2031C87.8906 77.2819 87.0163 78.1562 85.9375 78.1562C84.8587 78.1562 83.9844 77.2819 83.9844 76.2031C83.9844 75.1243 84.8587 74.25 85.9375 74.25C87.0163 74.25 87.8906 75.1243 87.8906 76.2031Z" fill="black"/>
<path d="M63.6719 76.2031C63.6719 77.2819 62.7975 78.1562 61.7188 78.1562C60.64 78.1562 59.7656 77.2819 59.7656 76.2031C59.7656 75.1243 60.64 74.25 61.7188 74.25C62.7975 74.25 63.6719 75.1243 63.6719 76.2031Z" fill="black"/>
<path d="M40.2344 76.2031C40.2344 77.2819 39.36 78.1562 38.2812 78.1562C37.2025 78.1562 36.3281 77.2819 36.3281 76.2031C36.3281 75.1243 37.2025 74.25 38.2812 74.25C39.36 74.25 40.2344 75.1243 40.2344 76.2031Z" fill="black"/>
<path d="M16.0156 76.2031C16.0156 77.2819 15.1413 78.1562 14.0625 78.1562C12.9837 78.1562 12.1094 77.2819 12.1094 76.2031C12.1094 75.1243 12.9837 74.25 14.0625 74.25C15.1413 74.25 16.0156 75.1243 16.0156 76.2031Z" fill="black"/>
<path d="M75.2655 9.29181C71.7659 8.29388 67.5766 8.55786 64.1739 10.1585L60.8345 11.7309C59.1072 8.53268 55.1826 7.96506 51.9531 7.86588V7.84375C51.9531 5.68997 53.7056 3.9375 55.8594 3.9375C56.9382 3.9375 57.8125 3.06317 57.8125 1.98438C57.8125 0.905578 56.9382 0.03125 55.8594 0.03125C51.5518 0.03125 48.0469 3.53619 48.0469 7.84375V7.87503C42.3492 8.07645 38.2812 9.78543 38.2812 15.6562C38.2812 17.5117 38.7253 19.6518 39.5233 21.7369L1.14136 39.27C0.449371 39.5866 0 40.2885 0 41.0469V84.0156C0 85.0944 0.874328 85.9688 1.95312 85.9688H98.0469C99.1257 85.9688 100 85.0944 100 84.0156V41.0469C100 26.5106 89.6431 13.401 75.2655 9.29181ZM65.8371 13.6932C68.2426 12.561 71.4622 12.2696 74.1936 13.0478C86.4288 16.5451 95.1607 27.0897 96.0228 39.0938H73.4375C72.3587 39.0938 71.4844 39.9681 71.4844 41.0469C71.4844 42.1257 72.3587 43 73.4375 43H96.0938V54.7416C95.0211 54.4182 94.0018 53.862 93.2106 53.141C88.9397 49.2462 82.74 49.2462 78.4691 53.141C75.679 55.6846 71.7819 55.6846 68.9919 53.141C64.6996 49.2271 58.9325 49.2271 54.641 53.141C51.8379 55.6961 48.3566 55.6961 45.5544 53.141C41.2621 49.2271 35.495 49.2271 31.2035 53.141C28.4134 55.6846 24.5163 55.6846 21.7262 53.141C17.4553 49.2462 11.2556 49.2462 6.98547 53.1402C6.15158 53.9001 5.04913 54.4769 3.90625 54.7912V43H57.8125C58.8913 43 59.7656 42.1257 59.7656 41.0469C59.7656 39.9681 58.8913 39.0938 57.8125 39.0938H10.9291L41.2468 25.2441C43.589 29.0565 46.7728 31.2812 50 31.2812C56.6742 31.2812 61.7188 22.01 61.7188 15.6562C61.7188 15.6486 61.718 15.6402 61.718 15.6326L65.8371 13.6932ZM3.90625 58.7974C6.00891 58.4289 8.04977 57.4547 9.61685 56.0272C12.4069 53.4828 16.304 53.4828 19.0941 56.0272C23.365 59.922 29.5647 59.922 33.8356 56.0272C36.6379 53.4713 40.1199 53.4713 42.9222 56.0272C47.2137 59.9411 52.9808 59.9411 57.2731 56.0272C60.0754 53.4713 63.5574 53.4713 66.3597 56.0272C70.6306 59.922 76.8303 59.922 81.1012 56.0272C83.8913 53.4828 87.7884 53.4828 90.5785 56.0272C92.0845 57.4005 94.0559 58.3618 96.0938 58.7593V66.4604C95.0211 66.1369 94.0018 65.5807 93.2106 64.8597C88.9397 60.9649 82.74 60.9649 78.4691 64.8597C75.679 67.4034 71.7819 67.4034 68.9919 64.8597C64.6996 60.9459 58.9325 60.9459 54.641 64.8597C51.8379 67.4148 48.3566 67.4148 45.5544 64.8597C41.2621 60.9459 35.495 60.9459 31.2035 64.8597C28.4134 67.4034 24.5163 67.4034 21.7262 64.8597C17.4553 60.9649 11.2556 60.9649 6.98547 64.859C6.15158 65.6189 5.04913 66.1956 3.90625 66.51V58.7974ZM50 11.75C55.5969 11.75 57.4074 12.4443 57.7484 14.7224V14.7239C58.3969 19.049 54.2999 27.375 50 27.375C45.9351 27.375 42.1875 20.137 42.1875 15.6562C42.1875 12.7731 43.3678 11.75 50 11.75ZM3.90625 82.0625V70.5162C6.00891 70.1477 8.04977 69.1734 9.61685 67.7459C12.4069 65.2015 16.304 65.2015 19.0941 67.7459C23.365 71.6407 29.5647 71.6407 33.8356 67.7459C36.6379 65.1901 40.1199 65.1901 42.9222 67.7459C47.2137 71.6598 52.9808 71.6598 57.2731 67.7459C60.0754 65.1901 63.5574 65.1901 66.3597 67.7459C70.6306 71.6407 76.8303 71.6407 81.1012 67.7459C83.8913 65.2015 87.7884 65.2015 90.5785 67.7459C92.0845 69.1192 94.0559 70.0805 96.0938 70.478V82.0625H3.90625Z" fill="black"/>
<path d="M67.5781 41.0469C67.5781 42.1257 66.7038 43 65.625 43C64.5462 43 63.6719 42.1257 63.6719 41.0469C63.6719 39.9681 64.5462 39.0938 65.625 39.0938C66.7038 39.0938 67.5781 39.9681 67.5781 41.0469Z" fill="black"/>
<path d="M87.8906 76.2031C87.8906 77.2819 87.0163 78.1562 85.9375 78.1562C84.8587 78.1562 83.9844 77.2819 83.9844 76.2031C83.9844 75.1243 84.8587 74.25 85.9375 74.25C87.0163 74.25 87.8906 75.1243 87.8906 76.2031Z" stroke="white" stroke-width="0.2" mask="url(#path-1-inside-1)"/>
<path d="M63.6719 76.2031C63.6719 77.2819 62.7975 78.1562 61.7188 78.1562C60.64 78.1562 59.7656 77.2819 59.7656 76.2031C59.7656 75.1243 60.64 74.25 61.7188 74.25C62.7975 74.25 63.6719 75.1243 63.6719 76.2031Z" stroke="white" stroke-width="0.2" mask="url(#path-1-inside-1)"/>
<path d="M40.2344 76.2031C40.2344 77.2819 39.36 78.1562 38.2812 78.1562C37.2025 78.1562 36.3281 77.2819 36.3281 76.2031C36.3281 75.1243 37.2025 74.25 38.2812 74.25C39.36 74.25 40.2344 75.1243 40.2344 76.2031Z" stroke="white" stroke-width="0.2" mask="url(#path-1-inside-1)"/>
<path d="M16.0156 76.2031C16.0156 77.2819 15.1413 78.1562 14.0625 78.1562C12.9837 78.1562 12.1094 77.2819 12.1094 76.2031C12.1094 75.1243 12.9837 74.25 14.0625 74.25C15.1413 74.25 16.0156 75.1243 16.0156 76.2031Z" stroke="white" stroke-width="0.2" mask="url(#path-1-inside-1)"/>
<path d="M75.2655 9.29181C71.7659 8.29388 67.5766 8.55786 64.1739 10.1585L60.8345 11.7309C59.1072 8.53268 55.1826 7.96506 51.9531 7.86588V7.84375C51.9531 5.68997 53.7056 3.9375 55.8594 3.9375C56.9382 3.9375 57.8125 3.06317 57.8125 1.98438C57.8125 0.905578 56.9382 0.03125 55.8594 0.03125C51.5518 0.03125 48.0469 3.53619 48.0469 7.84375V7.87503C42.3492 8.07645 38.2812 9.78543 38.2812 15.6562C38.2812 17.5117 38.7253 19.6518 39.5233 21.7369L1.14136 39.27C0.449371 39.5866 0 40.2885 0 41.0469V84.0156C0 85.0944 0.874328 85.9688 1.95312 85.9688H98.0469C99.1257 85.9688 100 85.0944 100 84.0156V41.0469C100 26.5106 89.6431 13.401 75.2655 9.29181ZM65.8371 13.6932C68.2426 12.561 71.4622 12.2696 74.1936 13.0478C86.4288 16.5451 95.1607 27.0897 96.0228 39.0938H73.4375C72.3587 39.0938 71.4844 39.9681 71.4844 41.0469C71.4844 42.1257 72.3587 43 73.4375 43H96.0938V54.7416C95.0211 54.4182 94.0018 53.862 93.2106 53.141C88.9397 49.2462 82.74 49.2462 78.4691 53.141C75.679 55.6846 71.7819 55.6846 68.9919 53.141C64.6996 49.2271 58.9325 49.2271 54.641 53.141C51.8379 55.6961 48.3566 55.6961 45.5544 53.141C41.2621 49.2271 35.495 49.2271 31.2035 53.141C28.4134 55.6846 24.5163 55.6846 21.7262 53.141C17.4553 49.2462 11.2556 49.2462 6.98547 53.1402C6.15158 53.9001 5.04913 54.4769 3.90625 54.7912V43H57.8125C58.8913 43 59.7656 42.1257 59.7656 41.0469C59.7656 39.9681 58.8913 39.0938 57.8125 39.0938H10.9291L41.2468 25.2441C43.589 29.0565 46.7728 31.2812 50 31.2812C56.6742 31.2812 61.7188 22.01 61.7188 15.6562C61.7188 15.6486 61.718 15.6402 61.718 15.6326L65.8371 13.6932ZM3.90625 58.7974C6.00891 58.4289 8.04977 57.4547 9.61685 56.0272C12.4069 53.4828 16.304 53.4828 19.0941 56.0272C23.365 59.922 29.5647 59.922 33.8356 56.0272C36.6379 53.4713 40.1199 53.4713 42.9222 56.0272C47.2137 59.9411 52.9808 59.9411 57.2731 56.0272C60.0754 53.4713 63.5574 53.4713 66.3597 56.0272C70.6306 59.922 76.8303 59.922 81.1012 56.0272C83.8913 53.4828 87.7884 53.4828 90.5785 56.0272C92.0845 57.4005 94.0559 58.3618 96.0938 58.7593V66.4604C95.0211 66.1369 94.0018 65.5807 93.2106 64.8597C88.9397 60.9649 82.74 60.9649 78.4691 64.8597C75.679 67.4034 71.7819 67.4034 68.9919 64.8597C64.6996 60.9459 58.9325 60.9459 54.641 64.8597C51.8379 67.4148 48.3566 67.4148 45.5544 64.8597C41.2621 60.9459 35.495 60.9459 31.2035 64.8597C28.4134 67.4034 24.5163 67.4034 21.7262 64.8597C17.4553 60.9649 11.2556 60.9649 6.98547 64.859C6.15158 65.6189 5.04913 66.1956 3.90625 66.51V58.7974ZM50 11.75C55.5969 11.75 57.4074 12.4443 57.7484 14.7224V14.7239C58.3969 19.049 54.2999 27.375 50 27.375C45.9351 27.375 42.1875 20.137 42.1875 15.6562C42.1875 12.7731 43.3678 11.75 50 11.75ZM3.90625 82.0625V70.5162C6.00891 70.1477 8.04977 69.1734 9.61685 67.7459C12.4069 65.2015 16.304 65.2015 19.0941 67.7459C23.365 71.6407 29.5647 71.6407 33.8356 67.7459C36.6379 65.1901 40.1199 65.1901 42.9222 67.7459C47.2137 71.6598 52.9808 71.6598 57.2731 67.7459C60.0754 65.1901 63.5574 65.1901 66.3597 67.7459C70.6306 71.6407 76.8303 71.6407 81.1012 67.7459C83.8913 65.2015 87.7884 65.2015 90.5785 67.7459C92.0845 69.1192 94.0559 70.0805 96.0938 70.478V82.0625H3.90625Z" stroke="white" stroke-width="0.2" mask="url(#path-1-inside-1)"/>
<path d="M67.5781 41.0469C67.5781 42.1257 66.7038 43 65.625 43C64.5462 43 63.6719 42.1257 63.6719 41.0469C63.6719 39.9681 64.5462 39.0938 65.625 39.0938C66.7038 39.0938 67.5781 39.9681 67.5781 41.0469Z" stroke="white" stroke-width="0.2" mask="url(#path-1-inside-1)"/>
</svg>
