<svg width="100" height="100" viewBox="0 0 100 100" fill="none" xmlns="http://www.w3.org/2000/svg">
<path d="M99.7065 3.65775C100.207 2.68379 100.039 1.49987 99.2866 0.703828C98.4855 -0.0492517 97.2967 -0.215453 96.3196 0.288814C91.966 2.3467 88.0023 5.14399 84.6049 8.55648L81.3084 11.853L79.4197 9.9642C77.1118 7.76063 73.4792 7.76063 71.1715 9.9642C70.0774 11.0577 69.4626 12.5414 69.4626 14.0884C69.4626 15.6353 70.0774 17.1188 71.1715 18.2125L72.9398 19.9808L70.5823 22.3383L68.2256 19.9816C66.2716 18.0319 63.1081 18.0319 61.1542 19.9816L49.3711 31.7646C47.4214 33.7186 47.4214 36.8821 49.3711 38.8361L51.7276 41.1926L49.3697 43.5497L47.0128 41.1928C44.3757 38.6734 40.2234 38.6734 37.5863 41.1928C36.3357 42.4425 35.6332 44.1381 35.6332 45.906C35.6332 47.6738 36.3357 49.3694 37.5863 50.6192L39.9437 52.9766L36.8982 56.0222C31.8983 53.8875 26.1028 55.0076 22.2585 58.8517C18.414 62.6956 17.2933 68.4911 19.4276 73.4912L15.5761 77.3496C11.2007 75.7938 6.3194 76.982 3.1485 80.3746C-0.0222056 83.7672 -0.878208 88.7176 0.969531 92.9779C2.81727 97.2382 7.01643 99.9963 11.6601 99.9996C14.7546 100.009 17.7236 98.7766 19.9018 96.5785C23.0809 93.3695 24.1656 88.6354 22.701 84.3624L26.5 80.5634C31.4993 82.6803 37.2828 81.5532 41.1214 77.714C44.9598 73.8748 46.0859 68.091 43.9681 63.0922L47.0136 60.0467L49.3711 62.4042C51.055 64.0881 53.5093 64.7457 55.8096 64.1293C58.1098 63.5129 59.9064 61.7163 60.5228 59.4161C61.1391 57.1158 60.4815 54.6615 58.7977 52.9776L56.4408 50.6207L58.7979 48.2629L61.1544 50.6194C63.1079 52.5702 66.2724 52.5702 68.2258 50.6194L80.0089 38.8363C81.9586 36.8823 81.9586 33.7188 80.0089 31.7648L77.6522 29.4081L80.0097 27.0507L81.7779 28.8189C83.2507 30.2956 85.3998 30.8733 87.4145 30.3345C89.4292 29.7956 91.0027 28.2219 91.5418 26.2072C92.0806 24.1924 91.5029 22.0434 90.0262 20.5706L88.1375 18.6818L91.434 15.3854C94.8496 11.9846 97.6486 8.01647 99.7065 3.65775ZM20.3461 82.0042C19.4067 82.9213 19.0788 84.2968 19.503 85.5391C20.5808 88.5682 19.8188 91.9471 17.5451 94.2202C15.986 95.7869 13.8668 96.6674 11.6566 96.6664C9.44636 96.6654 7.32774 95.7832 5.77002 94.2153C4.20332 92.6561 3.3229 90.5365 3.32388 88.3261C3.32486 86.1156 4.20683 83.9968 5.7749 82.4387C8.04742 80.1685 11.4238 79.409 14.4496 80.4873C15.6917 80.9101 17.0662 80.583 17.9845 79.6459L21.1697 76.4608C21.8392 77.3564 22.634 78.1511 23.5297 78.8204L20.3461 82.0042ZM39.9865 73.8736C37.1187 78.145 31.4774 79.5426 26.9473 77.1039C25.2308 76.1741 23.8213 74.7655 22.8899 73.0498C20.7931 69.1591 21.497 64.3535 24.6216 61.2277C28.2618 57.592 34.0671 57.3127 38.0395 60.5822C42.012 63.8516 42.8543 69.602 39.9865 73.8736ZM42.2166 60.1305C41.5432 59.2401 40.7503 58.4472 39.8599 57.7738L42.3004 55.3333L44.6571 57.69L42.2166 60.1305ZM56.441 55.3343C57.0661 55.9593 57.4175 56.8069 57.4175 57.691C57.4175 58.5751 57.0661 59.4227 56.441 60.0477C55.1223 61.3074 53.0463 61.3074 51.7278 60.0477L39.9429 48.2629C39.3156 47.6393 38.9641 46.7907 38.9664 45.9062C38.9662 44.558 39.7783 43.3427 41.0239 42.8267C42.2694 42.3109 43.7031 42.596 44.6563 43.5495L56.441 55.3343ZM54.0841 48.2642L51.7262 45.9064L54.0841 43.5493L56.4412 45.9064L54.0841 48.2642ZM77.6522 36.4796L65.8691 48.2629C65.2178 48.9138 64.1622 48.9138 63.5109 48.2629L51.7276 36.4798C51.0782 35.8279 51.0782 34.7734 51.7276 34.1215L63.5107 22.3385C64.162 21.6875 65.2176 21.6875 65.8689 22.3385L77.652 34.1215C78.3016 34.7734 78.3016 35.8277 77.6522 36.4796ZM75.2955 27.0514L72.9388 24.6948L75.2963 22.3373L77.653 24.694L75.2955 27.0514ZM88.4019 24.695C88.4019 25.358 88.1385 25.9937 87.6695 26.4624C86.6803 27.4063 85.1238 27.4063 84.1346 26.4624L73.528 15.8558C73.0591 15.3871 72.7956 14.7514 72.7956 14.0884C72.7956 13.4253 73.0591 12.7896 73.528 12.3209C73.9967 11.852 74.6324 11.5885 75.2955 11.5885C75.9585 11.5885 76.5942 11.852 77.063 12.3209L87.6693 22.9273C88.1385 23.396 88.4019 24.0319 88.4019 24.695ZM85.7808 16.3253L83.6651 14.2097L86.9616 10.9132C89.5226 8.34868 92.4292 6.15408 95.5972 4.39345C93.8375 7.56201 91.6429 10.4689 89.0775 13.0291L85.7808 16.3253Z" fill="black"/>
<path d="M13.5631 83.7131C11.3605 82.8024 8.82119 83.5742 7.49803 85.5569C6.17486 87.5395 6.43657 90.1807 8.12279 91.8652C9.05965 92.8034 10.3318 93.3294 11.6577 93.3268C14.0412 93.3251 16.0916 91.6398 16.5549 89.3019C17.0183 86.9637 15.7657 84.6238 13.5631 83.7131ZM12.8362 89.5089C12.1854 90.1596 11.1302 90.1596 10.4795 89.5089C10.1652 89.1974 9.9885 88.773 9.9885 88.3306C9.9885 87.8881 10.1652 87.4639 10.4795 87.1524C11.1302 86.5016 12.1854 86.5016 12.8362 87.1524C13.4869 87.8029 13.4869 88.8579 12.8362 89.5089Z" fill="black"/>
<path d="M30.9109 61.6778C29.4202 61.8456 28.0316 62.5182 26.9756 63.5835C26.4991 64.0601 26.3567 64.7768 26.6145 65.3994C26.8723 66.0221 27.4799 66.4281 28.1539 66.4283C28.596 66.4289 29.0202 66.2533 29.3323 65.9402C29.8579 65.4088 30.5492 65.0729 31.2918 64.9881C32.206 64.8831 32.8616 64.0568 32.7565 63.1425C32.6513 62.2283 31.8249 61.5725 30.9109 61.6778Z" fill="black"/>
<path d="M67.0421 28.23C65.7395 26.9312 63.6316 26.9312 62.329 28.23L60.0699 30.489C59.5934 30.9656 59.451 31.6823 59.7088 32.3049C59.9666 32.9276 60.5742 33.3336 61.2482 33.3338C61.6903 33.3344 62.1143 33.1586 62.4264 32.8455L64.6854 30.5865L66.9396 32.8406C67.5903 33.4914 68.6456 33.4914 69.2963 32.8406C69.947 32.1899 69.947 31.1347 69.2963 30.4839L67.0421 28.23Z" fill="black"/>
</svg>
