<svg width="100" height="100" viewBox="0 0 100 100" fill="none" xmlns="http://www.w3.org/2000/svg">
<g opacity="0.05" clip-path="url(#clip0)">
<path d="M81.3208 51.1434C81.3208 47.528 80.535 44.0505 78.9849 40.8078C75.9509 34.46 75.4943 27.4107 77.6994 20.9584C78.151 19.6366 78.862 18.328 77.9562 17.0613C77.5002 16.4237 76.7599 16.0431 75.9755 16.0431H63.8463L64.8207 11.3041C64.9709 10.5742 65.3931 9.9419 66.0094 9.52343L76.0688 2.69541C76.738 2.2412 76.9124 1.33043 76.4582 0.661222C76.004 -0.00798856 75.0932 -0.18237 74.424 0.271842L64.3644 7.09986C63.113 7.94931 62.2564 9.23286 61.9517 10.7142L60.856 16.0431H45.8688L53.2297 8.69526C53.6691 8.25863 53.9134 7.65268 53.9005 7.03249C53.8876 6.41444 53.6189 5.82139 53.1643 5.40604C45.0277 -2.03749 32.5363 -1.76176 24.7261 6.03385C24.7255 6.03443 24.7251 6.03502 24.7245 6.03541C24.7243 6.0356 24.7243 6.0356 24.7241 6.0358C24.7239 6.036 24.7237 6.03619 24.7235 6.03639C16.9141 13.8338 16.6391 26.3029 24.1018 34.4291C24.5181 34.8792 25.1098 35.145 25.7247 35.1577C25.7405 35.1581 25.7562 35.1581 25.772 35.1581C26.3724 35.1581 26.9575 34.9177 27.3851 34.4924L36.9539 24.9416C37.9849 30.2955 37.2858 35.9068 34.8966 41.0572C34.3315 42.2755 33.8669 43.5487 33.5154 44.8418C33.3034 45.6223 33.7642 46.4271 34.5447 46.6391C35.3255 46.8508 36.13 46.3903 36.3421 45.6098C36.6502 44.4757 37.0579 43.3587 37.5537 42.2897C40.6086 35.7045 41.1707 28.4293 39.1708 21.6856C38.9742 21.0226 38.5116 19.6526 38.2782 18.9718C38.8469 18.8346 59.6418 19.116 60.2536 18.9718L57.9784 30.0372C56.4531 30.7603 55.0999 31.4461 53.2625 31.8802C50.9632 32.4234 48.5673 32.4144 45.9387 31.8534C45.273 31.7113 44.5735 31.8546 44.0187 32.2469C43.4644 32.6386 43.0959 33.2496 43.008 33.9231C42.5768 37.2196 41.6354 40.4497 40.2101 43.5241C39.099 45.9229 38.5356 48.4866 38.5356 51.1441C38.5356 61.227 46.8182 69.43 56.9989 69.43C67.1796 69.43 75.4623 61.227 75.4623 51.1441C75.4623 48.4091 74.8686 45.7815 73.6982 43.3337C73.3398 42.5848 73.0059 41.8154 72.7058 41.047C72.4115 40.2934 71.5618 39.9209 70.8089 40.2157C70.0555 40.51 69.6831 41.3593 69.9776 42.1126C70.3039 42.948 70.6667 43.7842 71.0559 44.5977C72.0364 46.6475 72.5333 48.85 72.5333 51.1441C72.5333 59.6117 65.5647 66.5008 56.9991 66.5008C48.4335 66.5008 41.4649 59.6119 41.4649 51.1441C41.4649 48.9147 41.9369 46.7653 42.8678 44.7557C44.3435 41.5729 45.3425 38.2335 45.8407 34.8218C48.6753 35.3614 51.3961 35.3309 53.9354 34.7312C55.2003 34.433 56.2645 34.0354 57.2444 33.6082L53.1313 53.6114C52.9684 54.4039 53.4785 55.178 54.2707 55.341C54.3703 55.3613 54.4695 55.3713 54.5674 55.3713C55.2479 55.3713 55.8579 54.8942 56.0003 54.2014L60.5469 32.0889C61.7404 31.5822 63.0304 31.1551 64.7055 30.93C65.6421 30.8046 66.603 30.7566 67.5675 30.786C67.6337 32.2803 67.7979 33.7835 68.0562 35.2608C68.1955 36.0577 68.9539 36.5914 69.7512 36.4512C70.548 36.312 71.0811 35.5529 70.9416 34.7562C70.681 33.2655 70.5251 31.7462 70.4783 30.2412C70.4388 28.9657 69.4452 27.9508 68.1674 27.8801C66.8729 27.8089 65.577 27.8581 64.3161 28.0268C63.1515 28.1834 62.1476 28.4222 61.2423 28.7075L63.2441 18.972H75.2826L74.9276 20.0111C72.4734 27.193 72.9756 35.0272 76.3424 42.0708C77.7023 44.916 78.3918 47.9686 78.3918 51.1432C78.3918 62.8414 68.7954 72.3587 56.9997 72.3587C51.4256 72.3587 46.1482 70.2443 42.1398 66.4047C38.1447 62.5777 35.8302 57.4451 35.6229 51.9522C35.5924 51.1439 34.9179 50.5183 34.104 50.5439C33.2958 50.5745 32.6652 51.2545 32.6959 52.0627C32.932 58.3195 35.5664 64.1642 40.1136 68.52C43.5991 71.8586 47.9282 74.048 52.6054 74.8936V90.8533C52.6054 91.1134 52.4611 91.3475 52.2289 91.4643L43.7063 95.7481C42.7717 96.2167 42.2872 97.2546 42.528 98.272C42.7688 99.2894 43.6671 100 44.7124 100H69.2859C70.3322 100 71.2312 99.2892 71.472 98.2714C71.7128 97.2544 71.2283 96.2167 70.2949 95.7487L61.7709 91.4651C61.5377 91.3475 61.3928 91.113 61.3928 90.8533V74.8924C72.7138 72.8334 81.3208 62.9681 81.3208 51.1434ZM25.8058 9.18443L34.9706 18.3306L35.065 18.61L21.953 17.1392C22.521 14.2788 23.8069 11.534 25.8058 9.18443ZM25.8036 31.9327C22.8856 28.5031 21.5005 24.2562 21.6229 20.0496L36.0839 21.6717L25.8036 31.9327ZM36.825 16.0431L27.8792 7.11567C30.2346 5.12035 32.986 3.83699 35.8533 3.27069L37.2913 16.0433H36.825V16.0431ZM41.7225 16.0431H40.239L38.7641 2.94204C42.9781 2.81961 47.2328 4.20079 50.6697 7.11177L41.7225 16.0431ZM66.4028 97.0711H47.5966L53.5443 94.0816C54.7718 93.4645 55.5344 92.2274 55.5344 90.8535V75.2431C56.0204 75.2718 56.5088 75.2879 56.9993 75.2879C57.491 75.2879 57.9788 75.2716 58.4635 75.2429V90.8535C58.4635 92.2259 59.2255 93.4624 60.4538 94.0816L66.4028 97.0711Z" fill="black"/>
</g>
<defs>
<clipPath id="clip0">
<rect width="100" height="100" fill="white"/>
</clipPath>
</defs>
</svg>
