<svg width="64" height="100" viewBox="0 0 64 100" fill="none" xmlns="http://www.w3.org/2000/svg">
<path d="M63.3208 51.1434C63.3208 47.528 62.535 44.0505 60.9849 40.8078C57.9509 34.46 57.4943 27.4107 59.6994 20.9584C60.151 19.6366 60.862 18.328 59.9562 17.0613C59.5002 16.4237 58.7599 16.0431 57.9755 16.0431H45.8463L46.8207 11.3041C46.9709 10.5742 47.3931 9.9419 48.0094 9.52343L58.0688 2.69541C58.738 2.2412 58.9124 1.33043 58.4582 0.661222C58.004 -0.00798856 57.0932 -0.18237 56.424 0.271842L46.3644 7.09986C45.113 7.94931 44.2564 9.23286 43.9517 10.7142L42.856 16.0431H27.8688L35.2297 8.69526C35.6691 8.25863 35.9134 7.65268 35.9005 7.03249C35.8876 6.41444 35.6189 5.82139 35.1643 5.40604C27.0277 -2.03749 14.5363 -1.76176 6.72607 6.03385C6.72548 6.03443 6.72509 6.03502 6.72451 6.03541C6.72431 6.0356 6.72431 6.0356 6.72412 6.0358C6.72392 6.036 6.72373 6.03619 6.72353 6.03639C-1.08594 13.8338 -1.36089 26.3029 6.10177 34.4291C6.5181 34.8792 7.10979 35.145 7.72471 35.1577C7.74053 35.1581 7.75615 35.1581 7.77197 35.1581C8.37244 35.1581 8.95749 34.9177 9.38514 34.4924L18.9539 24.9416C19.9849 30.2955 19.2858 35.9068 16.8966 41.0572C16.3315 42.2755 15.8669 43.5487 15.5154 44.8418C15.3034 45.6223 15.7642 46.4271 16.5447 46.6391C17.3255 46.8508 18.13 46.3903 18.3421 45.6098C18.6502 44.4757 19.0579 43.3587 19.5537 42.2897C22.6086 35.7045 23.1707 28.4293 21.1708 21.6856C20.9742 21.0226 20.5116 19.6526 20.2782 18.9718C20.8469 18.8346 41.6418 19.116 42.2536 18.9718L39.9784 30.0372C38.4531 30.7603 37.0999 31.4461 35.2625 31.8802C32.9632 32.4234 30.5673 32.4144 27.9387 31.8534C27.273 31.7113 26.5735 31.8546 26.0187 32.2469C25.4644 32.6386 25.0959 33.2496 25.008 33.9231C24.5768 37.2196 23.6354 40.4497 22.2101 43.5241C21.099 45.9229 20.5356 48.4866 20.5356 51.1441C20.5356 61.227 28.8182 69.43 38.9989 69.43C49.1796 69.43 57.4623 61.227 57.4623 51.1441C57.4623 48.4091 56.8686 45.7815 55.6982 43.3337C55.3398 42.5848 55.0059 41.8154 54.7058 41.047C54.4115 40.2934 53.5618 39.9209 52.8089 40.2157C52.0555 40.51 51.6831 41.3593 51.9776 42.1126C52.3039 42.948 52.6667 43.7842 53.0559 44.5977C54.0364 46.6475 54.5333 48.85 54.5333 51.1441C54.5333 59.6117 47.5647 66.5008 38.9991 66.5008C30.4335 66.5008 23.4649 59.6119 23.4649 51.1441C23.4649 48.9147 23.9369 46.7653 24.8678 44.7557C26.3435 41.5729 27.3425 38.2335 27.8407 34.8218C30.6753 35.3614 33.3961 35.3309 35.9354 34.7312C37.2003 34.433 38.2645 34.0354 39.2444 33.6082L35.1313 53.6114C34.9684 54.4039 35.4785 55.178 36.2707 55.341C36.3703 55.3613 36.4695 55.3713 36.5674 55.3713C37.2479 55.3713 37.8579 54.8942 38.0003 54.2014L42.5469 32.0889C43.7404 31.5822 45.0304 31.1551 46.7055 30.93C47.6421 30.8046 48.603 30.7566 49.5675 30.786C49.6337 32.2803 49.7979 33.7835 50.0562 35.2608C50.1955 36.0577 50.9539 36.5914 51.7512 36.4512C52.548 36.312 53.0811 35.5529 52.9416 34.7562C52.681 33.2655 52.5251 31.7462 52.4783 30.2412C52.4388 28.9657 51.4452 27.9508 50.1674 27.8801C48.8729 27.8089 47.577 27.8581 46.3161 28.0268C45.1515 28.1834 44.1476 28.4222 43.2423 28.7075L45.2441 18.972H57.2826L56.9276 20.0111C54.4734 27.193 54.9756 35.0272 58.3424 42.0708C59.7023 44.916 60.3918 47.9686 60.3918 51.1432C60.3918 62.8414 50.7954 72.3587 38.9997 72.3587C33.4256 72.3587 28.1482 70.2443 24.1398 66.4047C20.1447 62.5777 17.8302 57.4451 17.6229 51.9522C17.5924 51.1439 16.9179 50.5183 16.104 50.5439C15.2958 50.5745 14.6652 51.2545 14.6959 52.0627C14.932 58.3195 17.5664 64.1642 22.1136 68.52C25.5991 71.8586 29.9282 74.048 34.6054 74.8936V90.8533C34.6054 91.1134 34.4611 91.3475 34.2289 91.4643L25.7063 95.7481C24.7717 96.2167 24.2872 97.2546 24.528 98.272C24.7688 99.2894 25.6671 100 26.7124 100H51.2859C52.3322 100 53.2312 99.2892 53.472 98.2714C53.7128 97.2544 53.2283 96.2167 52.2949 95.7487L43.7709 91.4651C43.5377 91.3475 43.3928 91.113 43.3928 90.8533V74.8924C54.7138 72.8334 63.3208 62.9681 63.3208 51.1434ZM7.80575 9.18443L16.9706 18.3306L17.065 18.61L3.95296 17.1392C4.52101 14.2788 5.80691 11.534 7.80575 9.18443ZM7.8036 31.9327C4.8856 28.5031 3.5005 24.2562 3.62294 20.0496L18.0839 21.6717L7.8036 31.9327ZM18.825 16.0431L9.87919 7.11567C12.2346 5.12035 14.986 3.83699 17.8533 3.27069L19.2913 16.0433H18.825V16.0431ZM23.7225 16.0431H22.239L20.7641 2.94204C24.9781 2.81961 29.2328 4.20079 32.6697 7.11177L23.7225 16.0431ZM48.4028 97.0711H29.5966L35.5443 94.0816C36.7718 93.4645 37.5344 92.2274 37.5344 90.8535V75.2431C38.0204 75.2718 38.5088 75.2879 38.9993 75.2879C39.491 75.2879 39.9788 75.2716 40.4635 75.2429V90.8535C40.4635 92.2259 41.2255 93.4624 42.4538 94.0816L48.4028 97.0711Z" fill="black"/>
</svg>
