<svg width="100" height="66" viewBox="0 0 100 66" fill="none" xmlns="http://www.w3.org/2000/svg">
<path d="M95.8113 50.5341H80.3682C81.2963 50.2253 82.2228 49.8905 83.1263 49.5289C89.0361 47.1668 92.0327 44.3904 92.0327 41.2761C92.0327 36.4892 88.1547 34.8808 84.7331 33.4628C83.267 32.8551 81.7519 32.226 80.5104 31.3721C79.8423 30.9134 78.928 31.0824 78.4694 31.7497C78.01 32.4178 78.1789 33.3313 78.847 33.7908C80.3422 34.8197 82.0034 35.5084 83.6087 36.1743C87.1144 37.6275 89.0973 38.5807 89.0973 41.2761C89.0973 42.9953 86.5242 45.0096 82.037 46.8037C76.6607 48.9525 70.4214 50.1168 67.8675 50.5341H63.0607C66.3531 47.9664 68.6862 44.4492 70.1791 39.7939C71.9969 34.1279 74.5884 29.9663 78.5833 26.3009C79.6917 25.2834 80.1848 23.847 80.012 22.4841L88.3826 16.257C88.6104 16.088 88.9238 16.0819 89.163 16.2425C90.9763 17.4602 92.8415 17.7935 94.5561 17.2056C95.9084 16.7424 96.9679 15.7731 97.5405 14.4759C98.1344 13.1289 98.1283 11.5557 97.5221 10.1591C96.7279 8.32906 95.0369 7.0838 93.1083 6.85982C93.4721 4.95256 92.7895 2.9658 91.2813 1.66015C90.1308 0.664096 88.6318 0.186325 87.1679 0.349914C85.7598 0.507387 84.5176 1.22901 83.6698 2.38025C82.5958 3.84031 82.355 5.71929 82.9742 7.81383C83.056 8.08979 82.9566 8.38716 82.7296 8.55227L74.2788 14.6754C73.0297 14.1028 71.5115 14.1426 70.2089 14.8955C65.5153 17.6093 60.769 18.8354 54.8186 18.8729C49.7084 18.905 45.5071 20.1808 41.9746 22.7753C38.0317 25.6694 35.389 29.8471 34.5329 34.5369C33.6713 39.2588 34.7194 43.9333 37.4843 47.6988C38.2556 48.7492 39.1454 49.6978 40.1316 50.5341H21.5413C10.2476 48.2592 4.75745 42.6276 4.75745 33.3206C4.75745 26.2397 7.92143 18.9409 13.4391 13.2956C19.4024 7.19311 27.3678 3.83267 35.866 3.83267C45.6018 3.83267 55.7229 7.38422 63.6348 13.5769C64.2731 14.0768 65.1958 13.9637 65.695 13.3254C66.1949 12.6871 66.0825 11.7652 65.4442 11.2652C57.0263 4.6766 46.2455 0.897247 35.866 0.897247C26.5705 0.897247 17.8606 4.57187 11.34 11.2438C5.29102 17.4327 1.82203 25.4799 1.82203 33.3206C1.82203 41.27 5.33306 47.0307 12.2733 50.5341H3.99378C1.68366 50.5341 -0.195312 52.4131 -0.195312 54.7232C-0.195312 57.0333 1.68366 58.9131 3.99378 58.9131H9.31576C9.39832 58.9131 9.4717 58.962 9.50304 59.0384L10.4349 61.3195C11.5364 64.0164 14.1302 65.7586 17.0434 65.7586H82.7617C85.6749 65.7586 88.2686 64.0164 89.3702 61.3195L90.302 59.0392C90.3334 58.9628 90.4068 58.9131 90.4893 58.9131H95.8113C98.1207 58.9131 100 57.0333 100 54.7232C100 52.4139 98.1214 50.5341 95.8113 50.5341ZM84.4541 10.9274C85.6849 10.0314 86.2215 8.44602 85.7888 6.98136C85.5457 6.15883 85.3906 4.99384 86.0342 4.11933C86.4906 3.49861 87.08 3.31362 87.4943 3.26699C88.1479 3.19437 88.8267 3.41758 89.3603 3.8793C90.3135 4.70488 90.3953 5.82096 90.1537 6.58997C89.9229 7.32536 90.0605 8.13489 90.5222 8.75867C90.9786 9.38474 91.7094 9.75778 92.4791 9.75778H92.4799C93.2864 9.75778 94.3268 10.1706 94.829 11.3279C95.1096 11.9746 95.1195 12.6909 94.8542 13.291C94.6861 13.6717 94.3321 14.1785 93.6036 14.4285C92.577 14.7801 91.5114 14.284 90.7989 13.8055C89.5323 12.9546 87.8589 12.9913 86.6328 13.8995L78.6964 19.8032L76.4413 16.7325L84.4541 10.9274ZM39.851 45.9621C37.5684 42.8531 36.7054 38.9828 37.4209 35.0643C38.1417 31.1145 40.3762 27.5897 43.7114 25.1412C46.7279 22.9259 50.3673 21.8358 54.837 21.8083C61.3255 21.767 66.519 20.4193 71.6782 17.4365C72.2461 17.1086 72.9173 17.1567 73.3446 17.5259C73.3507 17.5313 73.3569 17.5359 73.363 17.5412C73.4218 17.5947 73.4769 17.6544 73.525 17.7201L76.8809 22.2914C76.9275 22.3549 76.9696 22.426 77.004 22.5032C77.0055 22.5062 77.007 22.5085 77.0086 22.5108C77.2394 23.0314 77.085 23.6919 76.5981 24.1383C72.2079 28.1668 69.3658 32.719 67.3844 38.8972C66.0191 43.1535 63.8886 46.2992 60.8722 48.5137C59.7469 49.3401 58.52 50.0197 57.2243 50.5341H45.6943C43.3514 49.5602 41.3355 47.984 39.851 45.9621ZM95.8113 55.9777H31.1051C30.2948 55.9777 29.6374 56.6343 29.6374 57.4454C29.6374 58.2557 30.2948 58.9131 31.1051 58.9131H87.1824L86.6534 60.2096C86.0044 61.7973 84.4771 62.8231 82.7617 62.8231H17.0434C15.328 62.8231 13.8007 61.7973 13.1517 60.2096L12.6227 58.9131H24.2765C25.0868 58.9131 25.7442 58.2557 25.7442 57.4454C25.7442 56.6343 25.0868 55.9777 24.2765 55.9777H3.99378C3.30197 55.9777 2.74011 55.415 2.74011 54.7232C2.74011 54.0322 3.30197 53.4696 3.99378 53.4696H95.8113C96.5023 53.4696 97.065 54.0322 97.065 54.7232C97.065 55.415 96.5023 55.9777 95.8113 55.9777Z" fill="black"/>
</svg>
