<svg width="101" height="100" viewBox="0 0 101 100" fill="none" xmlns="http://www.w3.org/2000/svg">
<g opacity="0.05" clip-path="url(#clip0)">
<path d="M96.0066 67.2158H80.5636C81.4916 66.9069 82.4181 66.5721 83.3216 66.2105C89.2315 63.8484 92.228 61.072 92.228 57.9577C92.228 53.1709 88.3501 51.5625 84.9285 50.1445C83.4623 49.5367 81.9472 48.9076 80.7057 48.0537C80.0376 47.5951 79.1234 47.764 78.6647 48.4314C78.2053 49.0995 78.3742 50.013 79.0423 50.4724C80.5376 51.5013 82.1987 52.1901 83.804 52.8559C87.3097 54.3091 89.2926 55.2623 89.2926 57.9577C89.2926 59.6769 86.7195 61.6912 82.2323 63.4853C76.8561 65.6342 70.6168 66.7984 68.0628 67.2158H63.256C66.5484 64.648 68.8815 61.1309 70.3744 56.4755C72.1922 50.8095 74.7837 46.648 78.7786 42.9825C79.887 41.965 80.3801 40.5287 80.2073 39.1657L88.5779 32.9386C88.8057 32.7697 89.1191 32.7636 89.3583 32.9241C91.1716 34.1418 93.0368 34.4751 94.7514 33.8873C96.1037 33.424 97.1632 32.4547 97.7358 31.1575C98.3297 29.8106 98.3236 28.2374 97.7174 26.8407C96.9232 25.0107 95.2322 23.7654 93.3036 23.5415C93.6675 21.6342 92.9848 19.6474 91.4766 18.3418C90.3261 17.3457 88.8271 16.868 87.3632 17.0316C85.9551 17.189 84.7129 17.9107 83.8651 19.0619C82.7911 20.522 82.5503 22.4009 83.1695 24.4955C83.2513 24.7714 83.1519 25.0688 82.9249 25.2339L74.4741 31.357C73.225 30.7845 71.7068 30.8242 70.4042 31.5772C65.7106 34.2909 60.9643 35.5171 55.0139 35.5545C49.9037 35.5866 45.7024 36.8625 42.1699 39.4569C38.227 42.3511 35.5843 46.5287 34.7282 51.2185C33.8667 55.9404 34.9147 60.6149 37.6796 64.3805C38.451 65.4308 39.3408 66.3795 40.3269 67.2158H21.7366C10.4429 64.9408 4.95276 59.3092 4.95276 50.0023C4.95276 42.9213 8.11674 35.6225 13.6344 29.9772C19.5978 23.8748 27.5631 20.5143 36.0613 20.5143C45.7972 20.5143 55.9182 24.0659 63.8301 30.2585C64.4684 30.7585 65.3911 30.6453 65.8903 30.007C66.3902 29.3687 66.2778 28.4468 65.6395 27.9469C57.2216 21.3582 46.4408 17.5789 36.0613 17.5789C26.7658 17.5789 18.0559 21.2535 11.5353 27.9255C5.48633 34.1143 2.01734 42.1615 2.01734 50.0023C2.01734 57.9516 5.52838 63.7124 12.4687 67.2158H4.18909C1.87898 67.2158 0 69.0947 0 71.4049C0 73.715 1.87898 75.5947 4.18909 75.5947H9.51107C9.59363 75.5947 9.66701 75.6436 9.69836 75.7201L10.6302 78.0011C11.7317 80.6981 14.3255 82.4402 17.2387 82.4402H82.957C85.8702 82.4402 88.464 80.6981 89.5655 78.0011L90.4974 75.7208C90.5287 75.6444 90.6021 75.5947 90.6846 75.5947H96.0066C98.316 75.5947 100.196 73.715 100.196 71.4049C100.196 69.0955 98.3167 67.2158 96.0066 67.2158V67.2158ZM84.6494 27.609C85.8802 26.7131 86.4168 25.1277 85.9841 23.663C85.7411 22.8405 85.5859 21.6755 86.2295 20.801C86.6859 20.1803 87.2753 19.9953 87.6896 19.9486C88.3432 19.876 89.022 20.0992 89.5556 20.5609C90.5088 21.3865 90.5906 22.5026 90.3491 23.2716C90.1182 24.007 90.2558 24.8165 90.7175 25.4403C91.1739 26.0664 91.9047 26.4394 92.6745 26.4394H92.6752C93.4817 26.4394 94.5221 26.8522 95.0243 28.0096C95.3049 28.6563 95.3148 29.3725 95.0495 29.9726C94.8814 30.3533 94.5274 30.8601 93.7989 31.1101C92.7723 31.4617 91.7067 30.9656 90.9942 30.4871C89.7276 29.6363 88.0542 29.673 86.8281 30.5811L78.8917 36.4848L76.6367 33.4141L84.6494 27.609ZM40.0463 62.6437C37.7637 59.5348 36.9007 55.6644 37.6162 51.746C38.3371 47.7961 40.5715 44.2713 43.9067 41.8229C46.9232 39.6075 50.5626 38.5175 55.0323 38.4899C61.5208 38.4487 66.7143 37.101 71.8735 34.1181C72.4415 33.7902 73.1126 33.8384 73.5399 34.2076C73.5461 34.2129 73.5522 34.2175 73.5583 34.2229C73.6172 34.2764 73.6722 34.336 73.7204 34.4017L77.0762 38.9731C77.1228 39.0365 77.1649 39.1076 77.1993 39.1848C77.2008 39.1879 77.2023 39.1902 77.2039 39.1924C77.4347 39.713 77.2803 40.3735 76.7934 40.8199C72.4032 44.8485 69.5611 49.4007 67.5797 55.5788C66.2144 59.8352 64.0839 62.9808 61.0675 65.1954C59.9422 66.0217 58.7153 66.7013 57.4196 67.2158H45.8897C43.5467 66.2419 41.5309 64.6656 40.0463 62.6437V62.6437ZM96.0066 72.6593H31.3005C30.4902 72.6593 29.8327 73.3159 29.8327 74.127C29.8327 74.9373 30.4902 75.5947 31.3005 75.5947H87.3777L86.8487 76.8912C86.1997 78.4789 84.6724 79.5048 82.957 79.5048H17.2387C15.5233 79.5048 13.996 78.4789 13.347 76.8912L12.818 75.5947H24.4718C25.2821 75.5947 25.9395 74.9373 25.9395 74.127C25.9395 73.3159 25.2821 72.6593 24.4718 72.6593H4.18909C3.49728 72.6593 2.93542 72.0967 2.93542 71.4049C2.93542 70.7138 3.49728 70.1512 4.18909 70.1512H96.0066C96.6977 70.1512 97.2603 70.7138 97.2603 71.4049C97.2603 72.0967 96.6977 72.6593 96.0066 72.6593V72.6593Z" fill="black"/>
</g>
<defs>
<clipPath id="clip0">
<rect width="100.196" height="100" fill="white"/>
</clipPath>
</defs>
</svg>
