<svg width="73" height="73" viewBox="0 0 73 73" fill="none" xmlns="http://www.w3.org/2000/svg">
<g clip-path="url(#clip0)">
<path d="M56.8455 7.48708C51.4674 2.67396 44.2967 0 36.6777 0C29.0588 0 21.888 2.67396 16.3606 7.48708C6.35139 16.4448 5.15627 33.2908 13.6715 43.5855L36.6777 73.2664L59.5345 43.5855C68.1992 33.2908 66.8547 16.4448 56.8455 7.48708Z" fill="white"/>
<path d="M28.4939 27.3313C28.5229 25.9196 28.5342 21.3032 28.5068 20.637C28.4294 18.4847 27.7777 18.7316 25.8986 19.6605L24.6324 20.2872C24.3872 20.4091 24.3066 20.3727 24.3114 20.1812L24.3308 19.2269C24.334 19.0354 24.4179 18.9199 24.663 18.798C25.3163 18.4752 27.1503 17.6807 30.0908 16.2263C31.3973 15.5806 33.849 14.2529 35.2782 13.547C38.4622 11.9708 41.0688 10.9453 42.4834 11.0023C44.7868 11.0339 45.5675 12.3854 45.5223 14.6374C45.4465 18.415 43.6319 20.2587 40.4155 23.3986L40.5365 23.4144C44.4722 22.6769 47.0788 23.6534 46.9982 27.6984C46.9595 29.645 45.64 32.9431 43.7399 34.9783C42.006 36.8188 39.6703 38.3523 35.9153 40.2103C33.099 41.6045 31.5086 42.2771 29.794 43.1254C27.7535 44.1351 25.3421 45.4423 24.5663 45.8253C24.0759 46.0674 23.9969 46.031 24.0001 45.8791L24.0194 44.8868C24.0227 44.6953 24.1066 44.5798 24.3921 44.4373L26.3518 43.4672C27.618 42.8405 27.831 42.2819 28.0181 40.9794C28.1584 40.0409 28.3407 34.9625 28.4036 31.8337L28.4939 27.3313ZM32.057 27.0432C32.8312 26.7362 33.5248 26.3928 34.2184 26.0494C36.546 24.8989 38.3896 23.6455 39.3816 22.5123C41.0785 20.5009 41.7253 18.4799 41.7592 16.8008C41.7882 15.3512 41.3285 14.0661 39.8397 13.7828C38.3896 13.5565 36.3556 14.2228 34.2733 15.2531C33.7023 15.5363 33.2538 15.7199 32.9248 15.9573C32.5974 16.1947 32.3457 16.584 32.3393 16.9274C32.2828 17.7108 32.1764 21.0516 32.1135 24.2199L32.057 27.0432ZM31.9828 30.7069L31.878 35.9737C31.807 39.4855 32.6748 40.6059 36.0621 38.9284C39.4913 37.2319 42.6657 34.1506 42.756 29.6086C42.8173 26.5178 41.1849 25.323 38.7929 25.6363C37.1315 25.8531 35.2136 26.7647 33.3361 27.6937L32.0296 28.3394L31.9828 30.7069Z" fill="#BAA664"/>
</g>
<defs>
<clipPath id="clip0">
<rect width="73" height="73" fill="white"/>
</clipPath>
</defs>
</svg>
