<svg width="1920" height="864" viewBox="0 0 1920 864" fill="none" xmlns="http://www.w3.org/2000/svg">
<path opacity="0.1" d="M0 64.0225C0 64.0225 195.5 0.0225015 484 0.0225015C814.749 -1.44634 1100.25 69.49 1431 68.0212C1697.5 68.0212 1920 44.0225 1920 44.0225V808.023C1920 808.023 1772 863.022 1497 863.022C1166.25 864.491 839.749 797.554 509 799.022C159.5 799.022 0 858.023 0 858.023V64.0225Z" fill="#1C0F01" fill-opacity="0.9"/>
<path opacity="0.1" d="M0 64.0242C0 64.0242 323.5 23.0234 612 23.0234C942.749 21.5546 1141.25 46.4907 1472 45.0219C1738.5 45.0219 1920 44.0242 1920 44.0242V808.024C1920 808.024 1792 852.023 1517 852.023C1186.25 853.492 811.749 813.555 481 815.023C131.5 815.023 0 838.024 0 838.024V64.0242Z" fill="#1C0F01" fill-opacity="0.9"/>
</svg>
